<svg xmlns="http://www.w3.org/2000/svg" xml:space="preserve" id="Слой_1" x="0" y="0" style="enable-background:new 0 0 80 80" version="1.1" viewBox="0 0 80 80"><style>.st0{fill:#029234}.st2{fill:#cca4fd}.st3{fill:#bbbbf9}.st4{fill:#fff}.st5{fill:#b4dafc}.st6{fill:#6fddbb}.st7{fill:#4cc19a}.st8{fill:#3da881}.st9{fill:#7f51fd}.st10{fill:#ad8cfc}.st12{fill:#ef2599}.st13{fill:#ff4591}.st14{fill:#b164a5}.st15{fill:#f3a1b6}</style><path d="M11.1 19.4zM14.7 32.8zM19.7 27.3zM55 40.2zM49.2 42.1zM70.9 30.8zM70.5 25.4zM67.7 20.2zM70.1 30.5zM39.5 13.4zM27.9 16.9zM28 17.1zM24.4 13.2zM38.1 11.2zM21 31.6c-.2-.2-.4 0-.6 0-.2-.2-.7-.1-.5.2.1.1.2.2.1.3-.4.2-.5-.4-.8-.4-.4-.2-.4.1-.6.2-.7 0-.2.6.1.7 0 .7-1.2-.7-1.3.2 0 .3-.7.4-.2.7.2.1.7.1.5.4-1 .3-.6.4-.4 1 .6.8.8-.4 1.1-.5.2.8 0 .9 1 .5.3-.4-.3-.8.1-1.1.4-.3.3.7.7.5.8-.5.6-.8.3-1.4.2-.2.8.3.7-.3-.1-.4 0-.7.2-.9-.1-.1-.2-.1-.4-.1zM52.2 55.8c-.1-.2-.5 0-.6-.3 0-.3.4 0 .4-.2-.1-.5-.3-.5-.7-.5 0-.1.4-.4 0-.4-.3 0-.5-.3-.5-.6 0 .2.2.4 0 .6-.2 0-.1.2-.1.3-.3.2-.1.3.2.3 0 .3-.4.2-.5.4-.1.1 0 .2 0 .3-.1.4.2.2.4.1.4.1-.7.5-.2.8.2.8.4-.2.6.1-.1.2 0 .7.3.4.1 0 .2.1.3 0 .4-.2-.2-.5-.1-.7.5-.1.6.1.5-.6zM65.7 57c.6-.3.8-.1.3-.8-.3-.2-.6.3-.9 0-.3-.3.5-.3.3-.6-.5-.6-.6-.3-1.2-.1-.1-.1.1-.7-.3-.5-.4.2-.8 0-1.1-.4h-.2c.2.2.6.4.6.8-.1.2.1.3.1.5-.2.3.1.6.3.2.5.1-.6.8 0 1 .3.5.3.5.6-.1.6-.1-.5 1.1.3 1 .8.8.3-.5.8-.3.1.5.5.8.8.2.2.1.3-.2.3-.4-.1-.4-.7-.2-.7-.5zM71.4 54.6c-.3-.4 1-.3.4-.8-.3 0-.2-.4-.5-.5-.3-.1-1.8.8-.8-.1.4-.3.1-.6-.3-.5-.4-.7-.9.8-1.3.3.3-.3-.1-.7-.3-.3-.3-.1-.4-.1-.7.1h-.6c.3.2.6.5.5 1.2.1.1.2.2.3.1.8-.5-.1.6.3.9.6.4.6.5.9-.2.7-.2.1.8.4 1.1 1.5.8.4-.5 1.1-.5.3.6.9 1 1 .1.6-.5 0-.9-.4-.9zM43.4 33.2c.5-.4.5-.9-.2-.9-.1-.4-.8-.2-.8.2 0 .2.2.6-.1.7-.3 0-.3-.5-.6-.5-.5.2-.8.9-.1 1.2.1.1.2.3.1.5-.2.5-.7-.4-.8 0-.2.5-.2 1 .5 1.1.4.4-.5.2-.4.6.5.5.6.9.3 1.5h.1c.1-.3.2-.7.5-.8.3.1.3-.2.5-.3.2.1.6-.3.3-.5-.1 0-.3-.1-.2-.2.2-.4.7.1.9-.2.4-.6.7-.9-.3-.8-.4-.6.9-.2 1-.7.1-.2-.2-.4.1-.6.1-.7-.8.2-.8-.3zM53 8.3c-.1.3-.8.2-.5.6.4.4.4.9.1 1.4h.3c.1-.3.2-.6.4-.8.2-.1.5 0 .5-.3.2-.1.8-.2.4-.5-.1 0-.3-.1-.2-.2.3-.4.7.1.9-.1.2 0 .1-.3.2-.4.6-.4-.1-.6-.5-.6-.4-.6 1.3-.1 1-.8.5-1.3-.6-.2-.8-.8.2-.3.6-.5.3-.8-.2-.2-.5.1-.5-.3-.8-.4-.5.8-.8 1-.6-.7-.7-.7-1.1.2-.1.5.7.6.5 1-.2.4-.6-.4-.8-.1-.2 1 0 1 .6 1.5zM70.4 39.1c.3-.2.1-.8-.3-.8-.2 0-.1-.2-.2-.3-.8-.6-.6.8-.9 1-.3 0-.2-.7-.6-.7-.6.2-.9.9-.4 1.3.4.6-.2.8-.6.3-.3-.3-.4.2-.5.4-.4.4.1.8.5 1 .4.5-.6.1-.6.6.1.4.6.7.4 1.1l-.2.2H67.6c.3-.1.6-.1.8-.4.3.1.7-.3.4-.5-.1-.1-.3-.1-.2-.3.4-.4 1.2.5 1.3-.3.6-.6.4-.7-.4-.8-.4-.7 1.5.1 1.3-.8 0 .1.2.1.2-.1.4-.8-1.8-.1-.6-.9zM69.2 35.4c-.3-.4-.8.2-1-.3-.2-.4.7-.2.6-.6-.4-.8-.7-.7-1.3-.5-.2-.2.1-.3.1-.5-.1-.6-.8 0-1-.5 0-.1-.1-.2-.1-.2h-.4c.2.4.3.8.1 1.3-.4.8.7 0 .5.6-.1.3-.8.6-.5.9.2.1-.1.5.2.5.3.1.9-.9.7 0-.7.8-.3.7.1 1.3.5.7.5-.7.8-.4 0 .4.2 1 .7.6.1-.2.2-.2.4-.1.8-.4-.3-.8-.3-1.2.7-.1.8.1.4-.9zM67.1 17.8c.1.5-.8 0-.8.4.1.4.2.9.8.8 1-.2-.4.7.3.8.4.2.6.4.7.6h.3c0-.1-.1-.3.1-.5.1-.2.4-.2.3-.5.3-.3.5-.8-.2-.6-.4-.5 1.1-.4.7-1 .1-.8-.2-.7-.7-.3-.6-.3.7-.6.6-.9-.6-1.9-.7-.1-1.2-.6.2-.4 0-1.1-.6-.7-1.5-.3 0 1-.5 1.1-.7-.5-.8.1-.7.7.2.5.8.2.9.7zM70.2 22.5c-.2.5-.7-.3-.8 0-.3.8 0 .9.6 1.3 0 .3-.8.2-.4.6.5.3.5.9.3 1.4h.2c0-.3.1-.6.4-.8.2-.1.5 0 .5-.4.8-.5.3-.3 0-.7.2-.4.7 0 .9-.2.4-.5.6-1-.3-.8-.4-.5.9-.2.9-.8-.1-.5.2-1-.3-.9-1.3.6.6-1-.8-.8-.2-.4-.8-.1-.7.3 0 .2.2.6 0 .7-.7-.5-.6-.8-1 .3-.1.4.6.4.5.8zM11 18c.8.5-.3.3-.3.6.1.1.1.4.2.4.4.3.1.7-.1 1h.2c.2-.5.7-.4.9-.8.2.1.6-.2.3-.4-.1 0-.3-.1-.2-.2.3-.3.7.2.9 0 .5-.4.8-.8-.1-.9-.3-.6.9 0 1.1-.5.8-1.9-1.5-.2-.2-1.5.1-.5-.3-.4-.5-.5-.1-.5-.8-.3-.8.1-.1.2.1.6-.2.7-.3 0-.2-.6-.5-.6-.5.2-.8.8-.3 1.1.1.1.1.3.1.5-.3.4-.6-.5-.8-.2 0 .4-.2.9.3 1.2zM14.6 23.3c-.1.1-.1.2-.1.3.6.4.8.7.8 1.3h.2c-.1-.6.3-.8.5-1.2.6-.4.4-.5-.1-.7.1-.5 1.1-.1.9-.8.2-.7 0-.7-.7-.5-.6-.4 1.2-.6.7-1.2-.2-.2.1-.8-.5-.6-1.2.8.4-.9-1-.7-.7-.5-.7.6-.4.9-.2.5-.5-.3-.8-.1-.3.3-.5 1 .1 1.1.7.1.5.8-.2.6-.4-.1-.2.6-.2.8.3.5 1.7.3.8.8zM12.7 40.2c-.1.3-.5.7.3.6.3.1 0 .2-.1.3-.2.1-.1.4.2.4.1 0 .1.2.2.2.6.1.3-.4.6-.5.4.4.4.5.9 0 .1-.3-.4-.4-.2-.6.2-.2.4.3.6.1.4-.4.1-.5-.1-.8.1-.1.7 0 .4-.3-.3-.3-.1-.5.3-.7h-.6c-.1.3-.6.2-.8.4-.1-.1-.4.1-.3.2.1.1.2.1.1.1-.2.2-.5-.1-.7-.1-.4.3-.7.5.1.5.2.3-.7 0-.9.2zM62.8 39.4c1 .7.3-.6.8-.4.1.2.2.6.6.4.2-.1.1-.4.4-.4.5-.6-.5-.6-.6-.9.7-.3.8-.2.2-1-.4-.1-.7.4-1 .1-.3-.3.5-.4.3-.7-.6-.6-.7-.3-1.3 0-.2-.1.1-.7-.4-.5s-1 .1-1.3-.4c0 0 0-.1.1-.1l-.3.3c0 .1.1.1.1.1.2.1.5.4.5.7-.1.2.1.3.1.5-.1.1.1.6.3.4.1-.1.1-.2.2-.1.2.4-.6.8.1 1.1.1.6.5.1.6-.2.7-.1-.3 1.3.6 1.1zM39.1 24.2c-.1-.1.1-.4-.1-.4-.3-.2-.6.6-.7.1.5-.7.8-.5.3-1.4-.3-.6-.6.5-.8.2.1-.3 0-.9-.5-.7-.1.2-.2.1-.3 0-.8.3.1.8 0 1.1-.6-.1-.9-.3-.7.7.2.3.8 0 .9.4.1.4-.7.1-.6.4.2.8.4.7 1.1.7.1.3-.3.3-.2.6.4.2.8.3.9.8l.1-.1c0-.3.3-.5.2-.8 0-.2.3-.2.2-.4 0-.3-.7.2-.4-.3.1-.4.8-.5.6-.9zM43 10.1c-.2.5.4.8.5.9.4 0 .4-.7.7-.6.4.2-.4.9.1.8.5.7.7-1.1.9-.4 0 .2.1.3.2.3.4-.5.9-.4 1.4-.1 0-.1.1-.1.1-.2s-.1-.2-.2-.2c-.2-.2-.4-.3-.6-.5 0-.2-.1-.4-.2-.4-.1-1.3-.7.8-.6-.8 0-.2-.1-.7-.3-.6-.7-.8-.2.8-.6.5-.1-.5-.1-1.3-.7-1-.7-.5.1 1.2-.5.7-.1-.5-.7-.3-.6.2-.9 1.4 1.3.6.4 1.4zM23 41.8c-.9-.3-.8.4-.4.8.2.3 1.3-.1 1 .3-.9.1-.6.4-.1.7.4.1.7-.3.9 0 .1.1-.1.1-.2.1-.3.1.1.4.4.3.3.2.7.1.9.4.1-.1.2-.1.3-.2-.1-.3 0-.5.2-.8 0-.3-.5-.1-.6-.3.5-.4.8-.5.3-1.1-.3-.2-.6.4-.8.1-.3-.4.7-.6.2-.9-.8-.6-.5-.1-.9.1-.4-.1 0-.8-.8-.7-.3.2-.2.4-.4.4-1 .3.6.7 0 .8zM9.3 48.6c.2-.1.6 0 .3.3-.3.1-.7.5-.2.6.2 0 .2.3.4.3.3.2.8-.9.9-.3-.3.3-.5.8.1.6.2 0 .3.3.4.1.3-.1.3-.6.7-.6.1 0 0 .2 0 .3-.1.3.3.3.4.1.3 0 .4 0 .6-.2.2 0 .3.1.6.2l.1-.1c-.4-.2-.6-.4-.7-.9 0-.5-.4.1-.6-.1.1-.6.2-.9-.6-1.2-.3-.1-.1.8-.5.6-.4-.2 0-.7-.3-.9-.8-.3-.8-.2-.8.6-.3.1-.4-.5-.8-.4-.6 0-.2.3-.3.5-.2-.1.1.5.3.5zM19.6 12.8c-.8.5-.3.8.4.9.5 0 .5-.8.9-.7.5.1-.3.7.1.8.8.3.8-.1 1.2-.7.3 0 .3.8.7.4.2-.2.4-.3.6-.3v-.4c-.2 0-.3-.1-.3-.3s-.1-.4-.3-.4c-.1-.4-.5-.7-.6-.1-.6.2.1-1.2-.7-1-1-.8-.2.8-.8.6-.3-.3-.1-.8-.6-.9-.2-.1-.4.2-.6 0-.8-.1.2.8-.3.9-.3-.3-1-.5-.8.2 0 .2-.3.2-.2.4.2.8 1.3 0 1.3.6zM27.3 9.7c-.4.6-.8.5.1 1 .5 0 .5-.7.9-.5.5.2-.4.7 0 .8.8.4.9 0 1.3-.6.3 0 .1.6.5.5.4-.5.8-.6 1.3-.4v-.2c-.3-.1-.6-.2-.6-.4.1-.3-.2-.3-.3-.5.1-.2-.3-.6-.5-.3 0 .1-.1.3-.2.2-.4-.2.1-.7-.2-.9-.6-.4-.9-.7-.8.3-.5.4-.2-.8-.6-.9-.2-.2-.4.1-.6 0-.5-.3-.6.3-.3.7 0 .4-.4.1-.5-.1-.2-.2-.8 0-.6.4-.5 1 .6.6 1.1.9zM27 18c-.2.1-.2-.1-.3-.2-.7-.4-.2.8-.7.8-.3-.6-.7-.8-.9-.1-.5 0-.4.7 0 .8.2.1.6 0 .6.3-.8.5-.8.3-.1 1 .4.2.7-.5 1.1-.2.4.3-.6.5-.3.8.7.6.8.3 1.4-.1.3.1-.1.6.3.7.5-.2.8-.5 1.2-.1v-.2c-.4-.2 0-.7-.4-.9 0-.2 0-.8-.4-.5-.1.2-.3.3-.3 0 0-.4.6-.8 0-1-.2 0-.2-.5-.4-.4-.4 0-.2.9-.6.6 0-.4.5-1.3-.2-1.3zM59.3 19.7v.4c.4 0 .8-.4 1.1-.1.1.4.5.1.6.3.7.5.4-.2.5-.4.5 0 .3.6.7.8.2.2.3 0 .5 0 .7.3.4-.4.2-.7.3-.6.7.8 1 .5.3 0 .3-.4.6-.3.4-.1.3-.3.1-.5-1-1.1 1 .4.5-1.1.3-.4-.3-.8-.6-.5-1 .8-.4 0-.5-.5-1.3-.6-.8.5-1.4.8-.6 0 .1-1.1-.8-.7-.8-.1-.2 1.2-.7 1-.8-.7-.6 1.2-1.8 1zM61.7 41.7c.3.1.7-.4.4-.6.4-1.2-.7-.5-1.1-.4.2-.8.6-.9-.7-.8-.4.2-.1.8-.7.9-.5 0 0-.8-.4-.8-.8 0-.8.4-.9 1-.3.1-.6-.7-.7-.1-.2.6-.7.8-1.3.8.4 0 .8-.2 1 .1.1.4.5.1.6.4.1.2.5.2.5-.1 0-.1-.1-.3.1-.3.5 0 .3.6.6.8.1.2.3 0 .5 0 .6.3.5-.4.2-.7.3-.6.6.7.9.6.3.1.3-.2.6-.2.6.1.4-.6 0-.7-.3-.1.2-.1.4.1zM61 33.3c.3-.3-.3-.8-.6-.5-.2.1-.4.5-.6.3.1-.8.4-.8-.8-.8-.4.2-.2 1.2-.8.8-.1-.8-.1-.8-.8-.5-.5.2.1 1.1-.5.9-.6-.8-.5.9-1.6.8v.2c.3-.1.7-.2.9-.1.2.1.3.4.5.3.1.1.6.5.6 0 0-.1-.1-.3 0-.3.6 0 .4 1.1 1.1.8.3.2.7-.2.4-.4-.1-.1-.3-.5 0-.5.4.2.7 1.1 1.1.5.2-.1.8-.1.5-.5-1-.8 1.3.3.6-1zM10.7 37.6c-.2.3-.2.3.2.4.3-.1.2-.4.4-.4s0 .3.1.3c.4 0 .4-.1.5-.4.1 0 .2.3.3.1.1-.2.3-.3.5-.3-.1 0-.2 0-.3-.1 0-.1-.1-.1-.2-.1 0-.1-.2-.1-.2 0-.3.3-.1-.5-.5-.3-.3-.1-.2.1-.1.3-.2.2-.3-.5-.6-.3-.3 0-.4.1-.1.3 0 .1-.1.1-.2 0-.1 0-.3.1-.2.2 0 .1-.1.2 0 .3.1.2.2-.1.4 0zM17.3 43.6c-.3-.2-.7.4-.4.5-.2 1.3.7.1.7.6-.2.2-.4.8.1.6.2 0 .2.3.5.1.3 0 .4-1.2.7-.7-.2.3-.2 1 .3.6.7.3.3-.7.8-.9.1 0 .1.2.1.3 0 .3.4.2.4-.1.4-.3.6-.4.9-.4V44c-.4 0-.7-.2-.9-.6-.2-.4-.3.3-.6.2-.2-.3 0-.7-.4-.8-.2 0-.7-.2-.6.2.1.2.2.5-.1.5-.4 0-.3-.6-.6-.7-.9.1-.6.3-.4.9-.1.1-.3-.1-.5-.1zM10.3 28.8c-.1.1-.1.2 0 .4.5.6.8-.3 1.2-.2.1.2-.5.8.2.8.4 0 .8 0 .8-.5-.1-.7.7-.7.6 0 0 .4.6 0 .8 0 .4-.3.1-.7.2-.9.2-.1.7.6.7 0 .1-.6.4-.8.8-.8 0-.1-.1-.3-.1-.4-.2.1-.4.1-.7-.1-.1-.3-.4-.1-.6-.2-.1-.3-.6-.3-.5 0 0 .1.1.3 0 .3-.5 0-.4-.6-.7-.7-.7.1-1.2 0-.7.8-.2.7-.7-.7-1-.4-1.6.8-.1.7-.4 1.2-.7-.1-.8.1-.6.7zM26 25c.1-.5-.7-.5-.8-.1-.1.2-.1.6-.4.6-.3-.1 0-.6-.3-.7-1.4.1-.1 1.7-.9 1.5-.2-.1-.3-.6-.6-.5-.3.3-.7.7-.3 1.1.7.7-.4.2-.5.5.2.6.2.9-.2 1.4 0 .1.1.3.1.4.2-.3.4-.5.8-.6.2 0 .4.2.6-.1.8.1.4-.1.4-.6.4-.2.6.3.9.3.6-.3 1-.6.2-.9-.2-.7.8.2 1.1-.1.3-.1.1-.5.4-.6.5-.7-.8-.3-.7-.8.7 0 .9-.5.2-.8zM14.7 54.5c.4 0-.3.9.3.7 1-.2.6-.2.9-1 .4-.2.1 1.1.7.4.8 0 0-1 .6-1 .1.4.5.3.4-.1.1-.2.3-.2.2-.4 0-.2.2-.2.3-.3 0-.1 0-.2-.1-.2-.4.1-.7 0-1-.3-.3 0-.1.4-.3.5-.3-.5-.5-.7-1.1-.4-.2.2.4.6.1.7-.4.2-.5-.5-.9-.4-.8.5-.7.4-.2.9-.2.3-.7-.1-.8.2-.2.2-.2.4.1.5 0 .6.4.7.8.2zM67.3 48.6c-.2-1.3-.8-.2-1.3 0-.2-.9.3-1.1-1-.7-.4.4.2.9-.3 1.2-.6.1-.2-1.2-1-.5-.8.1.2 1.3-.4 1.3-.9-.7-.2 1.4-1.8 1.5 0 .1 0 .2.1.3.5-.1.8-.7 1.2-.5.2.4.5-.1.7.2.8.3.3-.4.5-.6.5-.1.5.6.9.6.7-.2 1.3-.2.5-.9.1-.8.8.5 1.2.3.3 0 .3-.4.5-.5.7-.2.2-.7-.3-.8-.3-.3.2-.4.5-.3.3.2.5-.5 0-.6zM60.5 25.1c-.3 0-.1-.3-.3-.5-.7-.4-.6.7-1 .7-.3-.1 0-.6-.2-.7-.3-.1-.6.2-.8.3-.3.4.3.8-.1 1.1-.4.3-.4-.7-.7-.5-.6.5-.4.8-.1 1.5-.2.2-.8-.3-.7.3.2.6-.2 1.1-.8 1.4 0 .1.1.1.1.2.2-.2.6-.5.8-.5.2.2.4 0 .6 0 .2.2.7 0 .5-.3-.1-.1-.2-.2-.1-.3.5-.2.9.8 1.3.1.7-.1.2-.6-.1-.7-.1-.7.8.3 1.1 0 .4-.4.9-1.1 0-1-.3-.5 1.3-.5.5-1.1zM53.2 33.4c-.1 0-.2 0-.2-.1.1-.1 0-.3-.1-.4-.7-.5-.8.9-1.1.6.1-.8-.4-.7-.9-.4-.3.3.4 1.2-.3 1.1-.4-.7-.4-.7-.9-.1-.4.4.6 1 0 1-.8-.4-.1.8-1 1.4l.1.1c.4-.6.8-.4 1.4-.5.2.2.7.1.5-.2-.1-.1-.2-.2-.1-.3.4-.2.5.4.8.4.2.1.3-.2.4-.2.7 0 .2-.6-.1-.7 0-.7.8.3 1.1.1.3-.1.2-.5.5-.5.6-.6-.8-.4-.5-.8.4.2.9-.1.4-.5zM34.9 9.5c.1.2.2.3.3.4.3-.5.8-.3 1-.6.2.2.7-.2.4-.4-.1-.1-.3-.1-.2-.3.3-.3.7.3.9.1.2 0 .2-.2.3-.4.7-.2.1-.6-.3-.7-.2-.6.8.1 1-.3.3-.1.1-.4.2-.6.5-.4-.2-.6-.5-.5-.4-.1 0-.4.2-.4.3-.2.2-.8-.2-.7-.2 0-.1-.2-.1-.3-.8-.7-.6 1-1 .8-.1-.8-.6-.6-.9-.1-.2.4.8 1 0 1.1-.3 0-.4-.6-.6-.4-.6.7-.3.8.1 1.4-.1.3-.6-.1-.7.3.4.8.4 1.3.1 1.6zM21.4 20.1c0 .3-.5-.1-.5.2 0 .4.2.7.6.7.4.1-.3.3-.1.5.4.1.6.4.6.9l.1.1c-.1-.2-.1-.3.1-.5.1-.1.3-.1.2-.3.8-.7-1-.1.5-.9.1-.1 0-.2 0-.3.2-.4-.3-.3-.5-.2-.4-.2.5-.4.5-.7.1-.2-.2-.3-.1-.5-.1-.5-.5.3-.7 0 .2-.4 0-.7-.4-.5-.5-.3-.5.5-.2.7-.1.3-.4-.2-.5-.1-.5.6.3.4.4.9zM40.9 17.8c.1.5-.8.1-.7.5.1 1.4 1.6.3 1.1 1-.6.6.5.5.7.7.1.3.2.6.2.8.1-.1.2-.3.4-.4 0-.2-.1-.3 0-.5s.4-.3.2-.6c.3-.3.4-.8-.2-.6-.5-.5 1-.5.6-1 0-.8-.2-.6-.8-.3-.6-.1.4-.6.4-.8.2-.3-.2-.5-.3-.7-.2-1-.7.5-.9 0 .2-.4-.1-1.1-.6-.7-.6-.2-.9.5-.4.8.5.7-.4.1-.7.3-.3 1.5.5.9 1 1.5zM63.2 24.5c.2.4-.7.3-.6.7.4.8.7.6 1.3.4.2.2-.4.8.2.7.5-.1.8.1.9.4.1-.1.2-.2.3-.2-.4-.4.1-.8-.1-1.1.2-.1.1-.7-.2-.5-.1 0-.2.2-.3.1-.1-.4.5-.5.5-.8-.2-.7-.4-1.1-.8-.3-.7 0 .4-.8.1-1.1 0-.3-.4-.2-.4-.4-.2-.6-.7-.1-.7.3-.2.3-.4-.2-.3-.4 0-.3-.7-.5-.7-.1 0 .1-.2 0-.3 0-.8.5.4.8.4 1.2-.8.2-1 0-.6 1 .5.2 1-.2 1.3.1zM34.5 22.7c-.1-.2-.1-.2 0-.3.1-.7-.8.1-.8-.3.4-.3.6-1-.1-.8-.3-.3-.8-.3-.8.2 0 .2.2.5-.1.6-.6-.3-.4-.8-.9 0-.4.5.6.6.5 1.1-.3.4-.8-.6-.9.3-.6.5 1.3.9.3 1-.6.3.6.7.3 1.4 0 .1.1.1.1.2.1-.2.1-.4.4-.5.3.1.3-.2.5-.3.4 0 .5-.4 0-.4-.1-.5 1.1.2 1.1-.5.5-.5.2-.6-.5-.6-.4-.4.8-.3.9-.5-.1-.2-.1-.4 0-.6z" class="st0"/><path d="m71.9 31-.2-.1c-1.4-.2-2.7-.6-4-.4h-.4c-1 .6-2.8.6-3.5-.2 1-1 1.7-1.9 2.6-3.1 2.1-.1 3.9-1.4 5.9-1.8.1-.3-.2-.4-.4-.4-.6.4-1.3.6-2 .8v-.1h-.2c-.1.1-.1.2-.2.3-.8.2-1.6.5-2.4.3-.9-1.7 1.2-5 2.3-6.3h-.6l-.3.6c0-.1 0-.2-.1-.3h-.3c.7 1.6-2.5 4.6-2.7 6.3l-.1-.1c-.1 0-.2.1-.3.2l.2.2c-1.5 4-6.1 3.3-9.3 2.1l.1-.1s-.1-.1-.1-.2c-3.2-2.7 2.6-6 3.5-8.6h.1v-.4h-.1c.4-1 .8-2.1 1.4-3-.1-.1-.1-.1-.2-.1v-.3h-.5c-.5 2.1-3 5.3-4.1 5.9-.1-.1-.1-.3-.2-.4 0 .2.1.4 0 .6-.9.9-1.1 2.8-2.4 3.1-1.7-3.2-2.4-11.9.7-14.6l.2.2c-.1-.1-.2-.3-.2-.3 1.3-.7 2.5-1.7 3.9-2.1l.2-.4c-2 .3-3.4 1.8-5.3 2.2v-.2h-.4c0 .1-.1.1-.1.2-1.5-.9-.8-3.9-2-4.8.2.9.3 1.9.5 2.7-.1-.1-.3-.2-.4-.3-.1.1-.2.1-.2.2 3.3 4.3.5 5.7-3.4 2.7 0 .1-.1.1-.1.2 1.3.6 2.7 2.1 3.8 2.5v3.9c-.2-.1-.3-.2-.4-.3l-.1.1c.8 3.4 2.4 9.5-.9 12.3v-.1l-.3.3v.1c-3.4 2.9-3.8 6.2-7.5 7.6v-.1h-.1c0 .1-.1.1-.1.2-2 0-5.9-3.7-4.5-5.7 2.2-1.8 3.1-8.8 6.7-4.8 0 0 1.5 1.2 2.3 1.3-1.3-.8-2.1-2.2-3.4-2.9-.1-.1-.2-.2-.2-.3H42l-.7-.4c1-2.2 2.5-4.3 2.4-6.8-.5.8-.6 1.8-1 2.7 0-.1-.1-.3-.1-.4l-.4.4c.2 2.3-3 4-3.7 6.1-.1-.1-.1-.2-.1-.3l-.1.1c-.1 1.6-1.7 3.3-3.1 3.3-2.5-2.5 2.3-14-.5-7.8v-.1c-.6 1.3-.7 6.3-2.9 4.4 0-.1.1-.2.1-.4 0-.1-.1-.1-.1-.2 0 .1 0 .1-.1.2-.9-2-1.1-6 .4-7.7 3.9.2 5.6-4.2 7.7-6.8-2.5 1.5-3.7 5.3-6.8 5.5-.1-.1-.2-.1-.3-.2.1-.1.1-.1.1-.2-.1-.1-.2-.3-.3-.5-.1 0-.1.1-.1.1-1.2-4.5 2.1-6.1 5.9-7.3-.8-.5-2.2.8-3.2 1 0-.1 0-.1.1-.1-.1-.1-.2-.2-.3-.4-1.9 1.9-3-.2-3.5-2.6h-.3c.1 1 .4 2.9.7 3.6-.1 0-.2 0-.3-.1v.2c.1.1.2.1.4.2-.2 2.1-.6 4.7-1.8 6.4-1.1-.1-1.9-.8-2.5-1.6-.1 0-.2-.1-.2-.2-1.5-1-2.2-2.9-3.7-3.9 0 .3.3.5.2.8-.1.7.1.7.1.8-.1 0-.3-.1-.5-.1v.4c2-.5 3.8 5.1 6.3 5.6 0 .8-.3 1.6-.4 2.4h-.1v.2s.1 0 .1.1c-1.7 5.5 8.8 14 .6 12.6-.2 0-.3-.2-.5-.3v.1c-3.1-.8-5.5-2.1-7.3-4.8v-.1c0-.1-.1-.2-.1-.4 0 0-.1.1-.2.1-.8-3.4.4-5.1 2.5-8.1-.8.6-1.2 1.5-2.1 1.9 0-.1 0-.2-.1-.3-.1 0-.2-.1-.2-.2v.2c-1.6-1.2-2.4-3.2-3.7-4.7.5 2 2 3.4 3 5.3-.3 1.5 0 3.5-1.3 4.5-.4-.3-.9-.3-1.2-.6-.1 0-.2-.1-.2-.2-1.1-.3-2.1-1.1-3.1-1.6v-.2h-.2v.1c-1.8-1.2-3-3.1-4.4-4.7 0-.1.1-.2.1-.3h-.2l-.1.1c-.4-.6-1.1-1-1.2-1.7-.6 0-.5-.9-1.2-.8 1 2 2.9 3.5 3.4 5.7-.1 0-.2 0-.3-.1v.2h.2c-.5 1.7-2.6 2-3.8 2.9-.2 0-.5.2-.8.4 0 .1.1.2.1.4 1.8-.7 3.6-2.2 5.7-1.9.7.9 1.8 1.3 2.8 1.8-.1 0-.2.1-.2.1 0 .1.1.2.1.4 1.1-.3 2.8 1.3 3.6 1.9.9 2-4.5 2.3-5.7 3.3 2.6 0 5.2-2.1 7.8-1.1.1 0 .1-.1.1-.1 3.6 4.3 13.6 5 13.3 8.2-2.9 1.6-7.6-4.6-17.1-2.7-1.3 0-2.6 1.2-3.6-.1-.5-1.3-2.4-1.9-3.1-2.9h-.2v.1c-.4-.1-.8-.6-1.1-.3 0 0 2.9 1.5 3.5 3.5h-.3v.1h.3c-.8 2.3-3.7 3-5.5 4.4 2.6-.3 4.9-3.5 7.6-3.1v.1h.9c1.9-1.4 7.6-1.3 1.2 3 2.1-.7 3.6-3.2 6.1-2.9 4.4.3 12.4 4.2 9.5 9.5-.9-.4-.9-1.4-1.5-2.1-1.4-2-3.6-.2-4.2-3.6-.4-.3-.2-1-.8-1.2.1 1 .9 2.4-.2 3-.1-.1-.2-.3-.2-.4l-.3.3c0 .1.1.1.1.2-1.1-.1-2-.8-3.2-.6-.5-.7-.8-1.6-1.5-2.1.2.7.7 1.2.8 2-.1 0-.3.1-.4.1v.2h.2c-.4.7-2.9 1.5-3.5 1.9 1.3.3 2.1-1.2 3.4-.8l.2-.4c.4-.2.8-.1 1.1-.3 2.2.7 4.4 1 6.4 2.1h-.1v.4h.1c.4.6.5 1.6.5 2.3.7 1.4 1.6 3.3-.8 2.6-.8.7-1.7.3-2.6.2-1.9-.5-3.7.3-5.7.2v-.1h-.3v.2c-2.5-.8-5.1-1.9-6.6-3.9 0 .4.6.8.3 1.3-.1 0-.2-.1-.3-.1l-.1.1c.1 0 .1.1.2.1-.1.2-.4.4-.6.5v-.1l-.1-.1c-.1.2-.2.4-.3.5 0 .2.1.4.1.5.4-.5 1-.9 1.8-1 1.4.6 2.6 1.5 3.8 2.2-.1.1-.2.1-.4.1 0 .1 0 .2.1.3.2-.1.5-.2.7-.2.3.2.5.4.6.7-1.3 1.8-3.5 2.4-4.8 4.4 2.3-.9 4.2-2.7 6.4-3.9v.1h.1v-.1c1.4-.5 2.9-.7 4.4-.3 0 .1 0 .1.1.2h.4v-.1c3.7 1.9 5.4.1 4.9 5.6-.9 3.4.9 8.1-2.4 10.3-4.3 5.6-12.3 4.3-14.8 8.8 2.9-.7 7.5-5 8.3-.3.4-.8 1.4-2.1 2.2-2.2 2-.5 9.3-6 8.8-1-.1.5-2.7 3.5-.2 3.3 4.9-6.3 5.3-.2 9.5.1-.5-2.4-6.3-4.3-.1-4.8 1.1-1.1 2.5 0 3.6.6 1.4.5 3.4.9 4.2 2.5 0 .5.9 1.4 1.8 1.3-2.9-7.7 6.9-.4 9.7-.2-4.4-3.9-12-4.2-15.2-9.2-3.4-3.7-5-14.7 2.2-14.5.5.1 2.2-.2 2.9-.6v-.1c2.4-1.4 5.3-2.6 8.1-2.2 0 .1 0 .1-.1.2H59.8c2.3 1.1 1.5 4.2 2.5 6.3 0 .4.2 1-.2 1.3h.3v-.2l.1.2c.5-1.3-.5-3.1.1-4.4h.3c-.1-.1-.1-.1-.1-.2 1.2-1.3 3.4-1.7 4.9-1.4-2.4-1.9-4.8 2-6.2-1h.1c0-.1 0-.2-.1-.3-.2-.4-.3-.9-.3-1.3 1.9-2.8 5.2-4.5 8.2-3.2 0-.3.1-.7.1-1-.4.1-3.4 0-3.5 0 .5-1.1 1.5-1.7 1.8-2.6h-.6c-2.1 2-6.5 7.7-9.3 5.7.1-1.9 1.4-3.3 2.4-4.8-2.1 1.3-2.3 4.2-4.4 5.5h-.2v.1c-2.1.5-4 1.7-6.2 1.7-.3-.2-.4-.3-.6-.5.1-4.4 5.9-5.3 7.1-9.4.1 0 .2.1.3 0 .6-1 1.2-1.9 1.9-2.7-.9 0-1.1 1.2-1.8 1.6 0 .1-.1.2-.2.2-.8 1.5-2.2 3.4-4.2 3 0 .1-.1.1-.1.2-.8-.1-1.3-.7-2.1-.9.4.7 1.3 1 1.8 1.7v.6c-2 1.9-4 3.9-6.4 5.2v-.1h-.7l-.2.2-.6-.2c-1.2-3.4.2-8.1 2.2-10.9 4.7-1.5 9.3-3.3 14.3-3.7.4-1 1.9-.4 2.3-1.3-2 .5-6 2.1-7.3-.1h.2v-.2h-.2c0-.6.4-.9.2-1.5-.8 3.3-3.8 4.3-6.8 3.8l-.1-.1c-.1.1-.2.1-.3.2-1.1-.8 1.1-2.5 1.5-3.4 2.8-4.1 7.4-2.1 11.4-2.1 1.4.1 4.1.3 4.9 1.5h.4c-.2-.4-.3-.8-.1-1.3.8-.4 2.6-1 3.2-.1.1.2.2-.2.3-.3.5-.1 1 .1 1.5.1v.3h.5v-.1h.7c0-.4-.4-.3-.6-.4z" style="fill:#474350"/><path d="M27 30c-.2.4-.1 1.1.5 1 .7-.1.8.7 0 .6-.4 0 0 .6.1.8.2.4 1.5-.2.8.5-.1.1-.1.2 0 .3.1 0 .4.2.5.1.5-.1.6.4.7.8.2.1.3.3.5.3-.1-.3-.4-.7-.2-1 .3-.1.1-.4.2-.6.3-.1.3-.6-.1-.5-.8.1.3-.5.4-.7.1-.2-.1-.3-.1-.5.2-.3-.2-.6-.5-.3-1.1.7.4-.7.1-.9-.2-.2-.4-.9-.8-.7-.8 1.3-.1-1.2-1.2-.3-.8-.3-.5.8-.1 1-.1.5-.6-.1-.8.1zM36.2 13.9c.3-.2 0-.5.3-.7.4-.7-.8-.1-.8-.7.7-.3.8-.7.1-.9 0-.5-.7-.4-.8 0-.1.2 0 .6-.3.6-.4-.8-.4-.8-1-.1-.2.4.5.7.2 1.1-.3.4-.5-.5-.8-.3-.6.7-.3.8.1 1.4-.1.2-.8-.1-.6.5.3.5.2 1-.2 1.4.1.1.2.3.3.5.2-.3.3-.6.7-.7.2 0 .5.1.6-.2.2 0 .8 0 .5-.4-.1-.1-.3-.1-.2-.3.3-.3.7.3.9.1.2 0 .2-.2.3-.4.7-.2.1-.6-.3-.7-.2-.5.8.1 1-.2zM43.2 23.7c-1-.5.2 1.1-1.1 1.6.1.1.1.2.2.3.3-.7.8-.5 1.4-.6.2 0 .8.2.6-.3-.1-.1-.2-.2-.1-.3.5-.2.9.8 1.3.1.7-.1.2-.6-.2-.7-.1-.7.8.3 1.1 0 .3-.1.2-.4.3-.5.5-.3 0-.7-.4-.6-.5-.5 1.3-.3.2-1.1.1-.5-.6-.5-.8-.2-.1.2-.3.8-.5.4.1-.8-.5-.7-.9-.3-.3.3.5 1.2-.3 1.1-.5-.7-.4-.6-.9-.1-.2.5.6 1.1.1 1.2zM12.9 51.2c0-.1-.1-.3-.1-.4-.3.3-.7.6-1.2.3-.5-.2-.1.4-.3.6-.6-.3-.8-.5-1.3.1-.2.3.7.3.3.7-.3.3-.7-.3-1 0-.2.2-.6.7-.2.8 1.1.2-.2.3-.3.7-.2.5.3.3.4.5.2.6.7.2.8-.3.4-.2.1.9.7.5.9-.5.5-.4.4-1.3.3-.4.3.8.8.3.1-.1 0-.3.2-.3.6-.3-.3-.8-.1-1.1.4.2.6.2.5-.3.1-.3.2-.6.4-.8zM7 26.8c-.2.1-.3.1-.5 0-.2-.3-.4-.1-.6-.1-.1-.2-.7-.2-.5.2 0 .1.2.2 0 .3-.7-.1-.6-.9-1.4-.4-.7.3.7.8.1.9-.8-.4-.7-.8-1.5 0-.6.5.8.5.4.9-.4-.1-1 .4-.5.7 0 .8.8.6 1 0 .7 0-.6 1.2 1 .6.3-.1-.2-1.1.5-.9.3.8.3.7.9.3.4-.3-.4-1.1.2-1 .7.5.2-.4.8-1 .2-.3.2-.4.1-.5zM25.1 47.2c-.4-.2-1.2 0-.7.5-.2 1.3 1.3-.3.7.8-.1.5.4.2.6.3.7.4.5-1.2.9-.7 0 .6-.2.7.4.5.7.2.1-1.1.6-.9 0 .4.4.4.4 0 .1-.1.3-.1.3-.3.2-.3.6-.2.9-.3v-.3c-.3.1-.8.2-1-.2 0-.2-.5-.3-.6-.2-.2.7-.3-.4-.7-.4-.2.1-.7 0-.6.2.4.5-.2.7-.4.2s-.8-.2-1 .1c-.2.3.6.5.2.7zM74.8 45.7c-.3-.2.1-.4 0-.6-.4-.8-.9.2-1.3-.1-.2-.3.4-.5.3-.8-.2-.2-.7-.2-.9-.2-.5.2-.2.9-.8.9-.7-.3.5-1.1-1-.8-.6.1-.1 1.3-.7.9-.5-.8-.7.3-.9.6v1.1c.1 0 .2.1.4.1.1.5.8.3.6-.2.5-.3.4.7.7.8.1.2.4 0 .5 0 .7.4.6-.4.3-.8.4-.7.6.8 1 .8.3.1.4-.2.6-.2.7.1.5-.6.1-.8-.2-.4.4-.3.6-.1.2.1.7-.3.5-.6zM7 23c-.4.7-.8.8.4 1 .5 0 .4-.8.8-.7.5.1-.3.7.1.8.8.2.9-.1 1.2-.8.3 0 .3.8.7.3.4-.4.7-.6 1.1-.4V23c-.3 0-.5-.1-.6-.3 0-.3-.3-.3-.4-.4 0-.3-.4-.5-.5-.2 0 .1 0 .3-.2.3-.5-.3.1-1.3-.8-1-.5-.5-.6.2-.5.6-.5.5-.3-.9-.8-.8-1.7 0-.3.5-.8.9-.3-.3-1-.4-.8.2 0 .2-.3.2-.2.4.3.8 1.1 0 1.3.3zM46.7 6.2c.3.6-1.1.1-.2 1 .4.6 1.1-.7 1.3.1-.3.4-.6.6 0 .8.4.5.8-.3 1-.4.3.1.2.3.2.5.4.5.8-.4 1.1-.1.1 0 .2.1.2.1l.2-.2-.3-.3c0-.2.1-.5-.2-.6 0-.4-.2-.8-.6-.3-.6-.2.7-1.2-.3-1.3-.3-.7-.6 0-.6.4-.7.3.2-1.3-.7-1.2-.6-.2-.7-.2-.6.6-.1.4-.4 0-.5-.2-.2-.3-.8-.1-.7.2-.5.4 0 .8.7.9zM47.6 13.7c-.7-.4-.2.8-.7.7-.1-.4-.8-.8-.8-.2 0 .2-.2.1-.3.1-.5.5.3.8.7.8.3.7-1.3 0-.1 1.2.4.2 1.1-.7 1.1 0-.6.6-.5.5.1.9.4.3.8-.8 1-.3-.2.8.8.1 1.4.5l.1-.1c-.1-.1-.2-.2-.3-.4-.1-2.2-.6-.3-.8-1 0-.4.6-.8 0-1-.2 0-.1-.5-.4-.4-.4 0-.2.9-.6.6.2-1.1.5-1-.4-1.4zM48.7 25.5c0-.3-.3-.3-.4-.5-.1-.6-.6-.2-.7.2-.3.3-.3-.2-.3-.4-.2-.7-.7-.1-.9-.2-.8.4.2.8.2 1.2-.8 0-.9 0-.7.9.3.4.8-.1 1 .4.1.6-1.1.1-.5.8 0 .8 1.2-.1 1.1.5-.4.4 0 .7.4.6.5-.1.7.5.8.8l.3-.3c-.1-.3-.3-.5-.2-.8.3-.2.1-.4.1-.6.2-.1.2-.7-.1-.5-.1 0-.3.2-.3 0 0-.5 1-.7.4-1.2.1-.7-.5-.3-.7 0-.4 0 .7-.6.5-.9zM7.4 31.1c-.1.5.6.5.9.5.5 0 .3.5-.1.4-.4 0-.4.5-.1.6.1.9 1.1-.2 1.2.4-.6.3-.1.6.3.6.2.4.8.1.9.6h.2c-.2-.3-.3-.7-.2-1 .4-.7.1-.6-.4-.8.2-.4.8-.7.4-1.1-.1-.6-.4-.2-.7 0-.9 0 .6-1-.1-1.3-.4-.5-.6-.4-.8.2-.5.3-.1-1.4-.9-.8 0 .2-.1.3-.3.2-.6.2-.2.7.2.8.2.5-1-.6-.5.7zM71.1 27.1c-.1.2-.2.6-.5.5-.3-.1.1-.6-.2-.8-.3-.1-.6.1-.8.3-.3.4.3.8-.2 1.1-.5.2-.3-1-.9-.3-.8.2.4 1.1-.2 1.2-.2-.1-.4-.2-.5 0 .1.7-.2 1-.7 1.4h.4c.3-.4.8.1 1-.2.2.1.8.2.6-.2-.2-.1-.2-.4.1-.3.3.1.7.8 1 .3.1-.2.5 0 .5-.3.1-.4-.8-.5-.4-.8.9.3.8.7 1.5-.2.6-.6-.8-.4-.5-.8.6 0 .9-.6.4-.8.2-.3-.4-.5-.6-.1zM71.7 31.5h-.5c0 .4.2.8-.1.9-.3 0-.2.3-.3.5-.4.1-.3.7.2.5.4.6-1.1.3-.8.9-.2.8.1.5.7.4.5.3-.5.5-.6.8-.3.3.1.5.1.8 0 1 .8-.3.9.2-.3.6-.1 1 .6.8.3.4.8-.2.6-.5-.1-.2-.4-.5-.2-.7.8.3.8.5.9-.6-.1-.5-.8-.2-.8-.7 0-.5.8.1.8-.3 0-.8-.4-.8-1-1-.1-.3.7-.5.2-.7-.6-.2-.8-.7-.7-1.3zM56.5 19.4c-.1-.7 0-1.2-.8-.7-.6-.2.6-.7.5-1 .1-.3-.3-.3-.3-.5 0-.6-.6-.3-.7.1-.3.2-.3-.3-.2-.5.1-.3-.5-.6-.7-.3-1.5-.2.1.9-.4 1.2-.8-.4-.8.1-.7.8.2.4 1.2.1.9.7-.8.1-.8.1-.5.8.2.5 1.1-.1.9.4-.7.6.8.4 1 1.4-.1-.2-.1-.4 0-.7.1-.2.4-.3.2-.6.4-.6.3-.6-.3-.6.3-.3.9-.2 1.1-.5zM61.2 13.2c-.6-.4.8-.5.8-.8-.1-.8-.2-2.1-.8-1.3-.4.1-.2-.4-.1-.5.2-.3-.3-.7-.6-.5-.1.1-.2-.1-.3-.1-1.1-.2.4 1.9-.8.9-.1-.2-.4 0-.4.2-.1.4-.3.8.3.9.7.1.5.8-.2.6-.2-.1-.3.2-.2.4-.4.8 1.4.6.8 1-.2 0-.3.4-.1.5.6.3.7.9.5 1.7h.5c0-.3 0-.5.2-.7.3 0 .2-.3.4-.5.3 0 .5-.5.1-.5-.1 0-.3 0-.3-.1.1-.4.7-.2.8-.5.2-.5.5-.9-.6-.7zM30.3 4.4c-.4-.1-1-.1-.6.4-.3.8.8.5 1 .8 0 .2-.2.1-.3.1-.5.2.1.5.2.6 0 .4.4.3.5.6H31.4c-.1-.6 0-.9.7-1.3.2-.4-.9-.6 0-.7.6 0 .8-1.1.3-1.1-.5.2-.9-.2-.4-.5.7-.1.6-.8.2-1.2-.6.2-.9.7-.6-.4.1-.4-.4-.8-.7-.4-.1.1-.2 0-.2 0-.4.8-.5.9-.2 1.5-.1.5-.8-.6-.9.2.2.3-.2.4-.1.7 0 .3 1.3.3.8.7zM47.5 47.3c.2-.2-.1-.4 0-.5.3-.5-.3-.5-.7-.3-.3 0-.1-.3.1-.5.3-.2-.1-.7-.4-.5-.2.1-.2-.2-.2-.2-.8-.3-.4.7-.7 1-.6-.5-.6-.7-1.1.2-.1.4 1 .7.4 1-.7-.3-.7-.2-.8.4-.1.5 1 .5.6.8-1.1.1.7.8-.2 1.9h.6c.1-.3.1-.6.3-.8.2-.1.4 0 .5-.3.2-.1.7-.2.3-.5-.1 0-.3 0-.3-.2.3-.3.7 0 .9-.2.3-.5.6-1-.3-.8-.3-.5 1-.2 1-.5zM18 49.7c.1.3 1.3.2.9.5-.4-.1-1 .1-.5.4.1.1 0 .3.2.3.3.2.8-.2.9.2 0 .1-.2.2-.3.2-.3.1 0 .5.2.4.3.3.7.3.8.7h.3c-.2-.5 0-.8.4-1.1.1-.3-.5-.2-.5-.4.6-.3.9-.4.6-1.1-.2-.2-.7.4-.8 0-.1-.4.6-.4.6-.8-.4-.7-.5-.6-1-.2-.2-.4.2-1.3-.8-.7-.3-.2-.7.2-.4.5.2.1.5.4.1.4-.3-.2-.9-.2-.7.2.1.2-.2.4 0 .5zM18.7 57c0 .5-.3 1 .6.6.5.1-.5.6 0 .9.1.2.3-.1.4.1 0 .1.2.2.3.2.7 0 .2-.7.4-1 .6.5.5.6.9-.2 0-.4-.6-.4-.5-.8.2-.4.6.3.8 0 .3-.7 0-.7-.5-1.1 0-.2.8-.2.3-.5-.4-.3-.4-.8-.2-1.2h-.1c-.1.2-.1.5-.4.6-.3-.1-.3.2-.4.3-.2-.1-.5.2-.3.4.1 0 .3 0 .2.2-.2.3-1-.2-1 .4 0 .1-.2.2-.2.2-.3.6.8.1.6.5-.2.2-.7 0-.9.4zM25.3 56.4c.2.3.5-.3.7.1.1.4-.5.4-.5.8.2.8.3.7.8.3.2.2-.2 1.1.5.9.1-.1.1-.2.2-.2.2.2.5-.2.4-.5-.2-.1-.3-.4 0-.4.2.2.8.2.5-.2-.1-.2.2-.3 0-.5-.1-.3-1.1-.2-.7-.5.3.1.8 0 .5-.4-.1-.1.1-.3-.2-.3-.2-.2-.6.1-.8-.2 0-.1.2-.1.2-.2.2-.1 0-.5-.2-.4-.2-.3-.5-.5-.6-1h-.3c.2.5.1.8-.3 1.1-.4.3.2.3.3.5-.5.4-.8.5-.5 1.1zM54.4 40.3c-1.2.2.6-.8-.5-.9-.1-.4-.6-.2-.6.2 0 .2.1.5-.2.5-.5-.5-.4-.7-.8.1-.1.4.5.5.3.9-.2.3-.5-.3-.7-.1-.4.6-.1.8.3 1.2-.1.2-.7.1-.4.5.3.3.3.8 0 1.2h.3c.1-.2.2-.5.4-.7.2-.1.4 0 .4-.2.2 0 .6-.2.3-.4-.1 0-.2-.1-.2-.2.2-.3.8.3.9-.2.4-.4.2-.5-.3-.5-.3-.5 1.1 0 .9-.7 0-.3.4-.7-.1-.7zM56.5 47.2c.7-.5.9-.2.6-1.2-.1-.7-.7.3-.9-.1.3-.3.2-1-.4-.7-.1.1-.2-.1-.3-.1-.9 0-.1.7-.3 1.1-.7-.2-.7-.4-.9.5.1.4.8.2.8.7 0 .4-.7-.1-.7.2-.1.7.3.7.9.9.1.2-.4.2-.3.5.4.2.7.3.7.7h.2c-.1-.4.4-.4.4-.7.1-.1.5-.4.1-.5-.2.1-.4-.1-.2-.2.3-.2 1-.1.8-.6.5-1.1-.6 0-.5-.5zM59.6 54.1c.3-.6.1-.7-.3-1.1.1-.2.5 0 .5-.3-.4-.4-.4-.9-.1-1.4h-.1c-.1.2-.2.5-.4.5-.2-.1-.3.1-.4.2-.2-.1-.5.2-.3.3.1 0 .2.1.1.1-.3.3-1-.4-1 .3-.5.3.1.5.3.5.3.5-.7.1-.8.4-.2.1 0 .3-.1.5-.3.3.2.5.5.3.3 0 0 .3-.1.3-.2.1-.1.5.1.5.2-.1.2.2.3.2.6.1.2-.7.5-.8.4.5.4.5.9-.1.1-.3-.5-.5-.3-.8.2-.1.5.6.7.4zM54.5 12.1c-.1.2-.2.8.2.6.1-.1.2-.2.3-.1.2.4-.4.5-.5.8-.1.2.2.3.2.4 0 .7.6.2.7-.1.7 0-.3.8-.1 1.1.1.3.5.2.5.5.6.6.4-.8.8-.5.1.4.4.9.8.5 0-.1 0-.2.1-.2.4.1.6-.6.2-.8-.2-.1-.6-.2-.5-.4.1-.3.6.1.7-.2.1-.3-.2-.6-.3-.8-.4-.3-.8.3-1.1-.1-.2-.5 1-.4.3-.9-.2-.8-1.1.4-1.2-.2.3-.4-.2-.6-.5-.5-.3.1-.5-.1-.7-.3.1.1.2.3.2.5-.1.3-.4.5-.1.7zM63 45.8c.2-.2.1-.5-.2-.5h-.2c-.1 0-.2 0-.2.1-.1 0-.2-.1-.2-.2s.1-.1.1-.2c.1 0 .2-.1.2-.1.1 0 .1-.1.1-.2s0-.2-.1-.3c0-.1-.1-.1-.2-.1h-.1c-.1 0-.1 0-.1-.1s0-.1-.1-.2c-.1 0-.1-.1-.2-.1s-.2 0-.3.1c-.1.1-.2.2-.2.3v.5c0 .1-.1.1-.2.1s-.1 0-.1-.1c-.1-.1-.1-.2-.2-.3 0-.1-.1-.2-.2-.2s-.2 0-.2.1c-.1.1-.1.2-.2.2 0 .1-.1.2-.1.2 0 .2 0 .3.2.5l.1.1c.1.2.2.3.1.5 0 .1-.1.1-.2.1h-.1c-.1-.1-.2-.2-.3-.2-.1-.1-.2-.1-.2 0-.1.1-.1.2-.1.2s0 .1-.1.1c-.1.1-.1.1-.1.2 0 .2.1.4.3.6.1 0 .1.1.2.1s.1.1.1.2-.1.1-.2.2h.2-.2l-.2.2c0 .1 0 .1.1.2 0 0 .1.1 0 .1 0 .1 0 .2.1.2.2.1.2.2.2.3V48.7c-.1.1-.1.2-.2.3-.1.2-.2.3-.3.4-.1 0-.1.1-.2.2h.4c.1 0 .2-.1.2-.2v-.2c.1-.1.2-.2.2-.3s0-.1.1-.2.2-.1.2-.2h.1c.2.1.3 0 .4-.2 0-.1.1-.1.1 0h.2c.1 0 .2-.1.2-.2.1-.1.1-.2-.1-.2h-.1s-.1 0-.1-.1v-.1c0-.1.1-.1.2-.1.2 0 .3 0 .4.1h.3c.1 0 .2-.1.2-.2 0 0 0-.1.1-.1s.2-.1.2-.1c.1-.1.1-.2.1-.2-.3-.1-.4-.1-.6-.1-.1 0-.2 0-.3-.1-.1-.1-.1-.2 0-.2.1-.1.2-.1.2-.1h.6c.1 0 .1-.1.2-.1 0 0 0-.1.1-.1.1-.1.1-.2.1-.2v-.1c0-.2 0-.3.1-.3z" class="st0"/><path d="M52.3 14.4s.6 1.4 1.1 1.5c.5.1 1.4-.7.9-1.3-.6-.6-2-.2-2-.2z" class="st2"/><path d="M51.8 13.8s-.5.8-.2 1.6 1 .6 1.3.3c.3-.3-1.1-1.9-1.1-1.9zM52.6 13.3s1.2-.4 1.8.1c.7.5.2 1.2-.6 1.1-.7-.1-1.2-1.2-1.2-1.2z" class="st3"/><path d="M52.4 14.2s.6.8.7.7c.1-.1-.5-1-.5-1s.3.3.3.2c.1-.1-.3-.6-.6-.8-.2 0-.4.1-.5.2 0 .3 0 .6.2 1 .4.6.6.3.4-.3z" class="st4"/><path d="M52.4 15.5c.7.6 1.7-.3 1.5-1.1-.2-.7-1.1-1.2-1.3-1.2h-.1c.3.2.7.7.6.8-.1.1-.3-.2-.3-.2s.6.8.5 1c-.1.1-.7-.7-.7-.7.2.6 0 .9-.3.3-.1-.3-.2-.7-.2-1v.1c-.3.3-.4 1.4.3 2z" class="st5"/><path d="M65.8 28.5s.3-.2.2-.4c-.1-.2-.4 0-.4.1 0 0 .1-.3-.1-.4-.2-.1-.3.1-.2.3 0 0-.5-.2-.8.1-.3.3.3 1.2.7 1.3.3.2.8 0 .7-.7 0 0 .1.1.3 0 .1-.1-.1-.4-.4-.3z" class="st2"/><path d="M65 29.3s.4-.2.3-.4c0-.2-.4-.4-.5 0 0 0 0-.3-.2-.3s-.2.5 0 .8c0 0-.6.8-.7.8-.1.1-.2.1-.1.2s.2.1.2 0c.1-.1.7-.9.7-.9s.2.3.5.2c.3-.2.3-.5-.2-.4zM63.4 28.8c.1 0 .2.1.2.1s0-.2.1-.2c.2 0 .2.2.2.2s0-.2.2-.2c.1 0 .1.1.1.1 0 .1-.1.2-.1.2-.2.4-.3.5-.3.5h-.1s-.3-.3-.4-.6c0 0 .1 0 .1-.1z" class="st6"/><path d="M63.6 28.3s0-.3.2-.3.2.3.2.3.1-.2.3-.1c.1.1 0 .4-.1.7 0-.1-.1-.1-.1-.1-.2 0-.2.2-.2.2s0-.2-.2-.2-.1.2-.1.2 0-.1-.2-.1c-.1 0-.1.1-.1.2-.1-.2-.1-.3-.1-.5 0-.6.4-.4.4-.3z" class="st2"/><path d="M63.9 29.6h-.2v.3c0 .2-.1.2 0 .3 0 0 .1.1.1 0s.1-.5.1-.6zM65 30.6c.1-.1-.1-.2-.1-.2s.2 0 .2-.1-.1-.2-.1-.2.2 0 .2-.2c0-.1 0-.1-.1-.2-.1 0-.2 0-.3.1-.4.1-.5.3-.5.3v.1s.3.3.6.5c0 0 .1 0 .1-.1z" class="st6"/><path d="M65.6 30.5s.3 0 .3-.2-.3-.2-.3-.2.2-.1.1-.2-.4-.1-.7 0c.1 0 .1.1.1.2 0 .2-.2.2-.2.2s.2 0 .2.2-.1-.1-.1-.1.1.1.1.2-.1.1-.2.1c.2.1.3.2.5.2.4 0 .3-.4.2-.4z" class="st2"/><path d="M64.4 30.1s0 .2-.1.2h-.6v-.1c.1-.1.5-.1.7-.1z" class="st6"/><path d="M63.8 29.9zM63.6 29.1s.1.1.2.3c.1.2 0 .4 0 .4s.1-.3.3-.5c.2-.2.8-.3.9-.2.1.1.1.3-.1.6s-.5.5-.5.5c.5 0 .9.3.9.3s-.3.3-.6.3-.5-.1-.7-.2c0 0-.1 0-.1-.1.4 0 .9-.1.9-.1 0-.1-.8-.1-.8-.1l.6-.6c.1-.1.3-.3 0-.2s-.7.8-.7.8 0-.8-.1-.8-.1.6 0 .8c-.1-.1-.1-.3-.2-.5-.3-.4-.1-.7 0-.7z" class="st7"/><path d="M63.5 29.7c.1 0 .1.8.1.8s.5-.7.7-.8.1.1 0 .2l-.6.6s.8 0 .8.1-.6.1-.9.1l-.2-.2c.1-.2 0-.9.1-.8z" class="st8"/><path d="M50.3 42.9c.1-.2.3-.1.3-.1s-.2-.2 0-.3.4.1.4.1-.1-.2.1-.4h.3c0 .1.1.2.1.4.2.6.1.8.1.8l-.1.1s-.5-.1-1-.3c-.2-.1-.2-.3-.2-.3z" class="st6"/><path d="M50 42s-.2-.3 0-.5.5.1.5.1-.1-.3.2-.4c.2 0 .4.4.6.8H51c-.2.1-.1.4-.1.4s-.2-.2-.4-.1 0 .3 0 .3-.2-.1-.3.1c-.1.1 0 .2 0 .3-.2-.1-.5-.2-.6-.4-.3-.4.3-.7.4-.6z" class="st5"/><path d="M51.5 43.2s-.2.1-.1.2.1.1.2.3c.1.2.2.3.2.3s.1 0 .1-.1c.1 0-.3-.6-.4-.7zM107.5 30.1zM96.8 30.6zM96.1 32.3zM108 36z" class="st7"/><path d="M22.7 8.8s-.1-.5-.4-.4c-.3.1-.2.4 0 .6 0 0-.3-.2-.5 0s.1.4.3.4c0 0-.4.5-.2 1s1.6.1 2-.2.4-1.1-.6-1.2c0 0 .2-.1.1-.4s-.7-.2-.7.2z" class="st9"/><path d="M23.3 10.2s0-.5-.4-.6-.6.3-.3.7c0 0-.4-.1-.5.2-.1.3.5.5 1 .3 0 0 .7 1.1.7 1.3 0 .2.1.3.2.2.1 0 .1-.2.1-.3 0-.1-.8-1.3-.8-1.3s.5-.2.4-.6c.1-.4-.3-.6-.4.1z" class="st0"/><path d="M63 43.2s.4-.1.3-.4-.4-.1-.5 0c0 0 .2-.3 0-.4-.2-.2-.3.1-.3.2 0 0-.5-.3-.9-.1s0 1.3.3 1.6.9.3 1-.6c0 0 .1.1.3.1s.2-.5-.2-.4z" class="st2"/><path d="M61.9 43.8s.4 0 .5-.3c0-.3-.3-.5-.6-.2 0 0 .1-.3-.2-.4-.2-.1-.4.5-.2.8 0 0-.9.6-1 .6s-.2.1-.2.2.1.1.3.1c.1 0 1.1-.7 1.1-.7s.2.4.5.3c.2-.1.3-.4-.2-.4z" class="st6"/><path d="M18.9 25s-.1-.3-.3-.2c-.2.1-.1.3 0 .4 0 0-.2-.1-.4.1-.1.2.1.3.2.2 0 0-.2.4 0 .7.2.3 1.1-.1 1.4-.3.2-.3.2-.8-.5-.8 0 0 .1-.1 0-.3s-.5-.1-.4.2z" class="st10"/><path d="M19.5 25.9s-.1-.4-.3-.4c-.2 0-.4.3-.1.5 0 0-.3 0-.3.2-.1.2.4.3.7.2 0 0 .6.7.6.8 0 .1.1.2.2.2s.1-.1.1-.2-.7-.9-.7-.9.3-.2.3-.4c-.2-.3-.5-.4-.5 0zM18.7 27.3c0-.1.1-.2.1-.2s-.2 0-.1-.2c0-.1.2-.1.2-.1s-.2-.1-.1-.2c0-.1.1-.1.1-.1.1 0 .1.1.2.1.3.2.4.4.4.4v.1s-.3.2-.7.3c0 0-.1 0-.1-.1z" class="st6"/><path d="M18.2 27s-.2-.1-.2-.3c.1-.2.3-.1.3-.1s-.1-.2 0-.3c.1-.1.4 0 .6.2-.1 0-.1.1-.1.1-.1.1.1.2.1.2s-.2 0-.2.1.1.2.1.2-.1 0-.1.2c0 .1.1.1.1.1h-.5c-.4-.1-.2-.4-.1-.4z" class="st10"/><path d="M19.5 27v.2c.1 0 .1 0 .3.1l.2.1s.1-.1 0-.1-.4-.3-.5-.3zM20.7 26.2c-.1-.1-.2 0-.2 0s.1-.2-.1-.2-.2.1-.2.1 0-.2-.1-.2-.1 0-.2.1v.3c0 .4.2.5.2.5h.1l.6-.4c0-.1-.1-.2-.1-.2z" class="st6"/><path d="M20.7 25.6s.1-.2-.1-.3-.3.2-.3.2 0-.2-.2-.2c-.1 0-.2.3-.2.6.1 0 .1-.1.2-.1.2 0 .1.2.1.2s.1-.2.2-.1.1.2.1.2.1-.1.2 0c.1 0 .1.1 0 .2.1-.1.2-.3.3-.4.1-.4-.3-.4-.3-.3z" class="st10"/><path d="M20 26.7s.2 0 .1.1 0 .1-.1.3 0 .2 0 .2h-.1c0-.1.1-.5.1-.6z" class="st6"/><path d="M19.7 27.2zM19 27.2s.1-.1.3-.1c.2 0 .4 0 .4.1 0 0-.3-.1-.4-.4-.2-.2-.1-.8 0-.8s.3 0 .6.2.3.6.3.6c.1-.5.4-.7.5-.7 0 0 .2.4.2.6 0 .3-.2.5-.3.7l-.1.1c.1-.3.1-.9.1-.9-.1 0-.3.8-.3.8s-.4-.5-.5-.7c-.1-.1-.2-.3-.2-.1.1.3.6.8.6.8s-.7-.2-.7-.1.5.2.7.2c-.2 0-.3.1-.5 0-.5 0-.7-.2-.7-.3z" class="st7"/><path d="M19.5 27.4c0-.1.7.1.7.1s-.5-.6-.6-.8c-.1-.3.1-.1.2.1.1.1.5.7.5.7s.2-.8.3-.8c.1 0 0 .5-.1.9-.1.1-.2.1-.3.1-.2-.2-.8-.3-.7-.3z" class="st8"/><path d="M31.5 30.8s0-.4-.3-.4-.2.4-.1.5c0 0-.2-.2-.5 0s0 .4.2.4c0 0-.4.4-.3.9s1.4.3 1.7.1c.4-.2.5-.9-.4-1.1 0 0 .2-.1.1-.3s-.3-.5-.4-.1z" class="st5"/><path d="M31.9 32.1s0-.5-.2-.6c-.3-.1-.6.2-.3.6 0 0-.3-.1-.4.1-.1.2.4.5.8.4 0 0 .4 1 .4 1.2 0 .2 0 .3.1.2.1 0 .1-.1.1-.3s-.5-1.3-.5-1.3.4-.1.4-.4c.1-.2-.2-.5-.4.1zM30.5 33.5c0-.2.2-.2.2-.2s-.2-.1-.1-.3c.1-.2.3 0 .3 0s-.2-.1 0-.3c0-.1.1-.1.2-.1.1.1.1.2.2.2.3.4.3.6.3.6v.1s-.4.1-.9.1c-.1 0-.2-.1-.2-.1z" class="st6"/><path d="M30.1 32.9s-.3-.2-.1-.4c.1-.2.4 0 .4 0s-.1-.2 0-.3c.1-.1.4.2.7.5-.1 0-.2 0-.2.1-.1.2 0 .3 0 .3s-.2-.1-.3 0c-.1.2.1.3.1.3s-.2 0-.2.2c0 .1 0 .2.1.2-.2 0-.4-.1-.6-.2-.4-.4 0-.7.1-.7z" class="st5"/><path d="m31.6 33.4-.1.2s.1.1.3.2c.2.1.2.2.3.2 0 0 .1 0 .1-.1s-.5-.4-.6-.5zM33.3 32.8c-.1-.1-.3 0-.3 0s.1-.2 0-.3c-.2-.1-.3.1-.3.1s.1-.2-.1-.3h-.2c0 .1 0 .2-.1.3-.1.5 0 .7 0 .7l.1.1s.4-.1.8-.3c.1-.1.2-.2.1-.3z" class="st6"/><path d="M33.5 32.1s.2-.3-.1-.4c-.2-.1-.4.2-.4.2s0-.3-.2-.3c-.1 0-.3.3-.4.7h.2c.2.1.1.3.1.3s.1-.2.3-.1c.2.1 0 .3 0 .3s.1-.1.3 0c.1.1 0 .2 0 .2.2-.1.3-.2.4-.4.4-.5-.1-.6-.2-.5z" class="st5"/><path d="M32.4 33.2s.2.1.1.2c0 .1-.1.1-.2.3-.1.2-.1.3-.1.3s-.1 0-.1-.1.2-.6.3-.7z" class="st6"/><path d="M31.8 33.7zM30.9 33.5s.2-.1.5 0c.3 0 .4.2.4.2s-.3-.2-.4-.6c-.1-.3.2-1 .3-1 .1 0 .4.1.6.5.2.3.2.8.2.8.2-.5.8-.7.8-.7.1 0 .1.5 0 .8-.1.3-.3.5-.6.7 0 0-.1.1-.2.1.2-.4.5-1 .4-1-.1-.1-.6.8-.6.8s-.3-.8-.3-.9c-.1-.2-.2-.5-.2-.1 0 .3.4 1.2.4 1.2s-.8-.4-.9-.3c-.1.1.6.4.8.5-.2 0-.4 0-.7-.1-.3-.5-.5-.9-.5-.9z" class="st7"/><path d="M31.4 33.8c.1-.1.9.3.9.3s-.5-.9-.4-1.2c0-.3.1-.1.2.1s.3.9.3.9.4-.9.6-.8c.1 0-.2.6-.4 1-.1 0-.2.1-.3.1-.3 0-.9-.3-.9-.4z" class="st8"/><path d="M22.8 37.4s-1.1-.3-1.2-.7.4-1.1.9-.8.3 1.5.3 1.5z" class="st9"/><path d="M23.3 37.6s-.5.4-1.2.3c-.6-.2-.6-.6-.4-.9.2-.2 1.6.6 1.6.6zM23.5 37s.2-.9-.3-1.4c-.5-.5-1 0-.8.6s1.1.8 1.1.8z" class="st10"/><path d="M22.9 37.2s-.7-.4-.6-.5c.1-.1.8.2.8.2l-.2-.2c.1-.1.5.2.7.4 0 .1 0 .3-.1.4h-.8c-.5-.1-.3-.3.2-.3z" class="st5"/><path d="M21.9 37.4c-.5-.4 0-1.3.6-1.2.6.1 1 .7 1.1.8v.1c-.2-.2-.6-.5-.7-.4-.1.1.2.2.2.2s-.7-.3-.8-.2c-.1.1.6.5.6.5-.5-.1-.7.1-.2.3.3.1.6.1.8 0h-.1c-.2.2-1 .4-1.5-.1z" class="st3"/><path d="M29.1 50.7z" class="st7"/><path d="M28 50.4s.1.2.5.3c.3.1.6 0 .6 0-.1 0-.5.1-.9.5-.4.3-.7 1.3-.6 1.4.1.1.5.1 1-.2.6-.3 1-.9 1-.9-.2.8.1 1.3.2 1.4s.5-.5.7-.9c.1-.5.1-.8 0-1.2 0-.1 0-.1-.1-.2-.2.5-.4 1.4-.6 1.4-.2 0 .1-1.3.1-1.3s-.9.7-1.2.9c-.3.2-.6.5-.3.1s1.5-1.2 1.5-1.2-1.2 0-1.2-.1c0-.2 1-.1 1.2-.1-.2-.1-.5-.2-.8-.2-.6-.1-1.1.2-1.1.3z" class="st6"/><path d="M28.8 50.3c0 .2 1.2.1 1.2.1s-1.2.7-1.5 1.2c-.3.4.1.1.3-.1.3-.2 1.2-.9 1.2-.9s-.3 1.4-.2 1.4c.1 0 .4-.9.5-1.5l-.3-.3c-.2 0-1.2 0-1.2.1z" class="st7"/><path d="M29.9 50.8s-.5.6-.8.6c-.3 0-.6-.6-.2-.8.4-.2 1 .2 1 .2z" class="st9"/><path d="M30.3 50.6s.1.5-.2.8c-.3.4-.6.2-.7-.1-.1-.1.9-.7.9-.7zM30 50.2s-.5-.4-1-.3-.3.6.1.7c.5.1.9-.4.9-.4z" class="st10"/><path d="M29.9 50.7s-.5.3-.5.2c0-.1.4-.4.4-.4s-.2.1-.2 0 .3-.2.5-.3c.1 0 .2.1.2.2-.1.1-.1.3-.3.5-.2.3-.3.1-.1-.2z" class="st5"/><path d="M29.7 51.4c-.4.2-.8-.5-.6-.8.2-.3.8-.4.9-.4h.1c-.2 0-.5.2-.5.3 0 .1.2 0 .2 0s-.5.3-.4.4c0 .1.5-.2.5-.2-.2.3-.1.5.1.2.1-.1.2-.3.3-.5 0 .2-.1.8-.6 1z" class="st3"/><path d="M15.1 37.8s-.5-.1-.6-.3c-.1-.2.2-.5.4-.4s.2.7.2.7z" class="st9"/><path d="M15.4 38s-.3.2-.6.1-.3-.3-.2-.4.8.3.8.3zM15.5 37.7s.1-.4-.2-.7c-.2-.2-.5 0-.4.3.1.3.6.4.6.4z" class="st10"/><path d="m15.2 37.8-.3-.2c0-.1.4.1.4.1l-.1-.1s.2.1.3.2c0 .1 0 .1-.1.2H15c-.2-.2-.1-.3.2-.2z" class="st5"/><path d="M14.7 37.9c-.2-.2 0-.6.3-.6s.5.3.5.4c-.1-.1-.3-.2-.3-.2l.1.1s-.3-.2-.4-.1c0 .1.3.2.3.2-.2 0-.3.1-.1.1h.4c-.2.2-.6.3-.8.1z" class="st3"/><path d="M46.6 31.6s-1-.3-1.2-.6c-.1-.4.4-1.1.8-.8.5.4.4 1.4.4 1.4z" class="st9"/><path d="M47 31.9s-.5.4-1.1.3c-.6-.1-.6-.6-.4-.9s1.5.6 1.5.6zM47.3 31.3s.2-.9-.3-1.3-.9 0-.7.6c.1.5 1 .7 1 .7z" class="st10"/><path d="M46.7 31.5s-.6-.4-.6-.5c.1-.1.7.2.7.2l-.2-.2c.1-.1.5.2.6.4 0 .1 0 .3-.1.4h-.7c-.4-.2-.2-.4.3-.3z" class="st5"/><path d="M45.7 31.7c-.5-.4 0-1.2.6-1.2.6.1 1 .7 1 .8v.1c-.2-.2-.6-.4-.6-.4-.1.1.2.2.2.2s-.7-.3-.7-.2c-.1.1.6.5.6.5-.5-.1-.6.1-.2.3.3.1.5.1.7 0h-.1c-.2.1-1 .3-1.5-.1z" class="st3"/><path d="M5.3 41.1s-.4-.1-.5.1c-.1.2.2.3.4.2 0 0-.3.1-.2.4.1.2.3.1.4 0 0 0 .2.5.7.6.5 0 .7-1.1.6-1.5-.1-.4-.6-.7-1.1 0 0 0 0-.2-.2-.2-.2-.2-.4.2-.1.4z" class="st2"/><path d="M6.6 41.2s-.4-.2-.6 0c-.2.2 0 .6.4.5 0 0-.2.2-.1.4s.6-.2.6-.6h1.2c.1 0 .2.1.3 0 0-.1-.1-.2-.2-.2H6.9s.1-.4-.2-.5-.5.1-.1.4z" class="st6"/><path d="M13 56.4s-.3-.1-.4.1c-.1.2.2.3.3.2 0 0-.2.1-.2.3 0 .2.3.1.3 0 0 0 .2.5.6.5s.7-.9.7-1.2c0-.4-.5-.7-1-.1 0 0 0-.2-.2-.2-.2-.1-.3.2-.1.4z" class="st2"/><path d="M14.1 56.6s-.3-.2-.5 0-.1.5.3.4c0 0-.2.2-.1.4s.6-.1.6-.4c0 0 .9.1 1.1.1s.2.1.2 0 0-.2-.1-.2-1.1-.1-1.1-.1.1-.3-.2-.5c-.2-.2-.5-.1-.2.3z" class="st6"/><path d="M51.8 31.5s.4.9.7.9c.3.1.9-.4.5-.8-.3-.4-1.2-.1-1.2-.1z" class="st2"/><path d="M51.5 31.1s-.3.5-.1 1c.2.5.6.4.8.2.1-.2-.7-1.2-.7-1.2zM52 30.8s.7-.3 1.1.1c.4.3.1.8-.4.7-.4-.1-.7-.8-.7-.8z" class="st3"/><path d="M51.8 31.4s.4.5.5.4c.1-.1-.3-.6-.3-.6s.2.2.2.1-.2-.4-.4-.5c-.1 0-.2 0-.3.1 0 .2 0 .4.1.6.2.4.4.3.2-.1z" class="st4"/><path d="M51.8 32.2c.4.4 1.1-.2.9-.7-.1-.5-.7-.8-.8-.8h-.1c.2.1.4.5.4.5-.1.1-.2-.1-.2-.1s.4.5.3.6c-.1.1-.5-.4-.5-.4.1.4 0 .6-.2.2-.1-.2-.1-.5-.1-.6v.1c-.1.1-.1.8.3 1.2z" class="st5"/><path d="M60.4 7.1s.4-.2.4-.5c-.1-.3-.5-.1-.6 0 0 0 .2-.3-.1-.5-.2-.2-.4.1-.3.3 0 0-.6-.4-1-.1s0 1.6.4 2c.4.3 1.1.3 1.1-.7 0 0 .1.2.4.1s.1-.7-.3-.6z" class="st9"/><path d="M59.1 7.8s.5-.1.6-.4-.3-.6-.7-.2c0 0 .1-.4-.2-.5-.3-.1-.5.6-.3 1 0 0-1 .8-1.2.8-.2 0-.3.1-.2.2s.2.1.3.1c.1 0 1.3-.9 1.3-.9s.2.4.6.4.4-.4-.2-.5z" class="st0"/><path d="M27.8 43.9zM27.1 45.6z" class="st7"/><path d="M27.6 44.9s-1-.3-1.2-.6c-.1-.4.4-1.1.8-.8s.4 1.4.4 1.4z" class="st12"/><path d="M28.1 45.2s-.5.4-1.1.3c-.6-.1-.6-.6-.4-.9s1.5.6 1.5.6zM28.3 44.7s.2-.9-.3-1.3-.9 0-.7.6c.2.4 1 .7 1 .7z" class="st13"/><path d="M27.7 44.8s-.6-.4-.6-.5c.1-.1.7.2.7.2l-.2-.2c.1-.1.5.2.6.4 0 .1 0 .3-.1.4h-.7c-.3-.1-.2-.3.3-.3z" class="st14"/><path d="M26.8 45c-.5-.4 0-1.2.6-1.2.6.1 1 .7 1 .8v.1c-.2-.2-.6-.4-.6-.4-.1.1.2.2.2.2s-.7-.3-.7-.2c-.1.1.6.5.6.5-.5-.1-.6.1-.2.3.3.1.5.1.7 0h-.1c-.3.2-1.1.3-1.5-.1z" class="st15"/><path d="M52.6 51.5zM51 50.7z" class="st7"/><path d="M51.6 51.2s.4-1 .7-1.1c.4-.1 1 .5.7.9-.3.4-1.4.2-1.4.2z" class="st12"/><path d="M51.3 51.7s-.4-.6-.2-1.1c.2-.6.7-.5.9-.3s-.7 1.4-.7 1.4zM51.8 52s.9.3 1.3-.2.1-.9-.5-.8-.8 1-.8 1z" class="st13"/><path d="M51.7 51.3s.4-.6.5-.5c.1.1-.3.7-.3.7s.2-.2.2-.1c.1.1-.2.4-.4.6-.1 0-.3 0-.4-.1 0-.2 0-.5.1-.7.2-.5.4-.3.3.1z" class="st14"/><path d="M51.6 50.4c.5-.5 1.2.2 1.1.7-.1.5-.8.9-.9.9h-.1c.2-.2.5-.5.4-.6-.1-.1-.2.1-.2.1s.4-.6.3-.7c-.1-.1-.5.5-.5.5.1-.5-.1-.7-.2-.2-.1.3-.1.5-.1.7v-.1c-.1-.1-.3-.9.2-1.3z" class="st15"/><path d="M66.3 45.5s.4-1 .7-1.1c.4-.1 1 .5.7.9-.4.4-1.4.2-1.4.2z" class="st12"/><path d="M66 45.9s-.4-.6-.2-1.1c.2-.6.7-.5.9-.3.2.2-.7 1.4-.7 1.4zM66.5 46.3s.9.3 1.3-.2c.5-.4.1-.9-.5-.8-.5.1-.8 1-.8 1z" class="st13"/><path d="M66.4 45.6s.4-.6.5-.5-.3.7-.3.7.2-.2.2-.1c.1.1-.2.4-.4.6-.1 0-.3 0-.4-.1 0-.2 0-.5.1-.7.2-.5.4-.3.3.1z" class="st14"/><path d="M66.3 44.7c.5-.5 1.2.2 1.1.7-.1.5-.8.9-.9.9h-.1c.2-.2.5-.5.4-.6-.1-.1-.2.1-.2.1s.4-.6.3-.7-.5.5-.5.5c.1-.5-.1-.7-.2-.2-.2.3-.2.6-.2.8v-.1c-.1-.2-.2-1 .3-1.4z" class="st15"/><path d="M33.1 9.7s.4-1 .7-1.1c.4-.1 1 .5.7.9s-1.4.2-1.4.2z" class="st12"/><path d="M32.7 10.2s-.4-.6-.2-1.1c.2-.6.7-.5.9-.3.3.2-.7 1.4-.7 1.4zM33.3 10.5s.9.3 1.3-.2.1-.9-.5-.8c-.5.1-.8 1-.8 1z" class="st13"/><path d="M33.2 9.8s.4-.6.5-.5c.1.1-.3.7-.3.7s.2-.2.2-.1c.1.1-.2.4-.4.6-.1 0-.3 0-.4-.1 0-.2 0-.5.1-.7.2-.5.4-.3.3.1z" class="st14"/><path d="M33.1 8.9c.5-.5 1.2.2 1.1.7s-.8.9-.9.9h-.1c.2-.2.5-.5.4-.6-.1-.1-.2.1-.2.1s.4-.6.3-.7c-.1-.1-.5.5-.5.5.1-.5-.1-.7-.2-.2-.1.3-.1.5-.1.7v-.1c-.2-.1-.3-.9.2-1.3z" class="st15"/><path d="M35.1 29.3s.4-1 .7-1.1c.4-.1 1 .5.7.9s-1.4.2-1.4.2z" class="st12"/><path d="M34.8 29.8s-.4-.6-.2-1.1.7-.5.9-.3-.7 1.4-.7 1.4zM35.3 30.1s.9.3 1.3-.2.1-.9-.5-.8-.8 1-.8 1z" class="st13"/><path d="M35.2 29.5s.4-.6.5-.5c.1.1-.3.7-.3.7s.2-.2.2-.1c.1.1-.2.4-.4.6-.1 0-.3 0-.4-.1 0-.2 0-.5.1-.7.2-.6.4-.4.3.1z" class="st14"/><path d="M35.1 28.5c.5-.5 1.2.2 1.1.7s-.8.9-.9.9h-.1c.2-.2.5-.5.4-.6-.1-.1-.2.1-.2.1s.4-.6.3-.7c-.1-.1-.5.5-.5.5.1-.5-.1-.7-.2-.2-.1.3-.1.5-.1.7v-.1c-.2 0-.3-.8.2-1.3z" class="st15"/><path d="M69.2 19.3s.4-1 .7-1.1 1 .5.7.9c-.4.5-1.4.2-1.4.2z" class="st12"/><path d="M68.8 19.8s-.4-.6-.2-1.1.7-.5.9-.3c.3.2-.7 1.4-.7 1.4zM69.4 20.1s.9.3 1.3-.2c.5-.4.1-.9-.5-.8s-.8 1-.8 1z" class="st13"/><path d="M69.2 19.4s.4-.6.5-.5-.3.7-.3.7.2-.2.2-.1c.1.1-.2.4-.4.6-.1 0-.3 0-.4-.1 0-.2 0-.5.1-.7.3-.5.5-.3.3.1z" class="st14"/><path d="M69.2 18.5c.5-.5 1.2.2 1.1.7s-.8.9-.9.9h-.1c.2-.2.5-.5.4-.6-.1-.1-.2.1-.2.1s.4-.6.3-.7-.5.5-.5.5c.1-.5-.1-.7-.2-.2-.1.3-.1.5-.1.7v-.1c-.2-.1-.3-.9.2-1.3z" class="st15"/></svg>