<svg xmlns="http://www.w3.org/2000/svg" xml:space="preserve" id="Слой_1" x="0" y="0" style="enable-background:new 0 0 80 80" version="1.1" viewBox="0 0 80 80"><style>.st0{fill:#026634}</style><path d="M18.6 27zM56 40.6zM49.8 42.6zM72.4 24.9zM69.5 19.4zM72 30.3zM27.4 16.1zM23.5 12zM38.1 9.9zM20.3 32.1c-.2-.2-.4 0-.6 0-.2-.2-.7-.1-.5.2.1.1.2.2.1.3-.4.2-.5-.4-.9-.4-.4-.2-.4.1-.6.2-.7 0-.2.6.1.7 0 .7-1.3-.7-1.4.2 0 .3-.7.4-.2.7.2.1.7.1.5.4-1.1.3-.6.4-.4 1.1.6.8.8-.4 1.2-.5.2.9 0 1 1.1.5.3-.4-.3-.8.1-1.2.4-.3.3.7.7.5.8-.5.6-.8.3-1.5.2-.2.8.3.7-.3-.1-.4 0-.7.2-1-.1.1-.2.1-.4.1zM54.6 58.1c-.3-.5-1.1-.1-1.3-.7-.1-.6.9-.1.9-.5-.2-1.2-.6-1-1.5-1.1-.1-.3.8-.8 0-.9-.7-.1-1.1-.7-1.2-1.4h-.1c.1.4.4.9.1 1.3-.4.1-.2.5-.3.7-.6.5-.2.7.4.7 0 .6-.8.4-1 .8-.2.2.1.4.1.6-.3.8.5.5.9.2.9.3-1.5 1.2-.4 1.8.5 1.7.8-.4 1.3.2-.2.5.1 1.5.7.9.2-.1.4.2.6 0 .8-.5-.4-1.1-.2-1.6 1.1.1 1.2.5 1-1zM62.8 60.2c1.1-.4-.4-.7-.5-1.3H62l-.1.1c-.4 0-.3.4-.4.5-.5.1-.4.7.1.6.3.7-1.4.1-1.1 1.1-.3.5-.1.5.2.5 2-.1-1.2.6-.3 1.4-.1 1.6.8 0 1.1.6-.4.8-.4 1.1.5 1 .8.6.9-.6.5-1.1.4-.7 1 1.3 1.2-.7-.1-.5-1.4-.6-.8-1.1.5 0 1 .3.8-.5.4-.8-1.3-.5-.9-1.1zM67 58c.9-.4 1.1-.2.4-1.2-.5-.3-.9.4-1.3 0s.7-.5.5-.9c-.7-.8-.9-.5-1.7-.1-.2-.2.2-1-.4-.7-.6.3-1.2 0-1.6-.6H62.6c.3.3.8.6.8 1.1-.2.3.1.4.1.7-.3.4.2.8.5.3.7.2-.8 1.1 0 1.5.4.7.4.7.9-.1.9-.2-.7 1.6.5 1.5 1.2 1.1.5-.7 1.1-.5.2.7.7 1.1 1.1.3.3.1.5-.3.4-.6-.2-.5-1-.3-1-.7zM71.8 55.3c-.4-.5 1.2-.4.5-1-.4 0-.2-.5-.6-.6-.3-.1-2.1 1-1-.1.5-.3.1-.7-.3-.6-.5-.8-1.1.9-1.5.3.4-.4-.1-.8-.4-.4-.3-.1-.5-.1-.8.1H67c.4.2.7.6.6 1.4.1.1.2.2.4.1 1-.6-.1.7.3 1.1.7.5.7.6 1.1-.2.8-.2.1 1 .5 1.3 1.8.9.5-.6 1.3-.6.4.7 1.1 1.2 1.2.1.6-.4-.1-.9-.6-.9zM43.4 33.2c.5-.4.5-1-.2-1-.1-.4-.8-.2-.8.2 0 .2.2.6-.1.7-.3 0-.3-.5-.6-.5-.5.2-.8 1-.1 1.3.1.1.2.3.1.5-.2.5-.7-.4-.9 0-.2.5-.2 1.1.5 1.2.4.4-.5.2-.4.6.5.5.6 1 .3 1.6h.1c.1-.3.2-.7.5-.8.3.1.3-.2.5-.3.2.1.6-.3.3-.5-.1 0-.3-.1-.2-.2.2-.4.7.1 1-.2.4-.6.7-1-.3-.9-.4-.6 1-.2 1.1-.7.1-.2-.2-.4.1-.6.1-.8-.9.1-.9-.4zM52.9 8.4c-.1.3-.9.2-.5.6.4.4.4 1 .1 1.5h.3c.1-.3.2-.6.4-.8.2-.1.5 0 .5-.3.2-.1.8-.2.4-.5-.1 0-.3-.1-.2-.2.3-.4.7.1 1-.1.2 0 .1-.3.2-.4.6-.4-.1-.6-.5-.6-.4-.6 1.4-.1 1.1-.9.5-1.4-.6-.2-.8-.8.2-.3.6-.5.3-.9-.2-.2-.5.1-.5-.3-.9-.4-.5.8-.8 1.1-.6-.7-.7-.7-1.2.2-.1.5.7.6.5 1.1-.2.4-.6-.4-.9-.1-.3.9 0 .9.6 1.4zM70.7 38.9c.3-.2.1-.9-.3-.8-.2 0-.1-.2-.2-.3-.9-.6-.6.8-1 1.1-.3 0-.2-.7-.6-.7-.6.2-1 1-.4 1.4.4.6-.2.9-.6.3-.3-.3-.4.2-.5.4-.4.4.1.9.5 1.1.4.5-.6.1-.6.6.1.4.6.7.4 1.2l-.2.2H67.8c.3-.1.6-.1.8-.4.3.1.7-.3.4-.5-.1-.1-.3-.1-.2-.3.4-.4 1.3.5 1.4-.3.6-.6.4-.7-.4-.8-.4-.7 1.6.1 1.4-.9-.1-.2.1-.2.1-.4.4-.8-1.9-.1-.6-.9zM69.5 35.3c-.3-.4-.9.2-1.1-.3-.2-.4.7-.2.6-.6-.4-.9-.7-.7-1.4-.5-.2-.2.1-.3.1-.5-.1-.6-.8 0-1.1-.5 0-.1-.1-.2-.1-.2h-.4c.2.4.3.8.1 1.4-.4.9.7 0 .5.6-.1.3-.9.6-.5 1 .2.1-.1.5.2.5.3.1 1-1 .7 0-.7.8-.3.7.1 1.4.5.7.5-.7.9-.4 0 .4.2 1.1.7.6.1-.2.2-.2.4-.1.9-.4-.3-.9-.3-1.3.9-.2 1 0 .6-1.1zM67.1 17.5c.1.5-.8 0-.8.4.1.4.2 1 .8.9 1.1-.2-.4.7.3.8.4.2.6.4.7.6h.3c0-.1-.1-.3.1-.5.1-.2.4-.2.3-.5.3-.3.5-.8-.2-.6-.4-.5 1.2-.4.7-1.1.1-.8-.2-.7-.7-.3-.6-.3.7-.6.6-1-.6-2-.7-.1-1.3-.6.2-.4 0-1.2-.6-.7-1.6-.3 0 1.1-.5 1.2-.7-.5-.8.1-.7.7.2.5.9.2 1 .7zM70.1 22.2c-.2.5-.7-.3-.9 0-.3.8 0 1 .6 1.4 0 .3-.9.2-.4.6.5.3.5 1 .3 1.5h.2c0-.3.1-.6.4-.9.2-.1.5 0 .5-.4.9-.5.3-.3 0-.7.2-.4.7 0 1-.2.4-.5.6-1.1-.3-.9-.4-.5 1-.2 1-.8-.1-.5.2-1.1-.3-1-1.4.6.6-1.1-.9-.9-.2-.4-.8-.1-.7.3 0 .2.2.6 0 .7-.7-.5-.6-.8-1.1.3 0 .5.7.5.6 1zM11 18c.8.5-.3.3-.3.6.1.1.1.4.2.4.4.3.1.7-.1 1.1h.2c.2-.5.7-.4 1-.8.2.1.6-.2.3-.4-.1 0-.3-.1-.2-.2.3-.3.7.2 1 0 .5-.4.9-.9-.1-1-.3-.6 1 0 1.2-.5.8-2-1.6-.2-.2-1.6.1-.5-.3-.4-.5-.5-.1-.5-.8-.3-.8.1-.1.2.1.6-.2.7-.3 0-.2-.6-.5-.6-.5.2-.9.9-.3 1.2.1.1.1.3.1.5-.3.4-.6-.5-.9-.2-.2.4-.5.9.1 1.2zM14.6 23.3c-.1.1-.1.2-.1.3.6.4.9.7.8 1.4h.2c-.1-.6.3-.8.5-1.3.6-.4.4-.5-.1-.7.1-.5 1.2-.1 1-.8.2-.7 0-.7-.7-.5-.6-.4 1.3-.6.7-1.3-.2-.2.1-.8-.5-.6-1.3.9.4-1-1.1-.7-.7-.5-.7.6-.4 1-.2.5-.5-.3-.8-.1-.3.3-.5 1.1.1 1.2.7.1.5.9-.2.6-.4-.1-.2.6-.2.8.2.4 1.7.2.8.7zM11.8 41.5c-.2.5-.7 1.3.4 1.1.4.1 0 .4-.2.5-.3.2-.1.8.3.7.2 0 .1.3.3.4.8.2.4-.8.8-1 .5.7.5.9 1.2 0 .1-.5-.6-.7-.3-1.1.3-.4.6.5.8.2.6-.8.2-.9-.2-1.5.1-.2.9 0 .6-.5-.4-.5-.1-1 .4-1.4h-.8c-.2.5-.8.3-1.1.7-.2-.1-.6.2-.4.4.1.1.3.1.2.2-.3.3-.7-.2-1-.1-.5.5-1 .9.1 1 .3.6-.9 0-1.1.4zM63.6 40.8c1.3 1 .4-.8 1.1-.6.2.3.3.8.8.6.3-.1.1-.5.5-.5.7-.8-.7-.8-.8-1.2.9-.4 1.1-.3.3-1.3-.5-.2-.9.5-1.3.1s.7-.5.4-.9c-.8-.8-1-.4-1.7 0-.3-.2.2-1-.5-.7s-1.3.1-1.8-.6c0 0 0-.1.1-.1l-.4.4c0 .2.1.2.2.2.3.2.7.5.7.9-.2.3.1.4.2.7-.2.2.1.8.4.5.1-.1.2-.3.3-.2.3.5-.8 1.1.1 1.5.2.8.7.1.8-.3.8-.2-.5 1.7.6 1.5zM38.9 24.2c-.1-.1.1-.5-.1-.5-.3-.2-.7.7-.8.1.6-.8.9-.6.3-1.6-.4-.7-.7.6-1 .2.1-.4 0-1.1-.6-.8-.1.2-.2.1-.4 0-.9.3.1.9 0 1.3-.7-.1-1.1-.4-.8.8.2.4.9 0 1.1.5.1.5-.8.1-.7.5.2.9.5.8 1.3.8.1.3-.4.4-.2.7.5.2 1 .3 1.1.9l.1-.1c0-.3.3-.6.2-.9 0-.2.3-.2.2-.5 0-.4-.8.2-.5-.4.3-.4 1.1-.5.8-1zM41.3 10.4c-.3.5.5.8.7 1 .5 0 .5-.7 1-.6.5.2-.6 1 .2.9.7.7 1-1.2 1.3-.4 0 .2.1.3.3.3.5-.5 1.2-.4 1.9-.1 0-.1.1-.1.1-.2s-.2-.2-.3-.2c-.3-.2-.6-.3-.9-.5 0-.2-.1-.4-.3-.4-.1-1.4-1 .8-.8-.8 0-.2-.1-.7-.4-.6-1-.9-.3.8-.9.5-.2-.5-.2-1.4-1-1.1-1-.5.1 1.3-.7.7-.2-.5-1-.3-.8.2-1.2 1.3 1.9.4.6 1.3zM22.7 40.8c-1-.4-.8.6-.4 1.1.2.4 1.4-.2 1.1.4-1 .1-.6.6-.1 1 .4.1.7-.4 1 0 .1.1-.1.2-.2.2-.3.2.1.5.4.4.3.3.7.2 1 .6l.3-.3c-.1-.4 0-.7.2-1.1 0-.4-.5-.1-.6-.4.5-.5.8-.7.3-1.5-.3-.3-.6.6-.9.2-.3-.5.7-.8.2-1.3-.8-.8-.5-.2-1 .2-.4-.2 0-1.2-.8-1-.3.1-.2.4-.5.4-1 .4.7 1 0 1.1zM8.4 48.4c.2-.1.7 0 .4.3-.4.1-.8.6-.2.7.2 0 .2.4.5.4.4.2 1-1 1.1-.3-.3.3-.6.9.1.7.2 0 .3.3.5.1.4-.1.4-.7.8-.7.1 0 0 .2 0 .3-.1.3.4.4.5.1.3 0 .5 0 .7-.2.2 0 .4.1.7.2l.1-.1c-.5-.2-.7-.5-.8-1.1 0-.6-.5.1-.7-.1.1-.7.2-1.1-.7-1.4-.4-.1-.1.9-.6.7s0-.8-.4-1.1c-1-.3-.9-.2-.9.7-.4.1-.5-.6-.9-.5-.7 0-.2.4-.4.6-.4.1-.1.7.2.7zM19.4 12.8c-.8.5-.3.8.4 1 .5 0 .5-.8 1-.7.5.1-.3.7.1.9.9.3.9-.1 1.3-.7.3 0 .3.8.7.4.2-.2.4-.3.6-.3V13c-.2 0-.3-.1-.3-.3 0-.2-.1-.4-.3-.4-.1-.4-.5-.7-.6-.1-.6.2.1-1.3-.7-1.1-1.1-.8-.2.8-.8.6-.3-.3-.1-.9-.6-1-.2-.1-.4.2-.6 0-.8-.1.2.9-.3 1-.3-.3-1.1-.5-.9.2 0 .2-.3.2-.2.4 0 .8 1.2-.1 1.2.5zM26.9 10.2c-.4.6-.9.5.1 1.1.5 0 .5-.7 1-.5s-.4.7 0 .9c.8.4 1 0 1.4-.6.3 0 .1.6.5.5.4-.5.9-.6 1.4-.4V11c-.3-.1-.6-.2-.6-.4.1-.3-.2-.3-.3-.5.1-.2-.3-.6-.5-.3 0 .1-.1.3-.2.2-.4-.2.1-.7-.2-1-.6-.4-1-.7-.9.3-.5.4-.2-.9-.6-1-.2-.2-.4.1-.6 0-.5-.3-.6.3-.3.7 0 .4-.4.1-.5-.1-.2-.2-.8 0-.6.4-.8 1 .4.6.9.9zM26.8 17.7c-.2.1-.2-.1-.3-.2-.7-.4-.2.9-.7.8-.3-.6-.7-.8-1-.1-.5 0-.4.7 0 .8.2.1.6 0 .6.3-.8.5-.9.3-.1 1.1.4.2.7-.5 1.2-.2.4.3-.6.5-.3.8.7.6.9.3 1.5-.1.3.1-.1.6.3.7.5-.2.9-.5 1.3-.1v-.2c-.4-.2 0-.7-.4-1 0-.2 0-.8-.4-.5-.1.2-.3.3-.3 0 0-.4.6-.9 0-1.1-.2 0-.2-.5-.4-.4-.4 0-.2 1-.6.6-.1-.3.4-1.2-.4-1.2zM59.5 19.9v.4c.4 0 .8-.4 1.2-.1.1.4.5.1.6.3.7.5.4-.2.5-.4.5 0 .3.6.7.8.2.2.3 0 .5 0 .7.3.4-.4.2-.7.3-.6.7.8 1.1.5.3 0 .3-.4.6-.3.4-.1.3-.3.1-.5-1.1-1.2 1.1.4.5-1.2.3-.4-.3-.8-.6-.5-1.1.9-.4 0-.5-.5-1.4-.6-.8.5-1.5.9-.6 0 .1-1.2-.8-.7-.8-.1-.2 1.3-.7 1.1-.8-.9-.6 1.1-1.9.9z" class="st0"/><path d="M62 41.5c.3.1.7-.4.4-.6.4-1.3-.7-.5-1.2-.4.2-.8.6-1-.7-.9-.4.2-.1.9-.7 1-.5 0 0-.8-.4-.8-.9 0-.9.4-1 1.1-.3.1-.6-.7-.7-.1-.2.6-.7.9-1.4.9.4 0 .8-.2 1.1.1.1.4.5.1.6.4.1.2.5.2.5-.1 0-.1-.1-.3.1-.3.5 0 .3.6.6.8.1.2.3 0 .5 0 .6.3.5-.4.2-.7.3-.6.6.7 1 .6.3.1.3-.2.6-.2.6.1.4-.6 0-.7-.2-.3.3-.3.5-.1zM61.3 33.1c.3-.3-.3-.8-.6-.5-.2.1-.4.5-.6.3.1-.9.4-.9-.8-.9-.4.2-.2 1.3-.8.9-.1-.8-.1-.8-.8-.5-.5.2.1 1.2-.5 1-.6-.8-.5 1-1.7.9v.2c.3-.1.7-.2 1-.1.2.1.3.4.5.3.1.1.6.5.6 0 0-.1-.1-.3 0-.3.6 0 .4 1.2 1.2.8.3.2.7-.2.4-.4-.1-.1-.3-.5 0-.5.4.2.7 1.2 1.2.5.2-.1.8-.1.5-.5-1.3-1 1.2.1.4-1.2zM8.1 38.3c-.4.8-.5.7.5 1 .6-.3.4-1 .9-1.1.5 0-.1.7.3.8.9.1.9-.3 1.1-1 .3 0 .5.8.7.2.2-.5.6-.7 1.1-.7v-.1c-.3 0-.5 0-.7-.2 0-.3-.3-.2-.5-.3 0-.3-.5-.4-.5-.1-.6.8-.3-1.3-1.2-.7-.6-.4-.5.3-.3.7-.4.5-.6-1.4-1.3-.7-.6 0-.8.3-.3.8.1.4-.3.2-.5.1-.3-.1-.7.3-.4.6 0 .2-.2.6.1.8.4.3.7-.4 1-.1zM16.1 43.6c-.4-.2-.9.4-.5.6-.3 1.4.9.1.9.7-.3.2-.5.9.1.7.2 0 .3.3.6.1.4 0 .5-1.3.9-.8-.2.3-.2 1.1.4.7.9.3.4-.8 1-1 .1 0 .1.2.1.3 0 .3.5.2.5-.1.5-.3.7-.5 1.1-.5v-.2c-.5 0-.9-.2-1.1-.7-.3-.5-.4.3-.7.2-.2-.3 0-.8-.5-.9-.2 0-.9-.2-.8.2.1.2.2.6-.1.6-.5 0-.4-.7-.8-.8-1.1.1-.8.3-.5 1-.1.2-.4-.1-.6-.1zM10 29c-.1.1-.1.2 0 .4.5.6.8-.3 1.3-.2.1.2-.5.8.2.8.4 0 .9 0 .9-.5-.1-.7.7-.7.6 0 0 .4.6 0 .8 0 .4-.3.1-.7.2-1 .2-.1.7.6.7 0 .1-.6.4-.8.8-.9 0-.1-.1-.3-.1-.4-.2.1-.4.1-.7-.1-.1-.3-.4-.1-.6-.2-.1-.3-.6-.3-.5 0 0 .1.1.3 0 .3-.5 0-.4-.6-.7-.7-.7.1-1.3 0-.7.8-.2.7-.7-.7-1.1-.4-1.7.9-.1.7-.4 1.3-.8-.1-.9.1-.7.8zM26.3 24.7c.1-.5-.7-.5-.8-.1-.1.2-.1.6-.4.6-.3-.1 0-.6-.3-.7-1.5.1-.1 1.8-1 1.6-.2-.1-.3-.6-.6-.5-.3.3-.7.7-.3 1.2.7.7-.4.2-.5.5.2.6.2 1-.2 1.5 0 .1.1.3.1.4.2-.3.4-.5.8-.6.2 0 .4.2.6-.1.9.1.4-.1.4-.6.4-.2.6.3 1 .3.6-.3 1.1-.6.2-1-.2-.7.9.2 1.2-.1.3-.1.1-.5.4-.6.5-.7-.9-.3-.7-.8.6-.2.8-.7.1-1zM13.9 55c.5 0-.4 1.1.4.9 1.2-.2.7-.2 1.1-1.2.5-.3.1 1.4.8.5 1 0 0-1.3.7-1.2.1.5.6.4.5-.1.1-.2.4-.2.3-.5 0-.2.2-.3.4-.4 0-.1 0-.2-.1-.3-.5.1-.8 0-1.2-.4-.4 0-.1.5-.4.6-.4-.6-.6-.9-1.4-.5-.3.2.5.7.1.9-.5.2-.6-.6-1.1-.5-1 .6-.8.5-.2 1.1-.2.4-.8-.1-1 .3-.2.2-.2.5.1.6 0 .7.5.8 1 .2zM67.6 48.5c-.2-1.4-.9-.2-1.4 0-.2-1 .3-1.2-1.1-.7-.4.4.2 1-.3 1.3-.6.1-.2-1.3-1.1-.5-.9.1.2 1.4-.4 1.4-1-.7-.2 1.5-1.9 1.6 0 .1 0 .2.1.3.5-.1.8-.7 1.3-.5.2.4.5-.1.7.2.9.3.3-.4.5-.6.5-.1.5.6 1 .6.7-.2 1.4-.2.5-1 .1-.8.9.5 1.3.3.3 0 .3-.4.5-.5.7-.2.2-.7-.3-.8-.3-.3.2-.4.5-.3.4 0 .6-.7.1-.8zM60.7 25.1c-.3 0-.1-.3-.3-.5-.7-.4-.6.7-1.1.7-.3-.1 0-.6-.2-.7-.3-.1-.6.2-.8.3-.3.4.3.8-.1 1.2-.4.3-.4-.7-.7-.5-.8.5-.5.8-.2 1.5-.2.2-.8-.3-.7.3.2.6-.2 1.2-.8 1.5 0 .1.1.1.1.2.2-.2.6-.5.8-.5.2.2.4 0 .6 0 .2.2.7 0 .5-.3-.1-.1-.2-.2-.1-.3.5-.2 1 .9 1.4.1.7-.1.2-.6-.1-.7-.1-.7.9.3 1.2 0 .4-.4 1-1.2 0-1.1-.4-.5 1.3-.5.5-1.2zM53.5 33c-.1 0-.2 0-.2-.1.1-.1 0-.3-.1-.4-.7-.5-.8 1-1.2.6.1-.9-.4-.7-1-.4-.3.3.4 1.3-.3 1.2-.4-.7-.4-.7-1-.1-.4.4.6 1.1 0 1.1-.9-.4-.1.9-1.1 1.5l.1.1c.4-.6.9-.4 1.5-.5.2.2.7.1.5-.2-.1-.1-.2-.2-.1-.3.4-.2.5.4.9.4.2.1.3-.2.4-.2.7 0 .2-.6-.1-.7 0-.7.9.3 1.2.1.3-.1.2-.5.5-.5.6-.6-.8-.4-.5-.9.4 0 1-.3.5-.7zM34.7 10c.1.2.2.3.3.4.3-.5.8-.3 1.1-.6.2.2.7-.2.4-.4-.1-.1-.3-.1-.2-.3.3-.3.7.3 1 .1.2 0 .2-.2.3-.4.7-.2.1-.6-.3-.7-.2-.6.9.1 1.1-.3.3-.1.1-.4.2-.6.5-.4-.2-.6-.5-.5-.4-.1 0-.4.2-.4.3-.2.2-.8-.2-.7-.2 0-.1-.2-.1-.3-.9-.7-.6 1.1-1.1.8-.1-.9-.6-.6-1-.1-.2.4.8 1.1 0 1.2-.3 0-.4-.6-.6-.4-.6.7-.3.9.1 1.5-.1.3-.6-.1-.7.3.3.6.3 1.1 0 1.4zM21.2 19c0 .5-.8-.1-.8.3 0 .6.3 1.1.9 1 .6.2-.4.4-.1.7.6.2.9.6.9 1.3.1.1.2.1.2.2-.1-.3-.1-.5.1-.8.1-.2.4-.2.3-.5 1.2-1.1-1.5-.1.7-1.3.2-.1 0-.3 0-.5.3-.6-.4-.5-.7-.3-.6-.3.7-.6.7-1 .1-.3-.3-.4-.2-.7-.2-.8-.8.5-1 0 .3-.6 0-1.1-.6-.8-.8-.4-.7.7-.3 1-.1.5-.6-.3-.8-.1-.7 1.1.5.8.7 1.5zM40.7 17.9c.1.5-.8.1-.7.5.1 1.5 1.7.3 1.2 1.1-.6.6.5.5.7.7.1.3.2.6.2.9.1-.1.2-.3.4-.4 0-.2-.1-.3 0-.5s.4-.3.2-.6c.3-.3.4-.8-.2-.6-.5-.5 1.1-.5.6-1.1 0-.8-.2-.6-.8-.3-.6-.1.4-.6.4-.9.2-.3-.2-.5-.3-.7-.2-1.1-.7.5-1 0 .2-.4-.1-1.2-.6-.7-.6-.2-1 .5-.4.9.5.7-.4.1-.7.3-.4 1.4.5.8 1 1.4zM63 24.5c.2.4-.7.3-.6.7.4.8.7.6 1.4.4.2.2-.4.8.2.7.5-.1.8.1 1 .4.1-.1.2-.2.3-.2-.4-.4.1-.8-.1-1.2.2-.1.1-.7-.2-.5-.1 0-.2.2-.3.1-.1-.4.5-.5.5-.9-.2-.7-.4-1.2-.9-.3-.7 0 .4-.8.1-1.2 0-.3-.4-.2-.4-.4-.2-.6-.7-.1-.7.3-.2.3-.4-.2-.3-.4 0-.3-.7-.5-.7-.1 0 .1-.2 0-.3 0-.8.5.4.8.4 1.3-.8.2-1.1 0-.6 1.1.3.3.9-.2 1.2.2zM34.5 22.5c-.1-.2-.1-.2 0-.3.1-.8-.9.1-.9-.4.4-.3.6-1.1-.1-.9-.3-.3-.8-.4-.9.2 0 .2.2.6-.1.7-.6-.3-.4-.9-1 0-.4.6.6.7.5 1.3-.3.5-.9-.7-1 .4-.6.6 1.4 1 .3 1.2-.6.3.6.8.3 1.6 0 .1.1.1.1.2.1-.2.1-.5.4-.6.3.1.3-.2.5-.4.4 0 .5-.5 0-.5-.1-.6 1.2.2 1.2-.6.5-.6.2-.7-.5-.7-.4-.5.8-.3 1-.6.1-.1.1-.4.2-.6z" class="st0"/><path d="m71.9 31-.2-.1c-1.4-.2-2.7-.6-4-.4h-.4c-1 .6-2.8.6-3.5-.2 1-1 1.7-1.9 2.6-3.1 2.1-.1 3.9-1.4 5.9-1.8.1-.3-.2-.4-.4-.4-.6.4-1.3.6-2 .8v-.1h-.2c-.1.1-.1.2-.2.3-.8.2-1.6.5-2.4.3-.9-1.7 1.2-5 2.3-6.3h-.6l-.3.6c0-.1 0-.2-.1-.3h-.3c.7 1.6-2.5 4.6-2.7 6.3l-.1-.1c-.1 0-.2.1-.3.2l.2.2c-1.5 4-6.1 3.3-9.3 2.1l.1-.1s-.1-.1-.1-.2c-3.2-2.7 2.6-6 3.5-8.6h.1v-.4h-.1c.4-1 .8-2.1 1.4-3-.1-.1-.1-.1-.2-.1v-.3h-.5c-.5 2.1-3 5.3-4.1 5.9-.1-.1-.1-.3-.2-.4 0 .2.1.4 0 .6-.9.9-1.1 2.8-2.4 3.1-1.7-3.2-2.4-11.9.7-14.6l.2.2c-.1-.1-.2-.3-.2-.3 1.3-.7 2.5-1.7 3.9-2.1l.2-.4c-2 .3-3.4 1.8-5.3 2.2v-.2h-.4c0 .1-.1.1-.1.2-1.5-.9-.8-3.9-2-4.8.2.9.3 1.9.5 2.7-.1-.1-.3-.2-.4-.3-.1.1-.2.1-.2.2 3.3 4.3.5 5.7-3.4 2.7 0 .1-.1.1-.1.2 1.3.6 2.7 2.1 3.8 2.5v3.9c-.2-.1-.3-.2-.4-.3l-.1.1c.8 3.4 2.4 9.5-.9 12.3v-.1l-.3.3v.1c-3.4 2.9-3.8 6.2-7.5 7.6v-.1h-.1c0 .1-.1.1-.1.2-2 0-5.9-3.7-4.5-5.7 2.2-1.8 3.1-8.8 6.7-4.8 0 0 1.5 1.2 2.3 1.3-1.3-.8-2.1-2.2-3.4-2.9-.1-.1-.2-.2-.2-.3H42l-.7-.4c1-2.2 2.5-4.3 2.4-6.8-.5.8-.6 1.8-1 2.7 0-.1-.1-.3-.1-.4l-.4.4c.2 2.3-3 4-3.7 6.1-.1-.1-.1-.2-.1-.3l-.1.1c-.1 1.6-1.7 3.3-3.1 3.3-2.5-2.5 2.3-14-.5-7.8v-.1c-.6 1.3-.7 6.3-2.9 4.4 0-.1.1-.2.1-.4 0-.1-.1-.1-.1-.2 0 .1 0 .1-.1.2-.9-2-1.1-6 .4-7.7 3.9.2 5.6-4.2 7.7-6.8-2.5 1.5-3.7 5.3-6.8 5.5-.1-.1-.2-.1-.3-.2.1-.1.1-.1.1-.2-.1-.1-.2-.3-.3-.5-.1 0-.1.1-.1.1-1.2-4.5 2.1-6.1 5.9-7.3-.8-.5-2.2.8-3.2 1 0-.1 0-.1.1-.1-.1-.1-.2-.2-.3-.4-1.9 1.9-3-.2-3.5-2.6h-.3c.1 1 .4 2.9.7 3.6-.1 0-.2 0-.3-.1v.2c.1.1.2.1.4.2-.2 2.1-.6 4.7-1.8 6.4-1.1-.1-1.9-.8-2.5-1.6-.1 0-.2-.1-.2-.2-1.5-1-2.2-2.9-3.7-3.9 0 .3.3.5.2.8-.1.7.1.7.1.8-.1 0-.3-.1-.5-.1v.4c2-.5 3.8 5.1 6.3 5.6 0 .8-.3 1.6-.4 2.4h-.1v.2s.1 0 .1.1c-1.7 5.5 8.8 14 .6 12.6-.2 0-.3-.2-.5-.3v.1c-3.1-.8-5.5-2.1-7.3-4.8v-.1c0-.1-.1-.2-.1-.4 0 0-.1.1-.2.1-.8-3.4.4-5.1 2.5-8.1-.8.6-1.2 1.5-2.1 1.9 0-.1 0-.2-.1-.3-.1 0-.2-.1-.2-.2v.2c-1.6-1.2-2.4-3.2-3.7-4.7.5 2 2 3.4 3 5.3-.3 1.5 0 3.5-1.3 4.5-.4-.3-.9-.3-1.2-.6-.1 0-.2-.1-.2-.2-1.1-.3-2.1-1.1-3.1-1.6v-.2h-.2v.1c-1.8-1.2-3-3.1-4.4-4.7 0-.1.1-.2.1-.3h-.2l-.1.1c-.4-.6-1.1-1-1.2-1.7-.6 0-.5-.9-1.2-.8 1 2 2.9 3.5 3.4 5.7-.1 0-.2 0-.3-.1v.2h.2c-.5 1.7-2.6 2-3.8 2.9-.2 0-.5.2-.8.4 0 .1.1.2.1.4 1.8-.7 3.6-2.2 5.7-1.9.7.9 1.8 1.3 2.8 1.8-.1 0-.2.1-.2.1 0 .1.1.2.1.4 1.1-.3 2.8 1.3 3.6 1.9.9 2-4.5 2.3-5.7 3.3 2.6 0 5.2-2.1 7.8-1.1.1 0 .1-.1.1-.1 3.6 4.3 13.6 5 13.3 8.2-2.9 1.6-7.6-4.6-17.1-2.7-1.3 0-2.6 1.2-3.6-.1-.5-1.3-2.4-1.9-3.1-2.9h-.2v.1c-.4-.1-.8-.6-1.1-.3 0 0 2.9 1.5 3.5 3.5h-.3v.1h.3c-.8 2.3-3.7 3-5.5 4.4 2.6-.3 4.9-3.5 7.6-3.1v.1h.9c1.9-1.4 7.6-1.3 1.2 3 2.1-.7 3.6-3.2 6.1-2.9 4.4.3 12.4 4.2 9.5 9.5-.9-.4-.9-1.4-1.5-2.1-1.4-2-3.6-.2-4.2-3.6-.4-.3-.2-1-.8-1.2.1 1 .9 2.4-.2 3-.1-.1-.2-.3-.2-.4l-.3.3c0 .1.1.1.1.2-1.1-.1-2-.8-3.2-.6-.5-.7-.8-1.6-1.5-2.1.2.7.7 1.2.8 2-.1 0-.3.1-.4.1v.2h.2c-.4.7-2.9 1.5-3.5 1.9 1.3.3 2.1-1.2 3.4-.8l.2-.4c.4-.2.8-.1 1.1-.3 2.2.7 4.4 1 6.4 2.1h-.1v.4h.1c.4.6.5 1.6.5 2.3.7 1.4 1.6 3.3-.8 2.6-.8.7-1.7.3-2.6.2-1.9-.5-3.7.3-5.7.2v-.1h-.3v.2c-2.5-.8-5.1-1.9-6.6-3.9 0 .4.6.8.3 1.3-.1 0-.2-.1-.3-.1l-.1.1c.1 0 .1.1.2.1-.1.2-.4.4-.6.5v-.1l-.1-.1c-.1.2-.2.4-.3.5 0 .2.1.4.1.5.4-.5 1-.9 1.8-1 1.4.6 2.6 1.5 3.8 2.2-.1.1-.2.1-.4.1 0 .1 0 .2.1.3.2-.1.5-.2.7-.2.3.2.5.4.6.7-1.3 1.8-3.5 2.4-4.8 4.4 2.3-.9 4.2-2.7 6.4-3.9v.1h.1v-.1c1.4-.5 2.9-.7 4.4-.3 0 .1 0 .1.1.2h.4v-.1c3.7 1.9 5.4.1 4.9 5.6-.9 3.4.9 8.1-2.4 10.3-4.3 5.6-12.3 4.3-14.8 8.8 2.9-.7 7.5-5 8.3-.3.4-.8 1.4-2.1 2.2-2.2 2-.5 9.3-6 8.8-1-.1.5-2.7 3.5-.2 3.3 4.9-6.3 5.3-.2 9.5.1-.5-2.4-6.3-4.3-.1-4.8 1.1-1.1 2.5 0 3.6.6 1.4.5 3.4.9 4.2 2.5 0 .5.9 1.4 1.8 1.3-2.9-7.7 6.9-.4 9.7-.2-4.4-3.9-12-4.2-15.2-9.2-3.4-3.7-5-14.7 2.2-14.5.5.1 2.2-.2 2.9-.6v-.1c2.4-1.4 5.3-2.6 8.1-2.2 0 .1 0 .1-.1.2H59.8c2.3 1.1 1.5 4.2 2.5 6.3 0 .4.2 1-.2 1.3h.3v-.2l.1.2c.5-1.3-.5-3.1.1-4.4h.3c-.1-.1-.1-.1-.1-.2 1.2-1.3 3.4-1.7 4.9-1.4-2.4-1.9-4.8 2-6.2-1h.1c0-.1 0-.2-.1-.3-.2-.4-.3-.9-.3-1.3 1.9-2.8 5.2-4.5 8.2-3.2 0-.3.1-.7.1-1-.4.1-3.4 0-3.5 0 .5-1.1 1.5-1.7 1.8-2.6h-.6c-2.1 2-6.5 7.7-9.3 5.7.1-1.9 1.4-3.3 2.4-4.8-2.1 1.3-2.3 4.2-4.4 5.5h-.2v.1c-2.1.5-4 1.7-6.2 1.7-.3-.2-.4-.3-.6-.5.1-4.4 5.9-5.3 7.1-9.4.1 0 .2.1.3 0 .6-1 1.2-1.9 1.9-2.7-.9 0-1.1 1.2-1.8 1.6 0 .1-.1.2-.2.2-.8 1.5-2.2 3.4-4.2 3 0 .1-.1.1-.1.2-.8-.1-1.3-.7-2.1-.9.4.7 1.3 1 1.8 1.7v.6c-2 1.9-4 3.9-6.4 5.2v-.1h-.7l-.2.2-.6-.2c-1.2-3.4.2-8.1 2.2-10.9 4.7-1.5 9.3-3.3 14.3-3.7.4-1 1.9-.4 2.3-1.3-2 .5-6 2.1-7.3-.1h.2v-.2h-.2c0-.6.4-.9.2-1.5-.8 3.3-3.8 4.3-6.8 3.8l-.1-.1c-.1.1-.2.1-.3.2-1.1-.8 1.1-2.5 1.5-3.4 2.8-4.1 7.4-2.1 11.4-2.1 1.4.1 4.1.3 4.9 1.5h.4c-.2-.4-.3-.8-.1-1.3.8-.4 2.6-1 3.2-.1.1.2.2-.2.3-.3.5-.1 1 .1 1.5.1v.3h.5v-.1h.7c0-.4-.4-.3-.6-.4z" style="fill:#474350"/><path d="M26.8 29.7c-.2.4-.1 1.2.5 1.1.7-.1.8.7 0 .6-.4 0 0 .6.1.8.2.4 1.6-.2.9.5-.1.1-.1.2 0 .3.1 0 .4.2.5.1.5-.1.6.4.7.8.2.1.3.3.5.3-.1-.3-.4-.7-.2-1.1.3-.1.1-.4.2-.6.3-.1.3-.6-.1-.5-.8.1.3-.5.4-.7.1-.2-.1-.3-.1-.5.2-.3-.2-.6-.5-.3-1.2.7.4-.7.1-1-.2-.2-.4-1-.8-.7-.8 1.4-.1-1.3-1.3-.3-.8-.3-.5.8-.1 1.1 0 .5-.6-.1-.8.1zM36.3 14.2c.3-.2 0-.5.3-.7.4-.7-.9-.1-.8-.7.7-.3.8-.7.1-1 0-.5-.7-.4-.8 0-.1.2 0 .6-.3.6-.4-.8-.4-.8-1.1-.1-.2.4.5.7.2 1.2-.3.4-.5-.5-.8-.3-.6.7-.3.9.1 1.5-.1.2-.9-.1-.6.5.3.5.2 1.1-.2 1.5.1.1.2.3.3.5.2-.3.3-.6.7-.7.2 0 .5.1.6-.2.2 0 .8 0 .5-.4-.1-.1-.3-.1-.2-.3.3-.3.7.3 1 .1.2 0 .2-.2.3-.4.7-.2.1-.6-.3-.7-.3-.7.8 0 1-.4zM43.2 23.9c-1.1-.5.2 1.2-1.2 1.7.1.1.1.2.2.3.3-.7.9-.5 1.5-.6.2 0 .8.2.6-.3-.1-.1-.2-.2-.1-.3.5-.2 1 .9 1.4.1.7-.1.2-.6-.2-.7-.1-.7.9.3 1.2 0 .3-.1.2-.4.3-.5.5-.3 0-.7-.4-.6-.5-.5 1.4-.3.2-1.2.1-.5-.6-.5-.8-.2-.1.2-.3.8-.5.4.1-.9-.5-.7-1-.3-.3.3.5 1.3-.3 1.2-.5-.7-.4-.6-1-.1-.3.4.6 1 .1 1.1zM12.8 51.4c0-.1-.1-.3-.1-.5-.3.4-.8.7-1.4.4-.6-.2-.1.5-.4.7-.7-.3-.9-.6-1.5.1-.2.3.8.4.4.8s-.8-.3-1.2 0c-.2.2-.7.8-.2.9 1.3.2-.2.4-.3.8-.2.6.4.4.5.6.2.7.8.2.9-.3.5-.2.1 1.1.8.6 1-.6.6-.5.5-1.5.4-.5.4.9.9.4.1-.1 0-.3.2-.3.7-.3-.4-.9-.1-1.3.5.2.7.2.6-.4.1-.4.2-.7.4-1zM7 26.9c-.2.1-.3.1-.5 0-.2-.3-.4-.1-.6-.1-.1-.2-.7-.2-.5.2 0 .1.2.2 0 .3-.7-.1-.6-1-1.5-.4-.7.3.7.8.1 1-.9-.4-.7-.8-1.6 0-.7.5.8.5.4.9-.4-.1-1.1.4-.5.7 0 .9.9.6 1.1 0 .7 0-.6 1.3 1.1.6.3-.1-.2-1.2.5-1 .3.8.3.7 1 .3.4-.3-.4-1.2.2-1.1.7.5.2-.4.9-1.1 0-.1 0-.2-.1-.3zM24.1 47.4c-.5-.2-1.5 0-.9.6-.2 1.6 1.6-.4.8 1-.1.6.5.2.7.4.8.5.6-1.4 1.1-.9 0 .7-.2.9.5.6.8.2.1-1.3.7-1.1 0 .5.5.5.5 0 .1-.1.4-.1.4-.4.2-.4.7-.3 1.1-.4v-.4c-.4.1-1 .2-1.2-.2 0-.2-.6-.4-.7-.2-.3.9-.4-.5-.9-.5-.2.1-.9 0-.7.3.5.6-.3.9-.5.3s-1-.2-1.2.1c-.1.3.8.5.3.8zM75.2 45.9c-.3-.2.1-.4 0-.6-.4-.8-1 .2-1.4-.1-.2-.3.4-.5.3-.8-.2-.2-.7-.2-1-.2-.5.2-.2 1-.8 1-.7-.3.5-1.2-1.1-.8-.6.1-.1 1.4-.7 1-.5-.9-.7.3-1 .6v1.1c.1 0 .2.1.4.1.1.5.8.3.6-.2.5-.3.4.7.7.9.1.2.4 0 .5 0 .7.4.6-.4.3-.8.4-.7.6.8 1.1.8.3.1.4-.2.6-.2.7.1.5-.6.1-.8-.2-.4.4-.3.6-.1.5-.2 1-.6.8-.9zM6.8 23.2c-.4.7-.8.8.4 1.1.5 0 .4-.8.9-.7.5.1-.3.7.1.9.9.2 1-.1 1.3-.8.3 0 .3.8.7.3.4-.4.7-.6 1.2-.4v-.2c-.3 0-.5-.1-.6-.3 0-.3-.3-.3-.4-.4 0-.3-.4-.5-.5-.2 0 .1 0 .3-.2.3-.5-.3.1-1.4-.8-1.1-.5-.5-.6.2-.5.6-.5.5-.3-1-.9-.9-1.8 0-.3.5-.8 1-.3-.3-1.1-.4-.9.2 0 .2-.3.2-.2.4.1.7.9-.1 1.2.2zM46.4 6.5c.3.6-1.2.1-.2 1.1.4.6 1.2-.7 1.4.1-.3.4-.6.6 0 .8.4.5.8-.3 1.1-.4.2.1.1.3.1.5.4.5.8-.4 1.2-.1.1 0 .2.1.2.1l.2-.2-.3-.3c0-.2.1-.5-.2-.6 0-.4-.2-.9-.6-.3-.6-.2.7-1.3-.3-1.4-.3-.7-.6 0-.6.4-.7.3.2-1.4-.7-1.3-.6-.2-.7-.2-.6.6-.1.4-.4 0-.5-.2-.2-.3-.8-.1-.7.2-.8.5-.2.9.5 1zM47.4 13.7c-.7-.4-.2.9-.7.7-.1-.4-.8-.9-.9-.2 0 .2-.2.1-.3.1-.5.5.3.8.7.9.3.7-1.4 0-.1 1.3.4.2 1.2-.7 1.2 0-.6.6-.5.5.1 1 .4.3.9-.8 1.1-.3-.2.9.8.1 1.5.5l.1-.1c-.1-.1-.2-.2-.3-.4-.1-2.3-.6-.3-.8-1.1 0-.4.6-.9 0-1.1-.2 0-.1-.5-.4-.4-.4 0-.2 1-.6.6 0-1.1.4-1-.6-1.5z" class="st0"/><path d="M48.6 25.6c0-.3-.3-.3-.4-.5-.1-.6-.6-.2-.7.2-.3.3-.3-.2-.3-.4-.2-.7-.7-.1-1-.2-.9.4.2.9.2 1.3-.8 0-1 0-.7 1 .3.4.9-.1 1.1.4.1.6-1.2.1-.5.9 0 .8 1.3-.1 1.2.5-.4.4 0 .7.4.6.5-.1.7.5.9.8l.3-.3c-.1-.3-.3-.5-.2-.8.3-.2.1-.4.1-.6.2-.1.2-.7-.1-.5-.1 0-.3.2-.3 0 0-.5 1.1-.7.4-1.3.1-.7-.5-.3-.7 0-.7-.1.5-.8.3-1.1zM7.2 31c-.1.5.6.5 1 .5.5 0 .3.5-.1.4-.4 0-.4.5-.1.6.1 1 1.2-.2 1.3.4-.6.3-.1.6.3.6.2.4.8.1 1 .6h.2c-.2-.3-.3-.7-.2-1.1.4-.7.1-.6-.4-.8.2-.4.9-.7.4-1.2-.1-.6-.4-.2-.7 0-1 0 .6-1.1-.1-1.4-.4-.5-.6-.4-.8.2-.5.3-.1-1.5-1-.8 0 .2-.1.3-.3.2-.6.2-.2.7.2.9 0 .7-1.3-.5-.7.9zM71.4 26.8c-.1.2-.2.6-.5.5-.3-.1.1-.6-.2-.8-.3-.1-.6.1-.8.3-.3.4.3.9-.2 1.2-.5.2-.3-1.1-1-.3-.8.2.4 1.2-.2 1.3-.2-.1-.4-.2-.5 0 .1.7-.2 1.1-.7 1.5h.4c.3-.4.8.1 1.1-.2.2.1.8.2.6-.2-.2-.1-.2-.4.1-.3.3.1.7.8 1.1.3.1-.2.5 0 .5-.3.1-.4-.9-.5-.4-.8 1 .3.8.7 1.6-.2.6-.6-.8-.4-.5-.9.6 0 1-.6.4-.9.1-.4-.6-.6-.8-.2zM71.9 31.4h-.5c0 .4.2.8-.1 1-.3 0-.2.3-.3.5-.4.1-.3.7.2.5.4.6-1.2.3-.8 1-.2.8.1.5.7.4.5.3-.5.5-.6.8-.3.3.1.5.1.8 0 1.1.8-.3 1 .2-.3.6-.1 1.1.6.8.3.4.8-.2.6-.5-.1-.2-.4-.5-.2-.7.9.3.9.5 1-.6-.1-.5-.9-.2-.9-.7s.8.1.8-.3c0-.9-.4-.9-1.1-1.1-.1-.3.7-.5.2-.7-.6-.2-.9-.8-.7-1.4zM56.4 19.4c-.1-.7 0-1.3-.8-.7-.6-.2.6-.7.5-1.1.1-.3-.3-.3-.3-.5 0-.6-.6-.3-.7.1-.3.2-.3-.3-.2-.5.1-.3-.5-.6-.7-.3-1.6-.2.1 1-.4 1.3-.8-.4-.8.1-.7.8.2.4 1.3.1 1 .7-.8.1-.8.1-.5.9.2.5 1.2-.1 1 .4-.7.6.8.4 1.1 1.5-.1-.2-.1-.4 0-.7.1-.2.4-.3.2-.6.4-.6.3-.6-.3-.6 0-.5.6-.4.8-.7zM61.2 13.3c-.6-.4.8-.5.8-.9-.1-.9-.2-2.2-.9-1.4-.4.1-.2-.4-.1-.5.2-.3-.3-.7-.6-.5-.1.1-.2-.1-.3-.1-1.2-.2.4 2-.8 1-.1-.2-.4 0-.4.2-.1.4-.3.9.3 1 .7.1.5.9-.2.6-.2-.1-.3.2-.2.4-.4.9 1.5.6.8 1.1-.2 0-.3.4-.1.5.6.3.7 1 .5 1.8h.5c0-.3 0-.5.2-.7.3 0 .2-.3.4-.5.3 0 .5-.5.1-.5-.1 0-.3 0-.3-.1.1-.4.7-.2.9-.5.2-.7.5-1.2-.6-.9zM29.9 4.8c-.4-.1-1.1-.1-.6.4-.3.8.8.5 1.1.9 0 .2-.2.1-.3.1-.5.2.1.5.2.6 0 .4.4.3.5.6H31.1c-.1-.6 0-1 .7-1.4.2-.4-1-.6 0-.7.6 0 .8-1.2.3-1.2-.5.3-.9-.2-.4-.5.7-.1.6-.9.2-1.3-.6.2-1 .7-.6-.4.1-.4-.4-.8-.7-.4-.1.1-.2 0-.2 0-.4.8-.5 1-.2 1.6-.1.5-.9-.6-1 .2.2.3-.2.4-.1.7 0 .4 1.4.4.8.8zM48.1 46.2c.2-.2-.1-.5 0-.7.3-.6-.4-.6-.8-.4-.4 0-.1-.4.1-.6.3-.3-.1-.9-.5-.7-.2.1-.2-.2-.2-.2-1-.4-.5.9-.8 1.3-.7-.6-.7-.9-1.3.3-.1.5 1.2.9.5 1.3-.8-.4-.8-.3-1 .5-.1.6 1.2.6.7 1-1.3.1.8 1.1-.2 2.5H45.3c.1-.4.1-.8.4-1.1.2-.1.5 0 .6-.4.2-.1.8-.3.4-.6-.1 0-.3 0-.3-.2.3-.4.8 0 1.1-.2.4-.6.7-1.3-.4-1.1-.6-.6.9-.3 1-.7zM17.7 49c.1.4 1.4.2 1 .7-.4-.1-1.1.1-.5.5.1.1 0 .4.2.4.3.2.8-.2 1 .2 0 .1-.2.2-.3.2-.3.1 0 .6.2.5.3.4.7.4.9.9h.3c-.2-.6 0-1 .4-1.4.1-.4-.5-.2-.5-.5.6-.4 1-.5.6-1.4-.2-.3-.7.5-.9 0-.1-.5.6-.5.6-1-.4-.9-.5-.8-1.1-.2-.2-.5.2-1.7-.9-.9-.3-.2-.7.3-.4.6.2.1.5.5.1.5-.3-.3-1-.2-.7.3.1.2-.2.4 0 .6zM18.1 57.8c0 .6-.3 1.3.7.8.6.1-.6.7 0 1.1.1.2.4-.1.5.1 0 .1.2.2.3.2.8 0 .2-.9.5-1.2.7.6.6.8 1.1-.2 0-.5-.7-.5-.6-1 .2-.5.7.4.9 0 .4-.9 0-.9-.6-1.4 0-.3.9-.2.4-.6-.5-.4-.5-1-.2-1.5H21c-.1.3-.1.6-.5.7-.3-.1-.3.2-.5.4-.2-.1-.6.3-.3.5.1 0 .3 0 .2.2-.2.4-1.2-.2-1.2.5 0 .1-.2.2-.2.3-.3.7 1 .1.7.6-.3.3-.9 0-1.1.5zM24.9 57.3c.2.4.7-.4.9.1.1.5-.7.5-.7 1 .3 1 .4.9 1 .4.3.3-.3 1.4.6 1.2.1-.1.1-.3.2-.2.3.2.7-.3.5-.6-.2-.1-.4-.5 0-.5.3.3 1 .3.7-.3-.1-.2.2-.4 0-.6-.1-.4-1.4-.2-.9-.7.4.1 1.1 0 .6-.5-.1-.1.1-.4-.2-.4-.3-.3-.8.1-1-.3 0-.1.2-.1.3-.2.3-.1 0-.6-.2-.5-.3-.4-.7-.7-.8-1.3h-.4c.2.6.1 1-.4 1.4-.5.4.3.4.4.7-.5.4-.9.5-.6 1.3zM55.4 39.3c-1.6.3.8-1-.7-1.1-.1-.5-.8-.2-.8.2 0 .2.1.6-.2.7-.6-.7-.5-.9-1.1.1-.1.5.6.6.4 1.1-.2.4-.6-.4-.9-.1-.5.8-.1 1 .4 1.5-.1.3-.9.1-.5.6.4.4.4 1 0 1.5h.4c.1-.3.2-.7.5-.9.2-.1.5 0 .5-.3.2 0 .8-.2.4-.5-.1 0-.3-.1-.2-.2.3-.4 1.1.4 1.2-.3.5-.5.3-.7-.4-.7-.4-.6 1.4 0 1.2-.9-.1-.2.4-.7-.2-.7zM56.4 46.6c.8-.6 1-.3.7-1.4-.1-.8-.8.4-1-.1.3-.4.2-1.2-.4-.8-.1.1-.2-.1-.3-.1-1 0-.1.9-.3 1.3-.8-.3-.8-.5-1 .6.1.5.9.3.9.8s-.8-.1-.8.3c-.1.9.3.9 1 1.1.1.3-.5.3-.3.6.4.3.8.4.8.9h.2c-.1-.5.5-.5.5-.9.1-.1.6-.5.1-.6-.2.1-.4-.1-.2-.3.3-.2 1.1-.1.9-.7.4-1.4-.9-.1-.8-.7zM59.6 55.4c.5-.9.1-1-.5-1.6.1-.3.7 0 .7-.5-.6-.6-.6-1.3-.1-2h-.2c-.1.3-.3.7-.6.8-.3-.1-.4.2-.6.3-.3-.1-.7.3-.4.5.1 0 .3.1.2.2-.4.5-1.4-.6-1.5.5-.7.4.1.7.5.7.4.7-1 .1-1.2.6-.3.2 0 .5-.1.7-.4.5.3.7.7.5.4 0 0 .5-.2.5-.3.2-.1.8.2.8.3-.1.3.3.5.3.9.1.3-1 .8-1.2.6.8.6.8 1.3-.1.1-.5-.7-.7-.5-1.2.3-.5.7.5 1 .2zM54.6 12.6c-.1.2-.2.8.2.6.1-.1.2-.2.3-.1.2.4-.4.5-.5.9-.1.2.2.3.2.4 0 .7.6.2.7-.1.7 0-.3.8-.1 1.2.1.3.5.2.5.5.6.6.4-.8.9-.5.1.4.4 1 .8.5 0-.1 0-.2.1-.2.4.1.6-.6.2-.8-.2-.1-.6-.2-.5-.4.1-.3.6.1.7-.2.1-.3-.2-.6-.3-.8-.4-.3-.9.3-1.2-.1-.2-.5 1.1-.4.3-1-.2-.8-1.2.4-1.3-.2.3-.4-.2-.6-.5-.5-.3.1-.5-.1-.7-.3.1.1.2.3.2.5s-.3.4 0 .6zM63.7 45.1c.2-.3.1-.6-.2-.6h-.2c-.1 0-.2 0-.3.1-.1 0-.2-.1-.2-.2s.1-.1.1-.2c.1 0 .2-.1.2-.1.1 0 .1-.1.1-.2s0-.3-.1-.4c0-.1-.1-.1-.2-.1h-.1c-.1 0-.1 0-.1-.1s0-.1-.1-.2c-.1 0-.1-.1-.2-.1s-.3 0-.4.1c-.1.1-.2.2-.2.4v.7c0 .1-.1.1-.2.1s-.1 0-.1-.1c-.1-.1-.1-.3-.2-.4 0-.1-.1-.2-.2-.2s-.2 0-.3.1-.1.2-.3.3c0 .1-.1.2-.1.2 0 .2 0 .4.2.6l.1.1c.1.2.2.4.1.6 0 .1-.1.1-.2.1h-.1c-.1-.1-.3-.2-.4-.3-.1-.1-.2-.1-.3 0s-.1.2-.1.3c0 0 0 .1-.1.1-.1.1-.1.1-.1.2 0 .3.1.5.4.7.1 0 .1.1.2.1s.1.1.1.2-.1.1-.2.2H59.7c-.1.1-.1.1-.2.3 0 .1 0 .1.1.2 0 0 .1.1 0 .1 0 .1 0 .2.1.2.2.1.2.2.2.4V48.6c-.1.1-.1.2-.2.4s-.2.4-.4.5c-.1 0-.1.1-.2.2h.4c.1 0 .2-.1.2-.3v-.2c.1-.1.2-.3.2-.4 0-.1 0-.1.1-.2s.2-.1.3-.2h.1c.2.1.4 0 .5-.2 0-.1.1-.1.1 0h.2c.1 0 .2-.1.3-.2.1-.1.1-.3-.1-.3h-.1s-.1 0-.1-.1v-.1c0-.1.1-.1.2-.1.2 0 .4 0 .5.1h.4c.1 0 .3-.1.2-.3 0 0 0-.1.1-.1s.2-.1.2-.1c.1-.1.1-.2.1-.3-.1-.2-.2-.2-.4-.2-.1 0-.3 0-.4-.1-.1-.1-.1-.2 0-.3s.2-.1.3-.1h.8c.1 0 .1-.1.2-.1 0 0 0-.1.1-.1.1-.1.1-.2.1-.3v-.1c0-.2 0-.3.1-.3z" class="st0"/></svg>