<svg xmlns="http://www.w3.org/2000/svg" xmlns:xlink="http://www.w3.org/1999/xlink" xml:space="preserve" id="Слой_1" x="0" y="0" style="enable-background:new 0 0 80 80" version="1.1" viewBox="0 0 80 80"><style>.st0{fill:#5aa6dc}.st2{fill:#d8ddec}</style><path d="M45.4 24.6h-.2c0-.1 0-.2-.1-.1-.1 0-.1-.1-.2-.1 0 0 .1-.1.2-.1.1.1.1-.1.1-.1s.2.1.2 0c-.1 0-.1-.1-.1-.2.2 0-.1-.1-.1.1-.1-.1-.2.2 0 0 0-.1.1 0 .1 0-.1.1-.2-.1-.3-.1.1-.1 0-.2.1-.3.1 0 .1.1 0 .1s0 0 0-.1c-.2 0 .1.2.1 0 .2.1.2-.2.1 0-.2-.1-.1-.3-.2-.1 0 0-.2-.1-.2 0-.1 0-.1.1-.2.1v-.2c.1 0 0-.1-.1-.1 0 0 .2-.1.1-.1-.1.1-.2.1-.3 0 .1-.1-.2 0 0 .1-.2 0 .1.2 0 0-.1 0 0-.1.1 0 0 .1-.2.1-.2.2 0-.1-.2-.1-.2-.2s.2 0 .1 0c0 0 0-.1 0 0 0 .2.2 0 0 0 .2-.1-.1-.2 0-.1-.1.1-.2 0-.3 0s.1.1.1.1c-.1.2-.2.3-.1.3v.2c-.1 0-.1 0-.2-.1.1-.1-.1 0-.2 0-.1-.3 0 0-.2.1-.1-.2-.1.1.1 0-.1.2.2.1.1 0-.1.1-.1-.1 0-.1s0 .2.1.3c-.1 0-.2.1-.3.1-.1-.1.1-.1.1 0 .1.1.1-.2 0 0 0-.2-.2 0-.1-.1 0 .1-.1.2-.1.2h.2c0 .1 0 .2.1.1.1 0 .1.1.2.1 0 0-.1.1-.2.1-.2-.1-.2 0-.2.1 0 0-.2-.1-.2 0 .1 0 .1.1.1.2-.2 0 .1.1.1-.1.1.1.2-.2 0 0 0 .1-.1 0-.1 0 .2-.1.3 0 .4 0-.1.1 0 .2-.1.3-.1 0-.1-.1 0-.1 0 0-.1 0 0 0 .2 0-.1-.2-.1 0-.2-.1-.2.2-.1 0 .2.2.2.4.3.1 0 0 .2.1.2 0 .2 0 .2-.1.2-.1v.2c-.1 0 0 .1.1.1 0 0-.2.1-.1.1.1-.1.2-.1.3 0-.1.1.2 0 0-.1.2 0-.1-.2 0 0 .1 0 0 .1-.1 0 0-.1.2-.1.2-.2 0 .1.2.1.2.2s-.2 0-.1 0c0 0 0 .1 0 0 0-.2-.2 0 0 0-.3.2 0 .3-.1.2.1-.1.2 0 .3 0s-.1-.1-.1-.1c.1 0 .2-.1.1-.1v-.2c.1 0 .1 0 .2.1-.1.1.1 0 .2 0 .1.3 0 0 .2-.1.1.2.1-.1-.1 0 .1-.2-.2-.1-.1 0 0 0-.1 0 0-.1.1 0 0 .1 0 .1-.1 0 0-.2-.1-.3.1 0 .2-.1.4-.2 0 .2-.2.2-.2.1-.1-.1-.1.2 0 0 0 .2.2 0 .1.1-.1-.1.1-.1.1-.2zm-.1-.6zm-.1.1c0 .1 0 .1 0 0zm0-.3s-.1 0 0 0zm-.8-.4zm-.3 0s.1 0 0 0c.1 0 0 0 0 0zm-.6.4s-.1 0 0 0c-.1 0 0 0 0 0zm-.2.2s.1 0 0 0zm.1.1c0 .1 0 .1 0 0 0 .1-.1.1 0 0 0 .1 0 0 0 0zm-.1.8s.1 0 0 0zm.1-.1c0-.1 0-.1 0 0zm.1.3c-.1 0-.1 0 0 0zm.7.3s-.1 0 0 0c-.1 0 0 0 0 0zm.2 0zm.8-.3s-.1 0 0 0zm-.2-.7c0 .1.1.1.2.1 0 0-.1 0-.1.1 0-.2-.3-.2-.1 0h-.2c.1 0 .1 0 0-.1.1-.1.1-.1 0-.1h.2c-.2.2.2.1 0 0 .1 0 .2 0 .2.1-.1-.2-.2-.1-.2-.1zm-.4.3c.1 0 .1.1.2.1l-.1.1c0-.1 0-.1-.1-.2zm.1.3c-.1 0-.1 0 0 0-.1-.1 0-.1 0 0 0-.1 0 0 0 0zm-.1-.3c.1 0 .1 0 0 0 .1-.1.2 0 .2.1 0 0-.1 0-.2-.1zm-.2.2c-.1-.1-.1-.3-.1-.4.1.1.2.1.3.3-.1 0-.1 0-.2.1zm.1 0s-.1 0 0 0c-.1 0-.1 0 0 0-.1 0-.1 0 0 0zm-.5-.1c0-.2.1-.2.2-.3 0 .1 0 .2-.2.3.1 0 0 0 0 0zm.1.1zm-.2 0c-.1 0-.1-.1 0 0 0-.1 0-.1 0 0 0-.1 0-.1 0 0zm0 0c.1.1 0 .1 0 0 0 .1 0 0 0 0zm.1-.2c-.1 0-.1.1-.2.1 0-.1.1-.1.2-.1-.1 0 0 0 0 0zm-.3-.1h.2c-.1 0-.1.1-.2 0 0 .1 0 .1 0 0zm0 0c-.1-.1 0-.1 0 0 0-.1 0 0 0 0zm.3 0h.2-.2c0 .1 0 0 0 0zm-.1-.2s-.1 0 0 0zm0 .1c-.1 0 0 0 0 0zm0-.1c.1-.1.3-.1.4 0-.2.1-.3.2-.4 0 0 .1 0 .1 0 0zm0-.1c-.1 0-.2-.1-.2-.1.1-.1.2-.1.2.1.1-.1 0-.1 0 0zm-.2-.1c0 .1.1.1.2.1-.1 0-.1 0-.2-.1zm.1.2c-.1 0-.1 0 0 0-.1-.1-.1-.1 0 0-.1-.1-.1 0 0 0zm.2-.2c-.1 0-.1-.1-.2-.1l.1-.1c0 .1 0 .1.1.2zm-.1-.3c.1 0 .1 0 0 0 .1.1 0 .1 0 0 0 .1 0 0 0 0zm.1.3c.1 0 .1.1.2.1-.2 0-.2 0-.2-.1zm.1-.2c.1.1.1.2.1.3-.1 0-.2-.1-.1-.3-.1.1 0 .1 0 0zm0 0zm.5.1-.3.3c0-.1 0-.2.1-.3h.2zm-.2-.1s.1 0 0 0zm.3 0c.1 0 .1.1 0 0 0 .1 0 .1 0 0 0 .1 0 .1 0 0zm0 0c-.1-.1 0-.1 0 0 0-.1 0 0 0 0zm-.1.2c.1 0 .1-.1.2-.1 0 .1 0 .1-.2.1.1 0 .1 0 0 0zm.3.1h-.2c.1 0 .1-.1.2 0 0-.1 0-.1 0 0zm0 0s.1 0 0 0c.1.1 0 .1 0 0 0 .1 0 0 0 0zm-.2 0c-.1 0-.1 0-.2.1 0-.1.1-.2.2-.1-.1-.1 0-.1 0 0zm0 .2c.1 0 .1 0 0 0 .1 0 0 0 0 0zm0-.1s.1 0 0 0c.1 0 .1 0 0 0zm0 0c0 .1 0 .1 0 0-.1.2-.3.1-.4.1.1-.1.3-.2.4-.1zm-.1-.3s-.1 0 0 0zm-.3.1V24h.1c-.1.1-.1.2-.1.2zm-.3-.1zm0 .7zm.3-.1v.2h-.1c0-.1 0-.2.1-.2zm.3.1c-.1 0 0 0 0 0zm-.1-.2h.2v.1c-.1-.1-.2-.1-.2-.1zm.2 0h.2v.1s-.1-.1-.2-.1zm.2-.1c.1 0 .1 0 0 0 .1.1 0 .1 0 0 0 .1 0 0 0 0zm.1-.3s.1.1.2 0v.2l-.2-.2zm0-.1v.2h-.1c0-.1 0-.1.1-.2-.1 0-.1 0 0 0zm-.1-.1c0 .1 0 .1 0 0h-.2v-.1c.1.1.2.1.2.1zm.1-.3c0 .1 0 .1 0 0 0 .1 0 .1 0 0zm0 .1c-.1 0-.1.1 0 0-.1.1-.1.1-.2.1v-.2c.1 0 .1.1.2.1zm-.4.1c.1 0 .1 0 .2-.1v.1c-.1-.1-.4.1-.2 0 .1.2 0 .2 0 .2.1-.1 0-.1 0-.2-.1 0-.1 0-.2.1 0-.1.1-.1.2-.1 0 .1.1-.2-.1-.2 0 0 .1 0 .1-.1v.3zm-.3-.1c.1.1.1 0 0 0zm.2 0c.1 0 .1.1 0 0 0 .1 0 .1 0 0zm0-.3c-.1 0-.1 0 0 0zm-.1.2c.1-.1.1-.1.1-.2 0 .1.1.1.1.1s-.1.1-.2.1zm-.1 0s.1 0 0 0c.1 0 .1 0 .2.1v.1c-.1-.1-.2-.1-.2-.2zm0 .1c.1 0 .1.1.1.2h-.1c-.1-.1-.1-.2 0-.2zm-.1.2s0-.1 0 0c0-.2 0-.1 0 0zm0-.3c0 .1-.1.1 0 0-.1.1-.1.1 0 0-.1 0-.1 0 0 0zm-.1.1c-.1.1-.1.1 0 0-.1.1-.1 0 0 0-.1 0-.1 0 0 0zm-.1-.3h.2-.2zm0 .1h.2v.1c-.2 0-.2-.1-.2-.1zm-.2.2c.1.1.3.1.2-.1 0 0 .1 0 .1.1-.2.1-.1.4 0 .1 0 0 .1.1.1.2-.2-.1-.2-.1-.2 0-.1-.1-.2 0-.1.1l-.1-.1c.3 0 0-.2-.1-.1.1-.1.1-.2.1-.2zm-.2 0c0-.1 0-.1 0 0zm.1 0s-.1 0 0 0 .1 0 0 0c.1.1.1.1 0 0 0 .1 0 0 0 0zm0 .2c0-.1.1-.1 0 0 .1-.1.1-.1 0 0 .1 0 .1 0 0 0 0 .1 0 .1 0 0zm0 .1v.2h-.1c0-.1 0-.1.1-.2-.1 0-.1 0 0 0zm-.3.2v-.2c0 .1.1 0 .2 0v.1c-.1.1-.1.1-.2.1zm.3.2c0-.1-.1-.1-.2-.1 0 0 .1 0 .1-.1 0 .2.3.2.1 0h.2c-.1 0-.1 0 0 .1-.1.1-.1.2 0 .2-.1 0-.1 0-.2-.1.2-.1-.2 0 0 0-.1.1-.2.1-.2 0h.2zm-.1.2s-.1-.1-.2 0v-.2l.2.2zm.1.1c-.1 0-.1-.1 0 0v-.2.2zm0 .1c0-.1 0-.1 0 0h.2v.1c-.1-.1-.1-.1-.2-.1zm-.1.2zm0 0c.1 0 .1-.1 0 0 .1-.1.1-.1.2-.1v.2c-.1-.1-.1-.1-.2-.1zm.4-.1c-.1 0-.1 0-.2.1V25c.1.1.3-.1.2 0-.1-.2 0-.2 0-.2-.1.1 0 .1 0 .2.1 0 .1 0 .2-.1-.1.1-.2.1-.2.1 0-.1-.1.2.1.2 0 0-.1 0-.1.1V25zm.2.1zm-.1 0c-.1 0-.1 0 0 0-.1 0-.1-.1 0 0-.1-.1-.1-.1 0 0zm0 .2c-.1 0-.1 0 0 0-.1 0-.1 0 0 0zm0-.2c-.1 0-.1.1 0 0-.2.1-.2 0-.2 0h.2zm.1 0c-.1 0-.1 0-.2-.1v-.1c.1.2.2.2.2.2zm.1 0c-.1 0-.1-.1-.1-.2h.1v.2zm0-.2s0 .1 0 0c0 .2.1.1 0 0zm0 .2s.1 0 0 0c.1 0 .1 0 0 0 .1 0 .1 0 0 0 .1 0 0 0 0 0zm.2 0c0-.1 0-.1 0 0 .1-.1.1 0 0 0zm.1.2h-.2.2c-.1 0 0 0 0 0zm0-.1c0 .1-.1.1 0 0h-.2v-.1c.1 0 .2 0 .2.1zm.2-.1c-.1-.1-.3-.1-.2.1 0 0-.1 0-.1-.1.2-.1.1-.4 0-.1 0 0-.1-.1-.1-.2.1.1.1.1.1 0 .1.1.2 0 .1-.1l.1.1c-.3 0 0 .2.1.1v.2zm.2 0s.1 0 0 0zm0 0c-.1 0-.1 0 0 0-.1-.1-.1-.1 0 0-.1-.1-.1 0 0 0zm-.1-.2c0 .1-.1.1 0 0-.1.1-.1.1 0 0-.1 0-.1 0 0 0 0-.1 0-.1 0 0zm.1-.1c-.1 0-.1 0 0 0v-.2h.1c-.1.1-.1.1-.1.2 0-.1 0 0 0 0zm.2-.1c0-.1-.1 0-.2 0v-.1c.1 0 .1 0 .2.1zm.1.2zm-.1-.1c.1-.1 0 0 0 0zM28.5 22.8c-.1 0-.1 0-.2.1 0-.1 0-.3-.1-.2-.1 0-.1-.1-.2-.1.1-.1.1-.1.2-.1.1.1.1-.1.1-.2.1 0 .2.1.2 0-.1 0-.2-.2-.2-.3.3 0-.1-.2-.1.1-.1-.1-.3 0-.1.1.1 0 .1-.1 0 0-.1-.1.2 0 .1.1s-.2-.2-.4-.1c.1-.1-.1-.3.1-.4.1 0 .1.1 0 .1s.1 0 0-.1c-.2.1.1.2.1 0 .3.2.2-.2.1 0-.1-.1-.2-.2-.2-.3-.1-.1-.1.1-.1.2-.1 0-.3-.1-.2 0-.1 0-.2.1-.2.1v-.2c.2 0 0-.2-.1-.2 0 0 .2-.2.1-.2-.1.1-.2.1-.3 0 .2-.2-.2 0 0 .1-.2 0 .1.3 0 .1-.1 0 0 .1-.1 0 0-.1.2 0 .1.1s-.2.1-.2.2c0-.2-.3-.1-.3-.3 0-.1.1-.1.1 0-.1.1 0-.1-.1 0-.1.2.3 0 0-.1.3-.1-.1-.3 0-.1-.1.1-.2.1-.3 0-.1 0 .1.1.1.2-.1 0-.2.2-.1.2v.2c-.1 0-.2-.1-.2-.1.1-.1-.1-.1-.2 0 0-.1 0-.2-.1-.2 0 .1 0 .2-.2.3-.1-.2-.1.2.1 0-.1.1.2.2.1 0 0-.1-.1 0-.1 0 .1.1-.1.1 0 0 .2-.2.1.3.2.3-.2-.1-.2.2-.4.1-.1-.1.1-.2.1-.1 0 0-.1-.1-.1 0 .2.2.1-.2 0 0 0-.3-.3 0-.1-.1 0 .1-.1.2-.2.3 0 .1.2 0 .2 0 0 .1 0 .3.1.2.1 0 .1.1.2.1-.1.1-.1.1-.2.1-.1-.1-.1.1-.1.2-.1 0-.2-.1-.2 0 .1 0 .2.2.2.3-.3 0 .1.2.1-.1.2.2.2-.2 0 0 0 .1 0 0 .1 0 .1.1-.2 0-.1-.1s.2.2.4.1c-.1.1.1.5-.2.3-.1-.1.1-.1 0 0s.1 0 0-.1c-.1 0-.1 0-.1.1-.3-.2-.2.2-.1 0 .1.1.2.2.2.3.1.1.1-.1.1-.2.1 0 .3.1.2 0 .1 0 .2-.1.2-.1v.2c-.2 0 0 .2.1.2 0 0-.2.2-.1.2.1-.1.2-.1.3 0-.2.2.2 0 0-.1.2 0-.1-.3 0-.1.1 0 0-.1.1 0 0 .1-.2 0-.1-.1s.2-.1.2-.2c0 .2.3.1.3.3 0 .1-.1.1-.1 0 .1-.1 0 .1.1 0 .1-.2-.3 0 0 .1-.3.1.1.3 0 .1.1-.1.2-.1.3 0 .1 0-.1-.1-.1-.2.1 0 .2-.2.1-.2v-.2c.1 0 .2.1.2.1-.1.1.1.1.2 0 0 .1 0 .2.1.2 0-.1 0-.2.2-.3.1.2.1-.2-.1 0 .1-.2-.3-.1-.1 0 .1 0-.1-.1 0-.1.1.1-.1.2-.1 0 0-.1.1-.2 0-.3.2.1.2-.2.4-.1.1.1-.1.2-.1.1 0 0 .1.1.1 0-.2-.2-.1.2 0 0 0 .3.3 0 .1.1.1-.2.3-.3.3-.3zm-.1-.8c0 .1 0 0 0 0zm-.1.1c0 .1 0 .1.1.2h-.1v-.2zm-.1-.4c.1 0 .1.1 0 0 0 .1 0 .1 0 0zm-1-.5c0-.1 0-.1 0 0zm-.3 0c0-.1.1-.1 0 0 .1 0 0 0 0 0zm-1 .6c0-.1 0-.1 0 0zm-.1.2c-.1.1-.1 0 0 0-.1 0 0 0 0 0zm0 .2s-.1 0 0 0c0-.1 0 0 0 0zm-.1.9s.1 0 0 0zm.1-.1c0-.1 0-.1-.1-.2h.1v.2zm.1.4s0-.1 0 0c0-.1 0 0 0 0zm1.1.5c0 .1-.1.1 0 0-.1 0 0 0 0 0zm.2 0c0 .1 0 .1 0 0zm1-.6s.1 0 0 0c0 .1 0 .1 0 0zm-.2-.8c0 .1.1.1.2.2l-.1.1c.1-.2-.4-.3-.2 0h-.2c.2 0 .2-.1 0-.1.2-.1.1-.1 0-.1.1 0 .2 0 .3-.1-.3.4.1.3 0 0 .2.1.2.1.2.2-.1-.3-.2-.3-.2-.2zm-.5.4c.1.1.2.1.3.1 0 .1-.1.1-.1.1l-.2-.2zm.2.3c-.1 0-.2 0-.2-.1 0 .1.1.1.2.1zm-.2-.3s0-.1 0 0c.2-.1.3 0 .3.1-.1 0-.2-.1-.3-.1zm-.3.2c-.1-.1-.1-.3-.1-.5.1.1.3.2.3.4 0 0-.1 0-.2.1zm.1 0c-.1 0-.1 0 0 0-.1 0 0 0 0 0zm-.6-.2c.1-.1.2-.3.3-.4 0 .2-.1.3-.1.5 0 0-.1 0-.2-.1zm.2.2zm-.4 0c-.1 0-.1-.1 0 0 0-.1.1-.1.2-.2-.1.1-.2.1-.2.2zm0 0h.2c-.1.1-.2.2-.2 0 0 .1 0 .1 0 0zm.1-.2c-.1.1-.2.1-.3.1 0-.1.1-.2.3-.1 0-.1 0-.1 0 0zm-.3-.2h.2c-.1 0-.2.1-.2.2 0 0-.1-.1 0-.2zm-.1 0c-.1-.1 0-.1 0 0zm.4 0c.1 0 .2-.1.3-.1-.1.1-.2.2-.3.1 0 .1 0 .1 0 0zm-.1-.2c0-.1-.1-.1 0 0-.1-.1 0-.1 0 0 0-.1 0-.1 0 0zm0 .1s-.1 0 0 0c-.1 0 0 0 0 0zm0-.1c.2-.1.3-.1.5 0-.1.1-.3.1-.5 0 0 .1 0 .1 0 0zm0-.2c-.1 0-.2-.1-.2-.2.1 0 .2.1.2.2.1-.1.1-.1 0 0zm-.2-.1c0 .1.1.1.2.2h-.2c-.1-.2 0-.2 0-.2zm0 .2c-.1 0-.2 0-.2-.1l.2.1c-.1 0 0 0 0 0zm.3-.2c-.1-.1-.2-.1-.3-.1 0-.1.1-.1.1-.1.1.1.2.1.2.2zm-.1-.3c.1 0 .2 0 .2.1-.1 0-.2 0-.2-.1zm.1.3.2.2c0-.1-.1-.1-.2-.2zm.3-.1c.1.1.1.3.1.5-.1-.1-.3-.2-.3-.4.1-.1.2-.1.2-.1zm-.1 0c.1-.1.1-.1 0 0 .1-.1.1-.1 0 0 .1-.1.1-.1 0 0zm.6.1c-.1.1-.2.3-.3.4 0-.2.1-.3.1-.5.1 0 .2 0 .2.1zm-.2-.2c.1 0 .1 0 0 0 .1 0 0 0 0 0zm.5 0c.1 0 .1.1 0 0 0 .1-.1.1-.2.2l.2-.2zm-.1 0h-.2c.1-.1.2-.2.2 0 .1-.1.1-.1 0 0zm-.1.2c.1-.1.2-.1.3-.1 0 .1-.1.1-.3.1.1 0 .1 0 0 0zm.4.1h-.2c.1 0 .2-.1.2-.2v.2zm0 0s.1 0 0 0c.1.1 0 .1 0 0 0 .1 0 .1 0 0zm-.3 0c-.1 0-.2.1-.3.1.1-.1.1-.2.3-.1-.1-.1-.1-.1 0 0zm.1.3c-.1 0-.1 0 0 0zm-.1-.2c.1 0 .1 0 0 0 .1 0 .1 0 0 0zm0 .1c-.2.1-.3.1-.5 0 .1-.1.3-.1.5 0zm0 .2s-.1 0 0 0c-.1 0 0 0 0 0zm-.1-.4s.1 0 0 0c.1 0 .1 0 0 0 .1 0 0 0 0 0zm-.1-.1c.1 0 .1 0 0 0zm0 0c0-.1 0-.1 0 0 0-.1.1-.1 0 0 .1-.1.1-.1 0 0zm-.2-.1c0-.1 0-.1 0 0zm-.1.1c0-.1 0-.2-.1-.3h.1c.1.2 0 .3 0 .3zm-.1-.1c0-.1 0-.1 0 0zm-.3.1c0-.1 0-.1 0 0 0-.1 0-.1 0 0 0-.1 0-.1 0 0zm0 0zm-.1.1c-.1 0-.1 0 0 0zm0 .4c-.1 0-.1 0 0 0zm.1.1c0 .1 0 .1 0 0 0 .1 0 .1 0 0 0 .1 0 0 0 0zm0 .2zm.3 0c0 .1 0 .1 0 0zm.1-.2c0 .1 0 .2.1.3h-.1v-.3zm.1.2c0 .1 0 .1 0 0zm.2 0c.1 0 .1 0 0 0 .1 0 0 0 0 0zm0-.2s0 .1 0 0c.1.1.1.1 0 0 0 .1 0 .1 0 0zm-.1-.1c.1 0 .2.1.3.1 0 0 0 .1-.1.1-.1-.1-.1-.2-.2-.2zm.4 0c-.1 0-.1 0 0 0h.2v.2c-.1-.1-.2-.1-.2-.2zm.1-.1c.1 0 .2 0 .2.1l-.2-.1c.1.1.1 0 0 0zm.3-.4c.1 0 .2.1.2 0v.2c-.1-.1-.2-.1-.2-.2-.1 0 0 0 0 0zm-.1 0v.2h-.1c0-.1 0-.1-.1-.2h.2zm-.1-.2c0 .1 0 .1 0 0-.1 0-.1 0-.2-.1v-.1c.1.1.1.2.2.2zm.1-.4c0 .1.1.1.1.2 0 0-.1-.1-.1-.2 0 .1 0 0 0 0zm0 .1c-.1 0-.1.1-.1.2h-.1v-.2h.2zm-.5.1c.1 0 .2-.1.2-.1v.2c-.2-.2-.5.2-.1.1 0 .1-.1.1-.1.2.1-.2 0-.2-.1-.1 0-.2-.1-.2-.1-.1 0-.1.1-.1.2-.2 0 .3.2-.1-.1-.2l.1-.1c-.1.1-.1.3 0 .3zm-.3-.1c.1 0 .1 0 .2.1 0 .1-.1.1-.1.2-.1-.1-.1-.2-.1-.3zm.1.1s0-.1 0 0c.1 0 .1.1 0 0 0 .1 0 0 0 0zm0-.5s-.1 0 0 0 .1 0 0 0zm-.1.2c.1 0 .1-.1.1-.2.1 0 .1.1.2.1-.1.1-.2.2-.3.1 0 .1 0 .1 0 0zm0 .1c.1 0 .2.1.2.1l-.1.1c-.1-.1-.1-.1-.1-.2 0 .1 0 0 0 0zm-.1.1c.1.1.1.2.1.3h-.1c-.1-.1-.1-.2 0-.3zm-.1.3c0-.1-.1-.1-.1-.2 0 0 .1-.1.2-.1-.1.1-.1.2-.1.3zm0-.4c.1 0 .1.1 0 0 0 .1-.1.1-.2.2l-.1-.1c.2 0 .2-.1.3-.1zm-.2.2c-.1 0-.1-.1 0 0 0-.1 0 0 0 0zm-.1-.5h.2-.2zm-.1.2c0-.1.1-.1.2-.1 0 .1 0 .2.1.2 0 0 0 .1-.1.1 0-.1-.1-.2-.2-.2zm-.2.2c.2.2.4.1.3-.2.1 0 .1 0 .1.1-.2.1-.1.5 0 .2 0 .1.1.1.1.2-.1-.1-.1-.1-.1.1-.1-.1-.2-.1-.1.1-.1-.1-.1-.1-.1-.2.4.1.1-.3-.1-.1-.1-.1-.1-.1-.1-.2zm-.3 0c0 .1-.1.1 0 0zm.1 0s.1-.1.2-.1v.2l-.2-.1c.1.1.1.1 0 0zm0 .3c.1-.1.1-.1.2-.1v.1s-.1.1-.2 0c.1.1.1.1 0 0zm0 .2c.1.1 0 .1 0 .2h-.1c0-.2 0-.2.1-.2-.1 0-.1 0 0 0zm-.3.2v-.2c.1.1.2 0 .2 0v.1c-.1 0-.2 0-.2.1zm.3.1c0-.1-.1-.1-.2-.2l.1-.1c-.1.2.4.3.2 0h.2c-.2 0-.2.1 0 .1-.2.1-.1.1 0 .1-.1 0-.2 0-.3.1.3-.3-.1-.3 0 0-.2-.1-.2-.1-.2-.2 0 .3.1.3.2.2zm-.1.4c-.1 0-.2-.1-.2 0v-.2l.2.2c0-.1 0-.1 0 0zm.1 0c-.1 0-.1 0 0 0v-.2h.1c0 .1 0 .1.1.2-.2.1-.2.1-.2 0zm0 .2c.1-.1.1-.1 0 0 .1 0 .1 0 .2.1v.1c0-.1-.1-.1-.2-.2zm-.1.4c0-.1-.1-.1-.1-.2.1.1.1.1.1.2 0-.1 0 0 0 0zm0-.1c.1 0 .1-.1.1-.2h.1v.2c0 .1-.1 0-.2 0zm.5-.1c-.1 0-.2.1-.2.1v-.2c.2.2.5-.2.1-.1 0-.1.1-.1.1-.2-.1.2 0 .2.1.1 0 .2.1.2.1.1 0 .1-.1.1-.2.2 0-.3-.2.1.1.2l-.1.1c.1-.1.1-.3 0-.3zm.5.1c-.1 0-.1 0-.2-.1 0-.1.1-.1.1-.2 0 .1 0 .2.1.3zm-.3-.1c0 .1 0 .1 0 0-.1 0-.1-.1 0 0zm0 .5c.1 0 .1 0 0 0s-.1 0 0 0zm.1-.2c-.1 0-.1.1-.1.2-.1 0-.1-.1-.2-.1.1-.1.2-.2.3-.1 0-.1 0-.1 0 0zm.1-.1c-.1 0-.1 0-.2-.1l.1-.1c0 .1.1.1.1.2.1 0 .1 0 0 0zm.1-.1c-.1-.1-.1-.2-.1-.3h.1c.1.1.1.2 0 .3zm.1-.3c0 .1.1.1.1.2 0 0-.1.1-.2.1.1-.1.1-.2.1-.3zm0 .4c0-.1.1-.1.2-.2l.1.1c-.2.1-.3.1-.3.1zm.1-.2c.1 0 .1.1 0 0 0 .1 0 .1 0 0zm.1.5h-.2.2zm.1-.2c0 .1-.1.1-.2.1 0-.1 0-.2-.1-.2 0 0 0-.1.1-.1 0 .1.1.2.2.2zm.2-.2c-.2-.2-.4-.1-.3.2-.1 0-.1 0-.1-.1.2-.1.1-.5 0-.2 0-.1-.1-.1-.1-.2.1.1.1.1.1-.1.1.1.2.1.1-.1.1.1.1.1.1.2-.4-.1-.1.3.1.1.2.1.2.1.1.2zm.3 0c.1 0 .1-.1 0 0zm-.1 0c.1 0 .1 0 0 0 0 0-.1.1-.2.1v-.2l.2.1c0-.1 0-.1 0 0zm0-.3c-.1.1-.1.1-.2.1v-.1h.2c0-.1 0-.1 0 0zm.1-.2c-.1-.1 0-.1 0-.2h.1c-.1.1-.1.1-.1.2zm.3 0c-.1-.1-.2 0-.2 0v-.1c.1 0 .2-.1.2-.1v.2zm.1.2zm-.1-.1v-.2h.1c0 .1-.1.1-.1.2zM52.1 61.2c-.2-.1-.1-.3-.2-.5.3.1.2 0 0 0 .2-.1.3-.1 0 0 0-.2.1-.4.2-.5-.2.1-.2.2-.3.4 0-.1 0-.3-.2-.3.1-.1-.1-.2-.2-.3.2 0 .3.1.5 0-.1 0-.4 0-.6-.1.2-.2.1-.1 0 0 0-.2 0-.3 0 0-.2-.1-.3-.3-.4-.4-.1.2.1.3.2.4-.1-.1-.3-.2-.4 0-.1-.2-.3-.1-.4 0 .1-.1.3-.2.2-.4 0 .1-.2.3-.4.4-.1-.2-.1-.2 0 0-.1-.1-.2-.2 0 0-.2.1-.4.1-.6.1.2.2.3 0 .5 0-.1.1-.3.2-.2.3-.2 0-.2.2-.2.3-.1-.2 0-.3-.3-.4.1.1.2.3.2.5-.3-.1-.2 0 0 0-.2.1-.3.1 0 0 0 .2-.1.4-.2.5.2-.1.2-.2.3-.4 0 .1 0 .3.2.3-.1.1.1.2.2.3-.2 0-.3-.1-.5 0 .1 0 .4 0 .6.1-.2.2-.1.1 0 0 0 .2 0 .3 0 0 .2.1.3.3.4.4.1-.2-.1-.3-.2-.4.1.1.3.2.4 0 .1.2.3.1.4 0-.1.1-.3.2-.2.4 0-.1.2-.3.4-.4.1.2.1.2 0 0 .1.1.2.2 0 0 .2-.1.4-.1.6-.1-.2-.2-.3 0-.5 0 .1-.1.3-.2.2-.3.2 0 .2-.2.2-.3.1.2.1.5.3.4zm-.4-.2c-.1-.1-.2.1-.1.2-.4 0 .1.3-.1.1.1 0 .1.1 0 .1-.2.1-.2-.3-.3-.4.2 0 .6-.2.5 0 .1.1 0 .1 0 0 0 .1.1 0 0 0zm-.2.5c-.1 0 0 0 0 0zm-.2 0c.1.1.1.1 0 0 .1.1.1.1 0 0 0 .1 0 .1 0 0zm.1 0zm-.2 0-.3-.3.3.3c.1-.1 0-.4 0-.5.1.1.1.3.2.4l-.2.1c.1 0 .1 0 0 0zm-.2.1c.2 0 0-.3 0 0-.3-.3-.3.3-.2 0 .1.1 0 .1-.1.1-.2-.2.2-.3.2-.5 0 .1.4.2.1.4.1 0 0 0 0 0 0-.1 0-.1 0 0zm-.5 0zm-.1-.1zm0 0c.1 0 .1 0 0 0 .1 0 0 0 0 0zm.1 0c0-.2 0-.4.1-.5 0 .1-.1.4-.1.5.1 0 .4-.2.4-.3 0 .1-.2.2-.4.3.1 0 0 0 0 0zm-.2-.2c.1 0 0-.2-.1-.2.2-.3-.4-.1 0-.1 0 .1-.2 0-.2 0 .1-.2.4 0 .5 0-.1 0 0 .4-.2.3-.1 0-.1-.1 0 0-.1-.1-.1 0 0 0zm-.3-.6s0 .1 0 0c0 .1 0 0 0 0zm.1-.2c.1.1.2-.1.1-.2.4 0-.1-.3.1-.1-.1 0-.1-.1 0-.1.2-.1.2.3.3.4-.2-.1-.5.2-.5 0-.1-.1 0-.1 0 0 0-.1-.1-.1 0 0zm.3-.4c0-.1 0-.1 0 0 0-.1 0-.1 0 0zm.1-.1zm0 0s0 .1 0 0c-.1.1-.1.1 0 0-.1.1-.1 0 0 0-.1 0 0 0 0 0zm.1.1.3.3-.3-.3c-.1.1 0 .4 0 .5-.1-.1-.1-.3-.2-.4l.2-.1c-.1 0 0 0 0 0zm.2-.1c-.2 0 0 .3 0 0 .3.3.3-.3.2 0-.1-.1 0-.1.1-.1.2.2-.2.3-.2.5 0-.1-.4-.3-.1-.4 0-.1.1 0 0 0zm.5 0c.1 0 .1 0 0 0 .1 0 .1 0 0 0zm.2.1c0-.1-.1-.1 0 0 0-.1 0-.1 0 0zm-.1 0s0-.1 0 0c0-.1 0-.1 0 0 0-.1 0 0 0 0zm0 0c0 .2 0 .4-.1.5 0-.2.1-.4.1-.5-.1 0-.4.2-.4.3 0-.1.2-.2.4-.3-.1 0-.1 0 0 0zm.1.2c-.1 0 0 .2.1.2-.2.3.4.1 0 .1 0-.1.2 0 .2 0-.1.2-.4 0-.5 0 .1-.2.1-.5.2-.3.2-.1.1.1 0 0 .1.1.1-.1 0 0zm0 .4h.2c-.1 0-.1.1-.2 0 0-.1 0 .2-.2.2.2-.1-.2-.1-.3-.1.1-.1.6 0 .3-.1.1-.1.2-.1.2 0zm-.1-.1c.1 0 .1 0 0 0 .1 0 .1 0 0 0zm.1.2zm-.2.3zm-.1.1s.1 0 0 0c.1.1.1.1.1.2-.1-.1-.1-.1-.1-.2 0 0-.2.1-.2-.1.2.1-.1-.2 0-.3.1 0 .3.4.3.2 0 0 0 .1-.1.2zm0 0c-.1 0-.1 0 0 0-.1 0-.1 0 0 0zm-.3-.2c0 .1-.1.1 0 0v-.2c0 .1.1.2 0 .2.1.1 0 0 0 0zm-.2.2c-.1 0 0 0 0 0 0 .1-.1.1 0 0-.1.1-.1 0 0 0s-.2-.1-.1-.2c0 .2.2-.2.3-.2 0 .1-.2.5 0 .3-.1.1-.2.1-.2.1zm.1 0c-.1 0-.1 0 0 0-.1 0-.1 0 0 0zm-.2-.1zm-.2-.4s-.1.1 0 0h-.2.2c0 .1 0-.2.2-.2-.2.1.2.1.3.1-.1.1-.6 0-.3.1-.1.2-.2.1-.2 0zm0 .1zm-.1-.2c.1 0 .1 0 0 0 .1 0 .1 0 0 0zm.3-.2zm0 0c.1 0 0 0 0 0-.1-.1-.1-.1-.1-.2.1.1.1.1.1.2 0 0 .2-.1.2.1-.2-.1.1.2 0 .3-.1 0-.3-.4-.3-.2l.1-.2zm.1-.1zm.2.1s.1 0 0 0v.2c0-.1-.1-.2 0-.2-.1 0 0 0 0 0zm.3 0s0-.1 0 0c0-.1.1-.1 0 0 .1-.1.1-.1 0 0-.1 0 .2.1.1.2 0-.2-.2.2-.3.2 0-.1.2-.5 0-.3 0-.1.1-.2.2-.1zm-.1-.1zm.2.1zm-.1.2s-.1 0-.2.1c.1-.1.2-.2.2-.1 0-.1 0 0 0 0zm-.6 0c.1 0 .1.1.2.1-.1 0-.2-.1-.2-.1zm-.1.2c.1 0 .2 0 .3-.1-.1.1-.2.2-.3.1.2.1.1.1 0 0zm.7.1c-.1 0-.1-.1-.2-.1.1 0 .2.1.2.1.1-.1 0 0 0 0zm-1-.3c.1 0 .2-.1.3 0-.1 0-.4.1-.4.2-.1.1.3.2.4.2-.1 0-.3-.1-.4 0l-.1-.1s0-.1.1-.1c0-.2.1-.2.1-.2zm1.4.3c-.1 0-.2.1-.3 0 .1 0 .4-.1.4-.2.1-.1-.3-.2-.4-.2.1 0 .3.1.4 0l.1.1s0 .1-.1.1c0 .2 0 .2-.1.2zm.2-.2s.1 0 0 0c.1 0 .1 0 0 0 .1 0 .1.1 0 0 .1.1 0 0 0 0zm.1-.2v.2-.2c0 .1 0 .1 0 0zm0 .2zm0-.3v.2s-.1 0-.1.1c0 0 0-.1-.1-.1.2-.1-.1-.4-.1-.1 0-.1.2-.1.3-.1zm-.2-.2c.1.1-.1.2-.2.1.2.1.1-.3-.1-.2 0 0 0-.1-.1-.1h.1c.2.1.3.2.3.2zm-.1-.2zm-.3-.2c.1.1.1.1 0 0 0 .1 0 .1 0 0zm-.2.1c.1 0 .2.1.2.1v.1h-.1c0-.2-.4-.1-.2 0-.1 0-.1-.2.1-.2zm-.5.1c.1-.2.5 0 .3.1.1-.2-.3-.3-.3-.1 0 .1 0 .1 0 0-.1.1-.1 0 0 0-.1 0-.1 0 0 0zm0-.2c-.1.1-.1.1-.2.1.1 0 .1 0 .2-.1zm-.4.2h.2-.2zm-.1.2c0-.1.1-.1.2-.2h.1s0 .1-.1.1c-.2-.2-.3.2-.2.1.1.2-.1.1 0 0zm-.1.4c-.1-.2.2-.4.3-.1-.1-.2-.4.1-.1.1H50c0 .1 0 0 0 0zm-.1.1s.1 0 0 0zm0-.2s0 .1 0 0c.1.1.1.1.1.2-.1-.1-.1-.1-.1-.2zm0 .4v-.2.2zm0-.1c.1 0 0 0 0 0zm.1.3v-.2s.1 0 .1-.1c0 0 0 .1.1.1-.2.1.1.4.1.1-.1.1-.3.2-.3.1zm.1.2c-.1-.1.1-.2.2-.1-.2-.1-.1.3.1.2 0 0 0 .1.1.1h-.1c-.1-.1-.2-.1-.3-.2zm.1.2c.1.1 0 0 0 0zm.4.2c-.1-.1-.1-.1 0 0-.1-.1-.1 0 0 0zm.2 0c-.1 0-.2-.1-.2-.1v-.1h.1c0 .2.4.1.2 0 .1 0 0 .2-.1.2zm.5-.1c-.1.2-.5 0-.3-.1-.2.1.3.2.3.1-.1-.1 0-.1 0 0 0-.1 0 0 0 0zm0 .1c.1-.1.1-.1.2-.1-.1 0-.2.1-.2.1zm.3-.2h-.2.2zm.1-.2c0 .1-.1.1-.2.2h-.1s0-.1.1-.1c.2.2.3-.2.2-.1-.1-.2.1-.1 0 0zm.2-.4c.1.2-.2.4-.3.1.1.2.4-.1.1-.1.1-.1.1-.1.2 0-.1-.1 0-.1 0 0 0-.1 0-.1 0 0zm0-.1zm0 .1s0-.1 0 0c-.1-.1-.1-.1-.1-.2.1.1.1.2.1.2zM68.2 12.4h-.1c.1-.1.4.1.4-.1-.2-.2-.9.3-.6-.2-.2-.6.4.1.6-.2 0-.1-.3.1-.4-.1.2 0 .6 0 .4-.2-.1-.1-.2.2-.1.2-.3.1-.6 0-.9-.2.1.1.8.2.5 0-.1.1-.3 0-.3-.1.4.1.7 0 .7-.5-.4-.2-.5 0-.7.3-.1-.1-.1-.3.1-.3-.1-.4-.2.3-.2.4-.1-.3 0-.6.3-.7-.2.2.1.3.1.2-.1-.2-.3.1-.4.2-.1-.2.2-.3.2-.3-.3.1-.1.9-.5.5-.6-.1.2-.3.2-.6-.1-.1-.1.3-.2.3 0-.1.1-.5-.1-.5-.2.1.1.3.1.1 0 .3-.3.5-.6.6.1-.1.6-.5.3-.4-.1.1-.2.2-.3.2.2-.3.3-.6-.1-.8-.3.3-.2.5 0 .8-.2.1-.3-.1-.3-.2-.4-.1.2.3.3.4-.3-.1-.6-.3-.6-.6.1.2.3-.1.1-.1-.3-.1-.1.3-.1.5-.2-.1-.2-.3-.2-.3-.1.3.7.6.2.6-.4.5-.2-.3-.5-.5-.1.1.2.2.2.3-.1-.1-.3-.4-.5-.1 0 .2.2.1.2-.1.2.2.3.5.3.7 0-.1-.2-.8-.2-.4.1.1.2.2.1.3-.2-.3-.3-.5-.7-.4-.1.5.3.5.7.5-.1.2-.2.2-.3.1-.3.2.4.1.5 0-.2.2-.6.3-.9.2.2 0 .1-.2-.1-.1-.2.2.2.3.4.2-.2.1-.5-.1-.5.1.2.2.9-.3.6.2.2.6-.4-.1-.6.2 0 .1.3-.1.4.1-.2 0-.6 0-.4.2.1.1.2-.2.1-.2.3-.1.6 0 .9.2-.1-.1-.8-.2-.5 0 .1-.1.3 0 .3.1-.4-.1-.7 0-.7.5.4.2.5-.1.7-.4.1.1.1.3-.1.3.1.4.2-.3.2-.4.1.3 0 .6-.3.7.1-.1-.2-.2-.2-.1.1.2.3-.1.4-.2.1.2-.2.3-.2.3.3-.1.1-.9.5-.5.6.1-.2.3-.2.6.1.1.1-.3.2-.3-.1.1-.2.5.1.5.2-.1-.1-.3-.1-.1 0-.3.3-.5.6-.6-.1.1-.6.5-.3.4.1-.1.2-.3.3-.2-.2.3-.3.6.1.8.3-.3.2-.5 0-.8.2-.1.3.1.3.2.4.1-.2-.3-.3-.4.3.1.6.3.6.6-.1-.2-.3.1-.1.1.3.1.1-.3.1-.5.2.1.2.3.2.3.1-.3-.7-.6-.2-.6.4-.5.2.3.5.5.1-.1-.2-.2-.2-.3.1.2.3.5.4.2 0-.2-.2-.1-.2.1-.2-.2-.3-.5-.3-.7 0 .1.2.8.2.4-.1-.1-.2-.2-.1-.3.2.3.3.5.7.4.1-.5-.3-.5-.7-.5.1-.2.2-.2.3-.1.3-.2-.4-.1-.5 0 .3-.3.6-.5 1-.4-.2.1-.2.3 0 .2.4-.1.1-.2 0-.2zm.2-.6c-.1-.1.1-.1 0 0 .1 0 0 0 0 0zm-.4 0c.2-.1.1 0 0 0s-.1 0 0 0zm-.2-1c.1 0 .1.1 0 0 0 .1 0 0 0 0zm-.7-.4c-.1 0-.1-.1 0 0zm-.3.3c.1-.1.2 0 0 0 0 .1 0 .1 0 0zm-.6 0c-.1-.1 0 0 0 0 0 .1 0 .1 0 0zm-.3-.3c0-.1.1 0 0 0 .1.1 0 0 0 0zm-.7.5s-.1 0 0 0c0-.1 0 0 0 0zm-.1.9c-.2 0 0-.1 0 0zm-.5 0s.1-.1 0 0c.1 0 .1 0 0 0zm.1.8s-.1.1 0 0c-.1 0 0 0 0 0zm.4 0c-.3 0-.1 0 0 0zm.1 1c-.1 0-.1-.1 0 0 0-.1 0 0 0 0zm.8.3s0 .1 0 0c-.1.1-.1.1 0 0zm.2-.3c0 .2-.1.1 0 0zm.7 0c.1.2-.1.1 0 0-.1 0 0 0 0 0zm.2.4c0-.1 0-.1 0 0zm.7-.5c0-.1.1 0 0 0 0 .1 0 .1 0 0zm.2-.9c.2 0 0 0 0 0-.1 0 0 0 0 0zm-.2-.7c-.1 0-.1.2-.1.2-.1-.1-.2-.2-.2-.3 0 0 0-.1.1-.1 0 .1.1.1.2.2zm-.5-.1.2-.1c-.1.1-.1.2-.2.3v-.2zm-.1.1c-.2 0-.3.1-.4.1l.4-.2v.1zm0 .7-.4-.2c.1.1.3.1.4.1v.1zm-1.4 0v-.1c.2 0 .3-.1.4-.1l-.4.2zm0-.8.4.2c-.1-.1-.3-.1-.4-.1v-.1zm1.4 0c-.1-.1-.1-.1-.2-.1h.4l-.2.1zm-.1-.1c.1 0 .1.1.1.1l-.4.2.3-.3zm-.5-.3c.1 0 .1.1.1.1-.1.1-.1.3-.1.4v-.5zm0 0v-.2c.1.1.2.2.2.3-.1-.1-.2-.1-.2-.1zm-.1 0c-.1 0-.1.1-.2.1.1-.1.1-.2.2-.3v.2zm0 0v.5c-.1-.1-.1-.3-.1-.4 0 0 0-.1.1-.1zm-.6.4c.1 0 .1-.1.1-.1l.3.3-.4-.2zm-.1 0-.2-.1h.4c-.1 0-.1 0-.2.1zm0 0v.2c-.1-.1-.2-.2-.2-.3l.2.1zm0 .3s0-.1 0 0c.3 0 .5.1.7.1-.2.1-.5.2-.6.2 0-.2-.2.1-.2.2-.1-.1-.1-.3-.3-.3l.3-.3.1.1zm0 .2v.2l-.2.1s.1-.1.2-.3zm0 .3c.1.1.1.1.2.1h-.4l.2-.1zm.2 0c0 .1 0 .1 0 0-.1 0-.1-.1-.1-.1l.4-.2c-.1.2-.3.3-.3.3zm.5.3c-.1 0-.1-.1-.1-.1.1-.1.1-.3.1-.4v.5zm0 .1v.2c-.1-.1-.2-.2-.2-.3.1 0 .1.1.2.1zm.1 0c.1 0 .1-.1.2-.1-.1.1-.1.2-.2.3V13zm0-.1v-.5c.1.1.1.3.1.4l-.1.1zm.6-.3c-.1 0-.1.1-.1.1l-.3-.3.4.2zm0 0 .2.1H67c.1 0 .2-.1.2-.1zm.1 0v-.2c.1.1.2.2.2.3l-.2-.1zm0-.3c-.1-.1-.1 0 0 0-.3 0-.5-.1-.7-.1.2-.1.5-.2.6-.2 0 .2.2-.1.2-.2.1.1.1.3.3.3l-.3.3c0 .1 0-.1-.1-.1zm.5-.6c-.1 0-.1-.1-.2-.1l.1-.1c0 .1 0 .2.1.2zm.2-.6c.1.1.3.1.4.1-.1.1-.1.2-.1.3h-.5c.6-.3.6-.4 0-.1.1 0 .1-.2.2-.3zm-.3 0c.1-.1 0 0 0 0 0 .1 0 .1 0 0zm-.1.3c0 .1.1.1.1.1l-.1.1v-.2zm-.3-.1c.1 0 .1 0 .1-.1v.3h-.1c-.1-.1-.2-.2-.2-.3.1.1.1.1.2.1zm0 .3c-.1 0-.5 0-.3.1-.1.2-.3.3-.5.5 0-.2.1-.4.2-.6.2.1 0-.2-.1-.3.2 0 .3 0 .5-.1 0 .1.1.3.2.4zm-.4-.6c0 .1.1.2.2.2-.1.1-.3.1-.5 0l-.1-.1c.2 0 .3-.1.4-.1zm-.2-.1-.1.1v-.1h.1zm-.4-.5.3-.3.3.3c-.1.1-.2.2-.2.3 0-.7-.1-.7-.1 0-.2 0-.3-.2-.3-.3zm.1.5h.1v.1c-.1 0-.1 0-.1-.1zm-.3.2.1-.1c.1.1.2.1.3.2l-.1.1h-.5c.1-.2.2-.2.2-.2zm-.2.1c.1.1.3.1.5.1-.1.1-.2.4-.1.3.1.2.2.4.2.6-.2-.1-.3-.3-.5-.5.2-.1-.2-.1-.3-.1.1-.1.2-.3.2-.4zm-.3.1c.1.1.2.1.2-.1 0 .1-.1.2-.2.3h-.1c.1 0 .1-.1.1-.2zm-.2-.1c-.2-.2 0-.1 0 0zm.1.2c0 .1 0 .1.1.2l-.1-.1c-.1 0 0 0 0-.1zm-.7.1c-.1-.1-.1-.2-.1-.3.1 0 .3-.1.4-.1.1.1.1.3.2.4-.6-.3-.6-.3 0 .1-.2-.1-.4-.1-.5-.1zm.5.1.1.1c-.1 0-.1 0-.2.1.1-.1.1-.2.1-.2zm-.1.3c.1-.1.2-.1.3-.2 0 0 0 .1.1.1-.1.1-.1.2-.2.3-.1 0-.1-.2-.2-.2zm0 .6c.1 0 .1-.2.1-.2.1.1.2.2.2.3 0 0 0 .1-.1.1 0-.1-.1-.2-.2-.2zm.1.2c.1 0 .1.1.2.1l-.1.1c-.1-.1-.1-.1-.1-.2zm-.2.6c-.1-.1-.3-.1-.4-.1.1-.1.1-.2.1-.3h.5c-.6.3-.6.4 0 .1-.1 0-.2.2-.2.3zm.3-.1c-.1.2-.1 0 0 0zm.1-.3c0-.1-.1-.1-.1-.1l.1-.1v.2zm.3.2c-.1 0-.1 0-.1.1v-.3h.1c.1.1.2.2.2.3l-.2-.1zm-.1-.3c.1 0 .5 0 .3-.1.1-.2.3-.3.5-.5 0 .2-.1.4-.2.6-.2-.1 0 .2.1.3-.2 0-.3 0-.5.1 0-.2-.1-.3-.2-.4zm.5.6c0-.1-.1-.2-.2-.2.1-.1.3-.1.5 0l.1.1c-.3 0-.3 0-.4.1zm.2 0 .1-.1v.1h-.1zm.4.6-.3.3-.3-.3c.1-.1.2-.2.2-.3 0 .7.1.7.1 0 .1 0 .2.1.3.3zm-.1-.6h-.1v-.1c0 .1 0 .1.1.1zm.3-.1-.1.1c-.1-.1-.2-.1-.3-.2l.1-.1h.5c-.2.1-.2.2-.2.2zm.1-.1c-.1-.1-.3-.1-.5-.1.1-.1.2-.4.1-.3-.1-.2-.2-.4-.2-.6.2.1.3.3.5.5-.2.1.2.1.3.1-.1.1-.2.2-.2.4zm.3-.1c-.1-.1-.2-.1-.2.1 0-.1.1-.2.2-.3h.1c-.1 0-.1.1-.1.2zm.3.1c.1.1 0 .1 0 0zm-.1-.3c0-.1 0-.1-.1-.2l.1.1c.1.1 0 .1 0 .1zm.7 0c.1.1.1.2.1.3-.1 0-.3.1-.4.1-.1-.1-.1-.3-.2-.4.6.3.6.3 0-.1.1.1.3.1.5.1zm-.6-.1-.1-.1c.1 0 .1 0 .2-.1l-.1.2zm-.2-.1s0-.1 0 0c0-.2.1-.3.2-.4-.1.1 0 .2.1.2-.1 0-.2.1-.3.2zm1-.1c0 .1-.2 0 0 0-.1 0 0 0 0 0zM55.6 18.9c-.3-.1-.2-.4-.3-.7.3.1.3 0 0-.1.3-.1.4-.1 0-.1 0-.3.1-.6.3-.7-.3.1-.3.3-.4.6 0-.2 0-.4-.3-.4.1-.2-.1-.3-.3-.4.3 0 .5.2.7 0-.2.1-.5 0-.8-.1.1 0 .2-.2.1-.2 0 .1-.1.1-.2.2 0-.1 0-.2.1-.2 0-.1-.1.1-.1.2-.2-.2-.5-.4-.5-.6-.1.3.2.4.3.6-.2-.1-.4-.2-.5 0-.1-.2-.4-.1-.5 0 .1-.2.4-.3.3-.6 0 .2-.3.4-.5.6 0-.1-.1-.3-.1-.2.1.1.1.1.1.2-.1 0-.1-.1-.2-.2-.1 0 0 .2.1.2-.3.1-.6.2-.8.1.2.2.4 0 .7 0-.2.1-.4.2-.3.4-.2 0-.3.3-.3.4-.1-.2-.1-.5-.4-.6.1.1.2.4.3.7-.3-.1-.3 0 0 .1-.3.1-.4.1 0 .1 0 .3-.1.6-.3.7.3-.1.3-.3.4-.6 0 .2 0 .4.3.4-.1.2.1.3.3.4-.3 0-.5-.2-.7 0 .2-.1.5 0 .8.1-.1 0-.2.2-.1.2 0-.1.1-.1.2-.2 0 .1 0 .2-.1.2 0 .1.1-.1.1-.2.2.2.5.4.5.6.1-.3-.2-.4-.3-.6.2.1.4.2.5 0 .1.2.4.1.5 0-.1.2-.4.3-.3.6 0-.2.3-.4.5-.6 0 .1.1.3.1.2-.1-.1-.1-.1-.1-.2.1 0 .1.1.2.2.1 0 0-.2-.1-.2.3-.1.6-.2.8-.1-.2-.2-.4 0-.7 0 .2-.1.4-.2.3-.4.2 0 .3-.3.3-.4.1.2.1.7.4.6zm-.7-.4c-.1-.1-.3.1-.2.2-.5.1.2.4-.1.1.1 0 .2.2.1.2-.3.1-.2-.4-.4-.6.2.2.7-.2.6.1.1.1-.1.2 0 0 0 .2.1.1 0 0zm-.3.8s-.1 0 0 0c-.1 0-.1 0 0 0-.1 0 0 0 0 0zm-.2 0s0 .1 0 0c0 .1 0 .1 0 0 0 .1 0 .1 0 0zm0 0c.1 0 .1 0 0 0 .1 0 .1 0 0 0 .1 0 0 0 0 0zm-.2-.1c-.1-.2-.3-.3-.4-.5.1.1.5.4.5.3.1.1 0-.4 0-.5.1.1.1.4.2.5 0 .1-.1.1-.1.2h-.2zm-.1.1c.3 0-.1-.4-.2-.1-.3-.4-.3.4-.1 0 .1.1-.1.2-.2.2-.2-.2.3-.4.3-.6 0 .2.4.4.2.5 0 .2-.1 0 0 0-.1 0-.1 0 0 0zm-.8.1s0-.1 0 0zm-.1-.1s-.1 0 0 0c-.1 0-.1 0 0 0zm0-.1c0 .1 0 .1 0 0 .1.1.1.1 0 0 .1.1 0 .1 0 0 0 .1 0 .1 0 0zm.1 0c0-.1-.1-.1-.1-.2.1-.2.1-.4.2-.5 0 .1-.2.6 0 .5 0 .2.4-.2.5-.3 0 .2-.3.3-.4.5h-.2zM53 19c.2 0 0-.3-.1-.3.2-.5-.5-.1-.1-.1 0 .1-.2.1-.2-.1.1-.3.5 0 .7-.1-.1.2 0 .7-.3.6-.2 0-.1-.2 0 0-.1-.1-.1 0 0 0zm-.4-.8s-.1 0 0 0c-.1 0 0 0 0 0zm.1-.3c.1.1.3-.1.2-.2.5-.1-.2-.4.1-.1-.1 0-.2-.2-.1-.2.3-.1.2.4.4.6-.1-.2-.6.2-.6-.1-.1-.1.1-.2 0 0 .1-.2 0-.1 0 0zm.4-.7s.1 0 0 0c.1 0 .1 0 0 0zm.2 0c0-.1 0-.1 0 0 0-.1 0-.1 0 0 0-.1 0-.1 0 0zm0 0c-.1 0-.1 0 0 0-.1 0-.1 0 0 0-.1 0 0 0 0 0zm.2.1c.1.2.3.3.4.5-.1-.1-.5-.4-.5-.3-.1-.1 0 .4 0 .5-.1-.1-.1-.4-.2-.5 0-.1.1-.1.1-.2h.2zm.2-.2c-.3 0 .1.4.2.1.3.4.3-.4.1 0-.1-.1.1-.2.2-.2.2.2-.3.4-.3.6 0-.2-.5-.4-.2-.5 0-.1.1 0 0 0 .1.1.1.1 0 0zm.7 0zm.1.1s.1 0 0 0c.1 0 0 0 0 0zm0 0c-.1 0-.1 0 0 0-.1 0 0 0 0 0zm-.1.1c0 .1.1.1.1.2-.1.2-.1.4-.2.5 0-.1.2-.6 0-.5 0-.2-.4.2-.5.3 0-.2.3-.3.4-.5h.2zm.3.2c-.2 0 0 .3.1.3-.2.5.5.1.1.1 0-.1.2-.1.2.1-.1.3-.5 0-.7.1.1-.3 0-.7.3-.6.2 0 .1.2 0 0 .1.1.1 0 0 0zm-.2.7s.1-.1 0 0h.2-.2c0-.1 0 .3-.2.2.3-.1-.3-.1-.5-.2.1-.1.8-.1.5-.2.1 0 .2.1.2.2zm0-.2s.1.1 0 0c.1.1 0 .1 0 0zm.1.3s-.1 0 0 0c-.1 0 0 0 0 0zm-.3.4c0 .1 0 .1 0 0 0 .1 0 0 0 0zm-.1.1c.1.1.1.1.1.2 0 0-.1-.1-.1-.2s-.3.1-.4-.1c.3.2-.1-.3-.1-.5.2.1.4.6.4.3.2.1.2.2.1.3zm-.1.1zm-.2-.3v-.3c0 .2.1.3 0 .3zm-.4.2-.2.2v-.2c.2 0-.1-.2.1-.3 0 .3.3-.2.4-.3 0 .2-.3.7-.1.5.1.1-.1.2-.2.1zm.2.1s-.1 0 0 0c-.1 0-.1 0 0 0zm-.3-.2s0 .1 0 0c0 .1 0 0 0 0zm-.3-.5s0 .1 0 0h-.2.2c0 .1 0-.3.2-.2-.3.1.3.1.5.2-.1.1-.8.1-.5.2l-.2-.2zm.1.2c-.1-.1-.1-.1 0 0-.1-.1-.1-.1 0 0zm-.1-.3s0-.1 0 0zm.3-.4zm.1 0c-.1-.1-.1-.1-.1-.2 0 0 .1.1.1.2s.3-.1.4.1c-.3-.2.1.2.1.4-.2-.1-.4-.6-.4-.3-.2-.1-.2-.2-.1-.2zm.1-.1c.1 0 .1 0 0 0zm.3.2v.3c0-.2-.1-.3 0-.3-.1-.1 0 0 0 0zm.3-.1.2-.2v.2c-.2 0 .1.2-.1.3 0-.3-.3.2-.4.3 0-.2.3-.7.1-.5 0-.1.1-.2.2-.1zm-.1-.1zm.2.1zm-.1.3s.1.1.2.1c-.2 0-.3 0-.5.1.2-.1.2-.2.3-.2zm-.7 0v-.2l.3.3c-.1-.1-.3-.1-.5-.1h.2zm-.2.3c.2 0 .3 0 .5-.1l-.3.3c0-.1 0-.1-.2-.2zm.9.1v.2l-.3-.3c.1.1.3.1.5.1h-.2zm-1.3-.4c.1 0 .3-.1.4-.1-.1 0-.6.2-.5.3-.1.1.4.2.5.3-.2.1-.4-.1-.6-.1 0-.1-.1-.1-.1-.2s.1-.1.1-.2h.2zm1.9.4c-.1 0-.3.1-.4.1.1 0 .6-.2.5-.3.1-.1-.4-.2-.5-.3.2-.1.4.1.6.1 0 .1.1.1.1.2s-.1.1-.1.2h-.2zm.3-.2zm.2-.3c0 .1 0 .2-.1.2l.1-.2c-.1.1 0 .1 0 0zm-.1.3c0-.1-.1-.1 0 0-.1-.1-.1-.1 0 0 0-.1 0-.1 0 0zm-.1-.5c.1.1 0 .2 0 .3l-.1.1s0-.1-.1-.1c.3-.1-.1-.5-.2-.2 0-.1.3-.2.4-.1zm-.2-.2c.1.2-.1.3-.3.2.3.1.2-.5-.1-.2 0 0 0-.1-.1-.1 0 0 .1 0 .1-.1.2 0 .3.1.4.2zm-.1-.3h-.2l-.1-.1c.1 0 .2.1.3.1zm-.5-.3c.1 0 .1.1.2.2h-.1c0-.1-.1-.1-.1-.2zm-.2.1c.1 0 .2.1.3.1v.1h-.1c.1-.3-.5-.2-.3.1-.2-.1-.1-.3.1-.3zm-.7.1c.2-.2.7-.1.4.2.2-.2-.3-.4-.4-.2-.1.1 0 0 0 0zm0-.2s-.1.1-.1.2h-.1l.2-.2zm-.5.3c.1 0 .1-.1.2-.1l-.2.1c.1 0 .1 0 0 0zm-.1.3c.1-.1.2-.1.3-.2 0 0 .1 0 .1.1l-.1.1c-.3-.2-.4.3-.1.2-.1 0-.3-.1-.2-.2zm-.3.5c-.1-.3.3-.6.4-.2-.1-.3-.5.1-.2.2 0 0 0 .1-.2 0 .1.1.1.1 0 0zm0 .1s.1 0 0 0zm-.1-.2c0 .1.1.1 0 0l.1.2c-.1 0-.1-.1-.1-.2zm0 .6c0-.1 0-.2.1-.2l-.1.2c.1-.1 0-.1 0 0zm.1-.3c0 .1 0 .1 0 0 .1.1 0 .1 0 0 0 .1 0 .1 0 0zm.1.5c-.1-.1 0-.2 0-.3l.1-.1s0 .1.1.1c-.3.1.1.5.2.2 0 .2-.3.3-.4.1zm.2.3c-.1-.2.1-.3.3-.2-.3-.1-.2.5.1.2 0 0 0 .1.1.1 0 0-.1 0-.1.1-.2 0-.3-.1-.4-.2zm.1.3h.2l.1.1c-.2 0-.2-.1-.3-.1zm.5.3c-.1 0-.1-.1-.2-.2h.1c0 .1.1.1.1.2zm.3-.1c-.1 0-.2-.1-.3-.1v-.1h.1c-.1.3.5.2.3-.1.1.1.1.3-.1.3zm.6-.1c-.2.2-.7.1-.4-.2-.1.2.3.4.4.2 0-.1 0 0 0 0zm0 .2s.1-.1.1-.2h.1c-.1.1-.2.1-.2.2zm.5-.3c-.1 0-.1.1-.2.1l.2-.1c-.1 0-.1 0 0 0zm.1-.3c-.1.1-.2.1-.3.2 0 0-.1 0-.1-.1l.1-.1c.3.2.4-.3.1-.2.1-.1.3.1.2.2zm.2-.6c.1.3-.3.6-.4.2.1.3.5-.1.2-.2 0 0 0-.1.2 0-.1-.1 0-.1 0 0zm.1-.1c-.1 0-.1 0 0 0-.1 0 0 0 0 0zm.1.2c0-.1-.1-.1 0 0l-.1-.2c.1 0 .1.1.1.2zM23.2 61.8c-.3-.1-.2-.4-.3-.6.3.1.2 0 0-.1.2-.1.3-.1 0-.1 0-.2.1-.5.2-.6-.3.1-.2.3-.3.5 0-.2 0-.4-.2-.4.1-.2-.1-.3-.2-.4.2 0 .4.2.6 0-.2.1-.4 0-.7-.1.2-.2.1-.2 0 0 .1-.2 0-.3 0 0-.2-.1-.4-.4-.4-.5-.1.3.2.3.3.5-.1-.1-.4-.2-.4 0-.1-.2-.3-.1-.4 0 .1-.2.4-.2.3-.5 0 .2-.2.4-.4.5-.1-.3-.1-.2 0 0-.2-.2-.3-.2 0 0-.2.1-.5.2-.7.1.2.2.4 0 .6 0-.1.1-.3.2-.2.4-.2 0-.2.2-.2.4-.1-.2-.1-.4-.3-.5.1.1.2.4.2.6-.3-.1-.2 0 0 .1-.2.1-.3.1 0 .1 0 .2-.1.5-.2.6.3-.1.2-.3.3-.5 0 .2 0 .4.2.4-.1.2.1.3.2.4-.2 0-.4-.2-.6 0 .2-.1.4 0 .7.1-.2.2-.1.2 0 0-.1.2 0 .3 0 0 .2.1.4.4.4.5.1-.3-.2-.3-.3-.5.1.1.4.2.4 0 .1.2.3.1.4 0-.1.2-.4.2-.3.5 0-.2.2-.4.4-.5.1.3.1.2 0 0 .2.2.3.2 0 0 .2-.1.5-.2.7-.1-.2-.2-.4 0-.6 0 .1-.1.3-.2.2-.4.2 0 .2-.2.2-.4.1.3.2.6.4.5zm-.5-.2c-.1-.1-.2.1-.1.2-.5 0 .1.4-.1.1.1 0 .1.1.1.2-.3.1-.2-.4-.4-.5.1 0 .5-.2.5 0 .1.1-.1.2 0 0-.1.1 0 .1 0 0zm-.4.5c0 .1 0 .1 0 0 0 .1 0 0 0 0zm-.1.1zm0 0s0-.1 0 0c0-.1.1-.1 0 0 .1-.1.1 0 0 0zm-.2-.1c-.1-.2-.3-.2-.3-.4.1.1.4.4.3.4.2 0 .1-.5.1-.6.1.1.1.3.2.4 0 .1-.1.1-.1.2H22zm-.2.1c.3 0-.1-.3 0 0-.4-.5-.4.2-.2-.1.1.1-.1.2-.1.1-.2-.2.2-.4.3-.5 0 .2.5.4.3.5-.3.1-.4 0-.3 0zm-.6 0c-.1 0-.1 0 0 0-.1 0-.1 0 0 0zm-.2-.1s0 .1 0 0c0 .1 0 .1 0 0zm.1 0s0 .1 0 0c0 .1 0 .1 0 0 0 .1 0 0 0 0zm0 0c0-.1-.1-.1-.1-.2.1-.1.1-.3.2-.4 0 .2-.1.5-.1.6.1 0 .5-.3.5-.4 0 .2-.2.2-.3.4h-.2zm-.1-.2c.2 0 0-.3-.1-.2.2-.4-.4-.1 0-.1 0 .1-.2 0-.2 0 .1-.3.4 0 .6-.1-.3.2-.2.5-.3.4-.2 0-.1-.1 0 0-.1-.1-.1 0 0 0zm-.3-.6s-.1 0 0 0c-.1 0-.1 0 0 0-.1 0-.1 0 0 0-.1 0 0 0 0 0zm.1-.3c.1.1.2-.1.1-.2.5 0-.1-.4.1-.1-.1 0-.1-.1-.1-.2.3-.1.2.4.4.5-.3 0-.5.3-.5 0-.1-.1.1-.2 0 0 0-.1-.1 0 0 0zm.2-.6zm.2-.1c-.1 0-.1 0 0 0-.1 0-.1 0 0 0zm-.1.1c0-.1 0 0 0 0zm.2 0c.1.2.3.2.3.4-.1-.1-.4-.4-.3-.4-.2 0-.1.5-.1.6-.1-.1-.1-.3-.2-.4 0-.1.1-.1.1-.2h.2zm.2-.1c-.3 0 .1.3 0 0 .4.5.4-.2.2.1-.1-.1.1-.2.1-.1.2.2-.2.4-.3.5 0-.2-.5-.4-.3-.5.3-.1.4 0 .3 0 .1.1 0 0 0 0zm.7 0zm.1.1zm0 0s-.1 0 0 0c-.1 0-.1 0 0 0-.1 0-.1-.1 0 0zm-.1 0c0 .1.1.1.1.2-.1.1-.1.3-.2.4 0-.1.1-.5.1-.6-.1 0-.5.3-.5.4 0-.2.2-.2.3-.4h.2zm.2.2c-.2 0 0 .3.1.2-.2.4.4.1 0 .1 0-.1.2 0 .2 0-.1.3-.4 0-.6.1.2 0 .1-.5.3-.4.2 0 .1.1 0 0 .1.1.1 0 0 0zm-.1.7s.1 0 0 0h.2s-.1.1-.2 0c0-.1 0 .2-.2.2.3-.1-.3-.1-.4-.2.1-.1.7-.1.4-.2.1 0 .2.1.2.2zm0-.1zm.1.2c-.1 0-.1 0 0 0-.1 0-.1 0 0 0zm-.3.4zm-.1 0s.1 0 0 0c.1.1.1.1.1.2l-.1-.2c.1-.1-.2.1-.2-.1.2.2-.1-.3 0-.4.1 0 .4.5.3.2 0 .2 0 .3-.1.3zm-.1 0zm-.2-.1v-.3c0 .1.1.3 0 .3zm-.3.1c-.1 0 0 0 0 0 0 .1-.1.1-.1.2l.1-.2c.1.1-.2 0-.1-.2 0 .3.2-.2.3-.2 0 .1-.3.6 0 .4h-.2zm.1 0s-.1 0 0 0c-.1 0 0 0 0 0zm-.3 0zm-.2-.5s0 .1 0 0h-.2.2c0 .1 0-.2.2-.2-.3.1.3.1.4.2-.1.1-.7.1-.4.2-.1 0-.2-.1-.2-.2zm0 .2c0-.1 0-.1 0 0 0-.1 0-.1 0 0zm0-.3zm.2-.4c0 .1 0 .1 0 0zm.1 0c-.1-.1-.1-.1-.1-.2l.1.2c-.1.1.2-.1.2.1-.2-.2.1.3 0 .4-.1 0-.4-.5-.3-.2 0-.2 0-.3.1-.3zm.1-.1s.1 0 0 0c.1 0 0 0 0 0zm.3.2v.3c0-.1-.1-.3 0-.3-.1 0-.1 0 0 0zm.3-.1s0-.1 0 0c0-.1.1-.1.1-.2l-.1.2c-.1-.1.2 0 .1.2 0-.3-.2.2-.3.2 0-.1.3-.6 0-.4 0 0 .1-.1.2 0zm-.2-.1c.1 0 .1 0 0 0 .1 0 .1 0 0 0zm.3.2c0-.1 0-.1 0 0 0-.1 0-.1 0 0zm-.1.2s.1 0 0 0c0 .1-.2.1-.3.2.1-.1.2-.2.3-.2 0-.1 0 0 0 0zm-.7 0c.1 0 .2.1.3.2-.1 0-.3-.1-.3-.2-.1.1 0 .1 0 0zm-.1.3c.1 0 .3 0 .4-.1l-.3.3c0-.1 0-.1-.1-.2zm.8.1c-.1 0-.2-.1-.3-.2.1 0 .3.1.3.2.1 0 0 0 0 0zm-1.1-.4c.1 0 .3-.1.4 0-.1 0-.5.1-.4.2-.1.1.3.2.4.2-.2 0-.3-.1-.5-.1 0-.1-.1-.1-.1-.2s.1-.1.2-.1c-.1.1 0 .1 0 0zm1.6.4c-.1 0-.3.1-.4 0 .1 0 .5-.1.4-.2.1-.1-.3-.2-.4-.2.2 0 .3.1.5.1 0 .1.1.1.1.2s-.1.1-.2.1c.1 0 0 0 0 0zm.3-.2zm.1-.2s.1 0 0 0c0 .1 0 .1-.1.2l.1-.2c0 .1 0 0 0 0zm0 .2c-.1 0-.1 0 0 0-.1-.1-.1-.1 0 0-.1-.1 0 0 0 0zm-.1-.4c.1.1 0 .2 0 .3l-.1.1s0-.1-.1-.1c.3-.1-.1-.4-.2-.2.1-.2.3-.3.4-.1zm-.2-.3c.1.1-.1.3-.2.2.3.1.2-.4-.1-.2 0 0 0-.1-.1-.1h.1c.2 0 .3 0 .3.1zm-.1-.2h-.2l-.1-.1c.2 0 .3 0 .3.1zm-.4-.3c.1 0 .1.1 0 0 0 .1 0 .1 0 0zm-.3.1c.1 0 .2.1.3.1v.1H22c.1-.3-.4-.2-.2 0-.2 0-.1-.2 0-.2zm-.6.1c.2-.2.6 0 .3.2.2-.2-.3-.3-.2 0h-.1v-.2zm.1-.2c-.1.1-.1.1-.2.1 0 0 .1 0 .2-.1zm-.4.3c.1 0 .1-.1.2-.1-.1 0-.1 0-.2.1.1 0 .1 0 0 0zm-.1.2c.1-.1.2-.1.3-.2h.1s0 .1-.1.1c-.2-.2-.4.3-.1.2-.1.2-.3 0-.2-.1zm-.2.6c-.1-.2.3-.5.3-.2-.1-.3-.4.1-.3.2.1 0 .1 0 0 0 .1 0 0 0 0 0zm0 0c0 .1 0 .1 0 0 0 .1 0 0 0 0zm-.1-.1s0 .1 0 0c.1.1.1.1.1.2-.1-.1-.1-.2-.1-.2zm0 .5c0-.1 0-.1.1-.2l-.1.2c0-.1 0-.1 0 0zm.1-.2zm0 .3c-.1-.1 0-.2 0-.3l.1-.1s0 .1.1.1c-.3.1.1.4.2.2 0 .2-.3.2-.4.1zm.2.2c-.1-.1.1-.3.2-.2-.3-.1-.2.4.1.2 0 0 0 .1.1.1H21c0 .1-.1 0-.2-.1zm.1.3h.2l.1.1c-.2-.1-.2-.1-.3-.1zm.3.2s.1 0 0 0-.1-.1 0 0c0-.1 0 0 0 0zm.3 0c-.1 0-.2-.1-.3-.1v-.1h.1c-.1.3.4.2.2 0 .2-.1.2.2 0 .2zm.6-.1c-.2.2-.6 0-.3-.2-.2.2.3.3.2 0h.1v.2c0-.1 0 0 0 0zm0 .1c.1-.1.1-.1.2-.1-.1 0-.2.1-.2.1zm.4-.2c-.1 0-.1.1-.2.1l.2-.1c-.1 0 0 0 0 0zm.1-.3c-.1.1-.2.1-.3.2h-.1s0-.1.1-.1c.2.2.4-.3.1-.2.1-.1.3 0 .2.1zm.2-.4c.1.2-.3.5-.3.2.1.2.4-.1.3-.2-.1 0-.1-.1 0 0-.1-.1 0-.1 0 0zm0-.1c.1 0 0 0 0 0zm.1.2s0-.1 0 0c-.1-.1-.1-.1-.1-.2.1 0 .1.1.1.2.1 0 0 0 0 0zM43.7 9c-.1 0-.1.1-.2 0 .1-.3-.3-.1-.1 0-.1.1-.1.2-.3.2.1-.1.2-.1.1-.2.1-.1.1-.2.1-.3.1-.1.2 0 .2-.1-.1-.1-.1-.1-.2-.1-.1-.1 0-.2-.1-.3.1-.1 0-.1-.1-.2.1 0 .3.1.3.2-.3.2.1.3.1 0 .1-.1.3.1.5-.1-.1-.1-.3 0-.5 0 0 0 0-.1-.1-.1.3-.1-.1-.3-.3-.2.5-.3.5-.3 0-.1.2-.1.2-.6 0-.3 0 0 0-.1-.1-.1.1-.1.2-.3.2-.4-.2 0-.1.3-.3.3-.3-.2-.3.2 0 .1.1.1.1.2.1.3 0-.1 0-.2-.1-.1 0-.1-.1-.1-.2-.2 0-.1.1-.1 0-.2s-.1.1-.2.1-.2-.1-.3-.1c0-.1-.1-.1-.2 0 .1-.1.2-.1.3-.1 0 .3.4.1.1-.1.3-.5.2-.5-.1 0h-.1c.1-.3-.3-.1-.3.1 0-.5-.1-.5-.1 0 0-.2-.4-.5-.3-.1h-.1c-.3-.5-.4-.5-.1 0-.3.1 0 .4.1.1.1 0 .3.1.3.1-.1-.1-.2-.1-.2 0-.1-.1-.3.1-.3 0s-.1-.1-.2 0 0 .1 0 .2l-.2.2c-.1-.1-.1.1-.1.1-.1.1-.1 0 0-.1.3.1.3-.3 0-.1-.1-.1-.1-.3-.3-.3 0 .1.2.3.2.4l-.1.1c-.3-.3-.2.3 0 .3-.5-.3-.5-.3 0 0-.2-.1-.6.1-.3.2 0 0 0 .1-.1.1h-.5c.1.1.3 0 .5.1-.1.3.3.1.1 0 .1-.1.1-.2.3-.2-.1.1-.2.1-.1.2-.1.1-.1.2-.1.3-.1.1-.2 0-.2.1.1.1.1.1.2.1s0 .2.1.3c-.1.1 0 .1.1.2-.1 0-.3-.1-.3-.2.3-.2-.1-.3-.1 0 .2.1 0-.1-.1.1.1.1.3 0 .5 0 0 0 0 .1.1.1-.3 0 .1.2.3.1-.5.3-.5.3 0 .1-.2.1-.2.6 0 .3 0 0 0 .1.1.1-.1.1-.2.3-.2.4.2 0 .1-.3.3-.3.3.2.3-.2 0-.1-.1-.1-.1-.3-.1-.4 0 .1 0 .2.1.1 0 .1.1.1.2.2 0 .1-.1.1 0 .2s.1-.1.2-.1.2.1.3.1c0 .1.1.1.2 0-.1.1-.2.1-.3.1 0-.3-.4-.1-.1.1-.3.5-.2.5.1 0h.1c-.1.3.3.1.3-.1 0 .5.1.5.1 0 0 .2.4.5.3.1h.1c.3.5.4.5.1 0 .3-.1 0-.4-.1-.1-.1 0-.3-.1-.3-.1.1.1.2.1.2 0 .1.1.3-.1.3 0s.1.1.2 0 0-.1 0-.2l.2-.2c.1.1.1-.1.1-.1.1.1.1.3-.1.3-.3-.1-.3.3 0 .1.1.1.1.3.3.3 0-.1-.2-.3-.2-.4l.1-.1c.3.3.2-.3 0-.3.5.3.5.2 0-.1.2.1.6-.1.3-.2 0 0 0-.1.1-.1h.5-.6zm-.2-.6c0 .1 0 .1-.1.1s0-.1.1-.1zm-.1-.3c.3.2-.1.1-.3 0h.3zm-.4-.4c-.2 0-.2-.2 0 0zm-.6-.4c.2.2 0 .2 0 0zm-.9 0c0 .2-.2.1 0 0zm-.5.4c.2-.2.1 0 0 0zm-.5.7c.2.2 0 .2 0 0zm.1-.2c-.4.1-.1-.2.1-.1l-.1.1zm-.1.8c0-.1 0-.1.1-.1 0 .1 0 .1-.1.1zm0 .3c-.3-.2.1-.1.3 0h-.3zm.5.5c.2-.1.1.1 0 0zm.5.3c-.2-.1 0-.2 0 0zm.9 0c.1-.2.2 0 0 0zm.6-.3c-.2.1-.2-.1 0 0zm.1-.5c-.1 0-.1 0-.1-.1.2-.1.1-.3-.1-.3.1 0 .1-.1.1-.1.1.2.2.2.2.4l-.1.1zm-.1-.2c-.2-.1.1-.1 0 0 0 0 0 .1 0 0zm.3-.5c0 .1.1.1.1.1s0 .1.1.1c0 0 0 .1-.1.1-.2-.2-.1.1-.2.1-.1-.4-.4 0-.6 0 .3-.3-.4-.1-.5-.3.1-.1.7.1.5-.3.3 0 .5.3.7-.1v.3zm-.9.5c0 .1-.1.1-.1 0s.1-.1.1 0zm-.2-.1c0-.1-.1-.1-.1-.2l.3.2h-.2zm-.2.2v-.3c.1.1.1.1.1.3 0-.1 0 0-.1 0zm.1 0c.1.1 0 .1-.1.1l.1-.1zm-.3 0c.1-.1.1-.2.1-.2v.3c0-.1 0-.2-.1-.1zm.1.1c-.1 0-.1-.1-.1-.1.1 0 .2.1.1.1zm-.5-.4c-.1-.1 0-.1.1-.1 0 0 0 .2-.1.1zm.1-.1h.3l-.3.2c.1-.1.1-.2 0-.2zm0-.2c-.1 0-.1-.1-.1-.1.1 0 .1.1.1.1zm0-.2c0-.1.1-.1.1 0s-.1 0-.1 0zm.2 0c.1.1.1.1.1.2l-.3-.1c.1 0 .2-.1.2-.1zm.3-.1v.3c-.1-.1-.1-.1-.1-.2s0-.1.1-.1zm-.2 0c-.1-.1 0-.1.1-.1s0 .1-.1.1zm.3 0c-.1.1-.1.1-.1.2v-.2h.1zm0-.1c.1 0 .1.1.1.1-.1 0-.2-.1-.1-.1zm.5.3c.1.1 0 .1-.1.1s-.1-.1.1-.1zm-.2.1h-.3l.3-.1v.1zm0-.2c-.1 0-.1 0 0 0 0-.1.1 0 0 0zm0 .1-.3.1c.1-.1.1-.1.1-.2.1 0 .1.1.2.1zm-.9 0 .3.1h-.3s.1 0 0-.1zm.1.5c.1 0 .1.1 0 0 0 .2-.1 0 0 0zm0 0 .3-.1c-.1 0-.1.1-.2.1h-.1zm.6-.2h.3c-.1.1-.1.1 0 .1l-.3-.1zm.3 0c.1 0 .1.1.1.1-.2.1-.2-.1-.1-.1zm.7-.5c-.1.1-.1.2-.2.3-.1 0-.1-.1-.1-.1.1 0 .3-.2.1-.3 0-.1.2 0 .2.1zm-.2 0c0 .2-.2.1 0 0zm0 0c-.1 0-.1.1 0 .2-.1 0-.3-.1-.4-.1l.4-.1zm-.4.1c.1-.1.1-.3.1-.3 0 .1.1.1.1.1h.1l-.3.2zm.2-.3c0-.1.1 0 0 0 0 .1-.1 0 0 0zm.4-.2c.1-.4.2 0 0 .1v-.1zm-.2 0c.1.1 0 .4-.1.2.1-.2-.2-.1-.3 0V8c.2-.1.2-.1.4-.1zm-.5-.3c.1 0 .1 0 .1-.1h.1s0 .1.1.1c-.1.1.1.2.1.3-.5-.1-.3.3-.5.5-.1-.3-.3.2-.5.3 0-.1.4-.6 0-.5.2-.2.6-.2.3-.6.2-.1.2-.1.3 0zm-.3-.4c.3-.1 0 .1-.1.2 0-.1 0-.1.1-.2zm-.1.3c.1-.1.1-.1.2-.1.1.1.1.2.1.3-.1 0-.1.1-.1.1.1-.1-.1-.3-.2-.2-.1.1-.1 0 0-.1zm.1.2c0 .1-.1.1-.1 0h.1zm-.1 0c0 .1.1.1.1.1-.1.1-.1.2-.2.3l.1-.4c-.1 0 0 0 0 0zm-.1 0v.4c-.1-.1-.2-.1-.2-.3 0 .1.1 0 .2-.1-.1 0-.1 0 0 0zm-.2 0c.1 0 .1 0 0 0 .1.2-.1 0 0 0zm0-.4c-.3-.2.1-.1.1.1 0 0 0-.1-.1-.1zm-.1.2c.1-.1.3.1.2.1-.1-.1-.3.1-.2.2-.1 0-.1-.1-.1-.1s.1-.1.1-.2zm-.5.2c.1-.1.1-.1 0-.1 0 0 0-.1.1-.1h.1c.1.2.3 0 .3.1-.3.3.1.3.3.6-.4-.1.1.4 0 .5-.1-.1-.3-.6-.5-.3-.2-.3 0-.6-.5-.5.1-.1.2-.1.2-.2zm-.2.2h.4V8c-.1-.1-.3-.1-.3.1-.1.2-.2-.1-.1-.2zm.2.2c-.1 0 0-.1 0 0 0 0 0 .1 0 0zm-.5-.3c0-.3.1.1.1.2 0-.1 0-.1-.1-.2zm.4.4c.1.1.2 0 .1-.1.1.1.1.2.1.3l-.3-.1.1-.1zm.3.2c-.1 0-.3.1-.4.1.1 0 .1-.1 0-.2l.4.1zm-.4 0c-.1 0 0-.1 0 0 .1 0 0 0 0 0zm-.1-.2c.1 0 .1 0 .1.1-.2 0-.1.2.1.2-.1 0-.1.1-.1.1l-.3-.3c.1 0 .1-.1.2-.1zm-.2.6c0-.1-.1-.1-.1-.1s0-.1-.1-.1c0 0 0-.1.1-.1.2.1.1-.2.2-.3.1.4.4.1.7.1-.3.3.4.1.5.3-.1.1-.7-.1-.5.3-.3.1-.5-.3-.7.1-.1 0-.1-.1-.1-.2zm0 .4.2-.4c.1 0 .1.1.1.1-.1 0-.3.2-.1.3.1.1-.1 0-.2 0zm.3-.1c-.1-.1.2-.1 0 0zm0 .1c.1 0 .1-.1 0-.2h.4l-.4.2zm.4-.1c-.1.1-.1.3-.1.3 0-.1-.1-.1-.1-.1h-.1l.3-.2zm-.2.3c0 .1-.1-.1 0 0 0-.1 0-.1 0 0zm-.4.2c-.1.4-.2 0 0-.1v.1zm.2-.1c-.1-.1-.1-.3.1-.2-.1.2.2.1.3.1v.1H41zm.5.4c-.1 0-.1 0-.1.1h-.1s0-.1-.1-.1c.1-.1-.1-.2-.1-.3.4.1.2-.2.4-.5.1.3.3-.2.5-.3 0 .1-.4.6 0 .5-.1.3-.5.3-.3.6h-.2zm.3.4c-.3.1 0-.1.1-.2 0 0 0 .1-.1.2zm.1-.4c0 .1-.1.1-.2.1-.1-.1-.1-.2-.1-.3.1 0 .1-.1.1-.1-.1.1.1.3.2.2v.1zm-.2-.2c0-.1.1-.1.1 0 .1.1-.1.1-.1 0zm.2 0c0-.1-.1-.1-.1-.1.1-.1.1-.2.2-.3l-.1.4zm.1.1v-.5c.1.1.2.1.2.3l-.2.2c.1-.1 0-.1 0 0zm.2-.1c-.1 0-.1 0 0 0-.1-.1.1 0 0 0zm0 .4c.3.2-.1.1-.1-.1 0 .1 0 .1.1.1zm0-.2s0 .1 0 0c-.1.1-.3-.1-.2-.1.1.1.3-.1.2-.2.1 0 .1.1.1.1s0 .2-.1.2zm.6-.2c-.1.1-.1.1 0 .1 0 0 0 .1-.1.1h-.1c-.1-.2-.3 0-.3-.1.3-.3-.1-.3-.3-.6.4.1-.1-.4 0-.5.1.1.3.6.5.3.2.3 0 .6.5.5-.1.2-.2.2-.2.2zm.2-.2h-.4v-.1c.1.1.3.1.3-.1.1-.1.2.2.1.2zm-.2-.2c.1 0 0 .2 0 0-.1 0 0 0 0 0zm.5.3c0 .3-.1-.1-.1-.2 0 .1 0 .1.1.2zm-.5-.3c-.1-.1-.2 0-.1.1-.1-.1-.1-.2-.1-.3l.4.1c-.1.1-.1.1-.2.1zm-.2-.3h.4c-.1 0-.1.1 0 .2v.1l-.4-.3zm.9.2c0 .1-.3.1-.3.1.1 0 .3-.1.3-.1zm0-.2c-.1 0-.1-.1-.1-.1.1 0 .1.1.1.1zM18.7 42.4c0-.1.2 0 .2 0-.2-.2-.6.3-.5-.1-.2-.4.3 0 .5-.1 0-.1-.2 0-.3 0 .7 0 0-.4.3-.1-.2.1-.5 0-.6-.1.1.1.6.2.4 0-.1 0-.2 0-.3-.1.9.2.3-.9 0 0-.1-.1.1-.2 0-.3-.2 0-.1.3-.2.4-.1-.2 0-.5.2-.6.1.4.2-.4-.2.2 0-.1.2-.2.1-.3-.2.1-.1.7-.4.3-.4-.1.2-.2.1-.5-.1 0-.1.2-.2.2.3-.6-.3-.2.1-.2 0 .2-.2.4-.4.4.1 0 .5-.4.2-.3 0 .1-.1.2-.2.2.6-.7-.6-.7 0 0-.2.1-.2-.2-.3-.2-.1.1.2.2.2.3-.2-.1-.4-.2-.4-.4.4.1-.3-.3.1.2-.1 0-.1-.3-.2-.2-.1.2.6.4.1.5-.3.3-.1-.3-.4-.3-.1 0 .2.2.1.3-.4-.6-.3.2-.2-.2.2.1.2.4.2.6 0-.1-.1-.6-.2-.3.1.1.1.2 0 .3-.3-.8-.9.2 0 0 0 .2-.2.1-.3.1.1.2.3 0 .4 0-.2.1-.4.2-.6.1.3-.3-.4.1.3.1-.1.1-.3 0-.3 0 .2.2.6-.3.5.1.2.4-.3 0-.5.1 0 .1.2 0 .3 0-.7 0 0 .4-.3.1.2-.1.5 0 .6.1-.1-.1-.6-.2-.4 0 .1 0 .2 0 .3.1-.9-.2-.3.9 0 0 .1.1-.1.2 0 .3.2 0 .1-.3.2-.4.1.2 0 .5-.2.6-.1-.4-.2.4.2-.2 0 .1-.2.2-.1.3.2-.1.1-.7.4-.3.4.1-.2.2-.1.5.1 0 .1-.2.2-.2-.3.6.3.2-.1.2 0-.2.2-.4.4-.4-.1 0-.5.4-.2.3 0-.1.1-.2.2-.2-.6.7.6.7 0 0 .2-.1.2.2.3.2.1-.1-.2-.2-.2-.3.2.1.4.2.4.4-.4-.1.3.3-.1-.2.1 0 .1.3.2.2.1-.2-.6-.4-.1-.5.3-.3.1.3.4.3.1 0-.2-.2-.1-.3.4.6.3-.2.2.2-.2-.2-.2-.5-.2-.7 0 .1.1.6.2.3-.1-.1-.1-.2 0-.3.3.8.9-.2 0 0 0-.2.2-.2.3-.2-.1-.1-.3.1-.4.1.2-.1.4-.2.6-.1-.3.2.4 0-.2 0zm.2-.5c-.1 0 0-.1 0 0zm-.3 0c.1 0 0 0 0 0-.1 0 0 0 0 0zm-.1-.7c-.1.1-.1 0 0 0zm-.5-.3c0 .1 0 0 0 0zm-.1.3c0-.2 0-.1 0 0-.1 0-.1 0 0 0zm-.6 0c0-.2.1-.1 0 0 .1 0 .1 0 0 0zm-.1-.3c0 .1 0 0 0 0zm-.5.3c0 .1-.1 0 0 0-.1 0 0 0 0 0zm-.2.7c-.1 0 0 0 0 0 .1 0 0 0 0 0zm-.3 0c.1 0 0 0 0 0zm.1.5s-.1.1 0 0c-.1 0-.1 0 0 0zm.3 0c-.2 0-.1 0 0 0zm0 .7s0-.1 0 0c.1-.1.1 0 0 0zm.6.3c.1-.1 0 0 0 0zm.2-.3c-.1.2-.1.1 0 0zm.5 0c0 .2 0 .1 0 0zm.1.3c0-.1 0 0 0 0zm.4-.3c.1-.1.1 0 0 0 .1 0 0 0 0 0zm.2-.7c.1 0 0 0 0 0-.1 0 0 0 0 0zm-.2-.4c-.1 0-.1.1-.1.2-.1-.1-.1-.2-.2-.3v-.1c.2.1.3.1.3.2zm-.2-.1.2-.1c-.1.1-.2.2-.2.1 0 .1 0 .1 0 0zm-.1.1c-.1 0-.2 0-.3.1l.3-.1zm0 .4-.3-.2c.1.1.2.2.3.2zm-1 0c.1-.1.2-.1.3-.2l-.3.2zm0-.5.3.2c-.1 0-.2-.1-.3-.2 0 .1 0 .1 0 0zm1 0c0-.1.1-.1.2-.1l-.2.1zm-.1 0s.1 0 0 0l-.2.2c.1-.1.1-.2.2-.2zm-.4-.3c.1.1.1.1 0 0 .1.1 0 .2 0 .3v-.3zm0 0v-.2c.1.1.1.1 0 .2.1 0 .1 0 0 0zm0 0s-.1 0 0 0c-.1 0 0-.1 0 0zm0 0v.3s-.1-.1 0-.3c-.1.1 0 .1 0 0zm-.5.3s.1 0 0 0c.2 0 .2.1.3.2l-.3-.2zm0 0-.2-.1c.1 0 .2 0 .2.1.1-.1 0 0 0 0zm0 0v.2c-.1-.1-.1-.2 0-.2zm0 .2c0 .1 0 0 0 0 .2 0 .4 0 .5.1-.2.1-.3.1-.5.1 0-.2-.1.1-.2.1 0-.1-.1-.2-.2-.3.1-.1.1-.2.2-.3.1.2.1.3.2.3zm0 .2v.2l-.2.1c0-.2.1-.2.2-.3zm0 .1c0 .1-.1.1-.2.1l.2-.1zm.1 0s-.1 0 0 0l.2-.2c-.1.2-.1.2-.2.2zm.4.3c0-.1-.1-.1 0 0-.1-.1 0-.2 0-.3v.3zm0 0v.2c-.1-.1-.1-.1 0-.2-.1-.1-.1 0 0 0zm0 0s.1 0 0 0c.1 0 0 .1 0 0zm0 0v-.3s.1.1 0 .3c.1-.1.1-.1 0 0zm.5-.3s-.1 0 0 0c-.2 0-.2-.1-.3-.2l.3.2zm0 0 .2.1c-.1 0-.2 0-.2-.1 0 .1 0 0 0 0zm.1 0v-.2.2zm0-.1c-.1-.1-.1 0 0 0-.2 0-.4 0-.5-.1.2-.1.3-.1.5-.1 0 .2.1-.1.2-.1 0 .1.1.2.2.3-.1.1-.1.2-.2.3-.2-.2-.2-.3-.2-.3zm.2-.5zm.2-.4c.1 0 .2 0 .3.1 0 .1-.1.2-.1.3h-.3c.4-.2.4-.3 0 0 0-.2 0-.3.1-.4zm-.3.1c.1-.2.1 0 0 0zm0 .2zm-.1-.1c.1 0 .1.1.1.2h-.1c0-.1-.1-.2 0-.2-.1-.1-.1-.1 0 0zm0 .2c-.1 0-.4 0-.2.1-.1.1-.2.2-.4.3 0-.2.1-.3.1-.5.1.1 0-.2 0-.2h.3c.1.1.1.2.2.3zm-.3-.5c0 .1.1.1 0 0 0 .1-.1.1-.2.1 0 0 .1 0 .2-.1zm-.2 0s-.1 0 0 0zm-.3-.4.2-.2.2.2c-.1.1-.1.2-.2.3 0-.5 0-.5 0 0-.1-.1-.1-.2-.2-.3zm.1.4s.1 0 0 0c.1 0 0 0 0 0zm-.2.1s0-.1 0 0h.3c-.2.1-.3.1-.3 0zm-.1.1h.3c0 .1-.2.3 0 .2.1.1.1.3.1.5-.1-.1-.3-.2-.4-.3.1-.1-.1-.1-.2-.1.1-.1.2-.2.2-.3zm-.3 0h.2c0 .1-.1.2-.1.3h-.1v-.3zm-.1 0c-.1-.1 0-.1 0 0zm0 .2zm-.4 0c0-.1-.1-.2-.1-.3.1 0 .2 0 .3-.1 0 .1.1.2.1.3-.4-.2-.4-.2 0 0-.1.1-.2.1-.3.1zm.4.1c-.1 0 0 0 0 0zm-.1.2c.1 0 .2-.1.2-.1v.1c0 .1-.1.2-.2.3.1-.2 0-.3 0-.3zm0 .4c.1 0 .1-.1.1-.2.1.1.1.2.2.3v.1c-.2-.2-.3-.2-.3-.2zm0 .1c.1 0 0 0 0 0zm-.2.4c-.1 0-.2 0-.3-.1 0-.1.1-.2.1-.3h.3c-.4.2-.4.3 0 0 0 .2 0 .3-.1.4zm.3-.1c-.1.1 0 0 0 0zm0-.2zm.2.1c-.1-.1-.1-.1-.1-.2h.1c0 .1.1.2 0 .2.1.1.1 0 0 0zm0-.2c.1 0 .4 0 .2-.1.1-.1.2-.2.4-.3 0 .2-.1.3-.1.5-.1-.1 0 .2 0 .2h-.3c0-.1-.1-.2-.2-.3zm.3.5c0-.1-.1-.1 0 0 0-.1.1-.1.2-.1 0 0-.1 0-.2.1zm.2 0s.1 0 0 0c.1 0 0 0 0 0zm.3.4-.2.2-.2-.2c.1-.1.1-.2.2-.3 0 .5 0 .5 0 0 .1.1.1.2.2.3zm-.1-.4c-.1 0 0 0 0 0zm.2-.1s0 .1 0 0h-.3c.2-.1.3-.1.3 0 .1 0 0 0 0 0zm.2-.1h-.3c0-.1.2-.3 0-.2-.1-.1-.1-.3-.1-.5.1.1.3.2.4.3-.1.1.1.1.2.1-.2.1-.2.2-.2.3zm.1 0H18c0-.1.1-.2.1-.3h.1v.3zm.1 0c.1.1 0 .1 0 0zm0-.2zm.5 0c0 .1.1.2.1.3-.1 0-.2 0-.3.1 0-.1-.1-.2-.1-.3.4.2.4.2 0 0 0-.1.2-.1.3-.1zm-.5-.1s.1 0 0 0c.1 0 .1 0 0 0zm-.1 0c0-.1 0-.1 0 0 0-.1.1-.2.1-.3 0 .1 0 .1.1.2 0 0-.1 0-.2.1zm.7-.1c0 .1-.1 0 0 0zM16.9 17.4c-.1 0-.1.1-.2.1 0-.1-.1-.3-.1-.2-.1-.1-.1-.1-.2-.1.1-.1.1-.1.2-.1.1.1.1-.1.1-.2.1 0 .2.1.2 0-.1-.1-.2-.2-.2-.3.2.1-.1-.2-.1.1-.1-.1-.2.1-.1.1s.1-.1 0-.1c-.1-.1.2-.1.1.1-.1.1-.2-.2-.4-.1.1-.1-.1-.3.1-.4.1 0 .1.1.1.1-.1 0-.1-.1 0-.1s-.1-.1-.1 0 .2.1.1-.1c.3.2.2-.2.1 0-.1-.1-.2-.2-.2-.3-.1-.1-.1.1-.1.2-.1-.1-.3-.1-.2 0-.1.2-.2.3-.3.3 0-.1-.1-.2 0-.2.2 0 0-.1-.1-.2.1-.1.2-.1.1-.2-.1.1-.2.1-.4 0 .2-.2-.2-.1.1.1-.1 0-.1.2 0 .1s-.1-.1-.1-.1c0 .1-.1-.1 0-.1.2.1-.2.2-.2.3 0-.1-.5-.2-.2-.3.1 0 0 .2 0 .1s-.1 0-.1.1c.1.1.2-.1 0-.1.3-.2-.1-.3.1-.1-.1.1-.2.1-.4 0 .3 0 .5.2.5.2-.1 0-.2.2-.1.2v.2c-.1 0-.2-.1-.2-.1.1-.1-.1-.1-.2 0 0-.1-.1-.2-.1-.2 0 .1-.1.2-.2.3-.1-.2-.2.2.1 0-.1.1.2.2.1.1 0-.1-.1 0-.1 0v.1c-.1 0 0-.1.1-.1.2.1 0 .2.1.4-.1-.1-.2.2-.4.1-.1-.1.1-.2.1-.1-.1-.1-.1 0 0 .1.1-.1-.1-.2-.1-.1 0-.3-.3-.1-.1-.1 0 .1-.1.2-.2.3 0 .1.2 0 .2 0 0 .1.1.3.1.2.1.1.1.1.2.1-.1.1-.1.1-.2.1-.1-.1-.1.1-.1.2-.1 0-.2-.1-.2 0 .1.1.2.2.2.3-.2-.1.1.2.1-.1.1.1.2-.1.1-.1s-.1.1 0 .1c.1.1-.2.1-.1-.1s.2.2.4.1c-.1.1.1.3-.1.4-.1 0-.1-.1-.1-.1s.1.1 0 .1.1.1.1 0-.2-.1-.1.1c-.3-.2-.2.2-.1 0 .1.1.2.2.2.3.1.1.1-.1.1-.2.1.1.3.1.2 0 .1-.1.1-.1.2-.1 0 .1.1.2 0 .2-.2 0 0 .1.1.2-.1.1-.2.1-.1.2.1-.1.2-.1.4 0-.2.2.2.1-.1-.1.1 0 .1-.2 0-.1s.1.1.1.1c0-.1.1.1 0 .1-.2-.1.2-.2.2-.3 0 .1.5.2.2.3-.1 0 0-.2 0-.1s.1 0 .1-.1c-.1-.1-.2.1 0 .1-.3.2.1.3-.1.1.1-.1.2-.1.4 0 .1 0-.1-.1-.1-.2.1 0 .2-.2.1-.2v-.2c.1 0 .2.1.2.1-.1.1.1.1.2 0 0 .1.1.2.1.2 0-.1.1-.2.2-.3.1.2.2-.2-.1 0 .1-.1-.2-.2-.1-.1 0 .1.1 0 .1 0-.1 0 0-.1 0-.1.1 0 0 .1-.1.1-.2-.1 0-.2-.1-.4.1.1.2-.2.4-.1.1.1-.1.2-.1.1.1.1.1 0 0-.1-.1.1.1.2.1.1 0 .3.3.1.1.1-.4-.4-.1-.5-.1-.6zm-.2-.8s.1.1 0 0c0 .1 0 .1 0 0zm0 .1c0 .1.1.1.1.2h-.1v-.2zm-.1-.3zm-1.1-.6s.1 0 0 0c.1 0 0 0 0 0zm-.3 0s.1 0 0 0c.1 0 0 0 0 0zm-1 .6s.1 0 0 0zm-.1.3s-.1 0 0 0c-.1-.1 0 0 0 0zm.1.1-.1.1c.1-.1.1-.1.1-.2v.1zm-.1 1c-.1 0-.1 0 0 0 0-.1 0 0 0 0zm.1-.1c0-.1-.1-.1-.1-.2h.1v.2zm0 .4s0-.1 0 0c0-.1.1-.1 0 0zm1.1.5s-.1 0 0 0c-.1 0 0 0 0 0zm.3 0s-.1 0 0 0c-.1 0 0 0 0 0zm1-.6c0 .1 0 .1 0 0zm-.3-.8c0 .1.1.1.2.2l-.1.1c.1-.2-.4-.3-.2-.1H16c.2 0 .2-.1 0-.1.1-.1.1-.1 0-.1h.2c-.2.2.2.2.2-.1.1 0 .1.1.1.1 0-.1-.1-.1-.2 0zm-.4.4c.1.1.2.1.2.1l-.1.1c0-.1-.1-.1-.1-.2zm.1.3c-.1.1-.2 0-.2-.1.1 0 .2 0 .2.1zm-.1-.4c0-.1.1-.1.1-.1.1 0 .2.1.2.2-.1.1-.2 0-.3-.1zm-.3.2c-.1-.1-.1-.3-.1-.5h.1l.4.4c-.3.1-.4.1-.4.1zm.1.1v.1-.1c-.1 0-.1 0 0 0zm-.7-.2.4-.4h.1c0 .2-.1.3-.1.5-.2 0-.3 0-.4-.1zm.2.2zm-.4 0c-.1 0-.1-.1-.1-.1.1 0 .2 0 .2-.1 0 .1-.1.1-.1.2zm0 0h.2c0 .1-.1.2-.2 0-.1.1 0 0 0 0zm.1-.3c-.1.1-.2.1-.3.1 0-.1.1-.2.2-.2l.1.1zm-.3-.1h.2c-.1 0-.2.1-.2.2v-.2zm0 0h-.1c0-.1.1-.1.2-.1-.1 0-.1.1-.1.1zm.3 0c.1 0 .2-.1.3-.1l-.2.2c-.1 0-.1 0-.1-.1zm-.1-.2c0-.1 0-.1 0 0zm0 .1zm0-.1v-.1c.2 0 .4 0 .5.1v.1c-.1.1-.3.1-.5.1v-.2zm.1-.2c-.1 0-.2-.1-.2-.2.1-.1.2 0 .3.1-.1 0-.1.1-.1.1zm-.3-.2c0 .1.1.1.2.2h-.2v-.2zm0 .3c-.1 0-.2 0-.2-.1h.1l.1.1zm.3-.3c-.1-.1-.2-.1-.2-.1l.1-.1c0 .1.1.2.1.2zm-.2-.3c.1-.1.2 0 .2.1 0 0-.1 0-.2-.1.1.1 0 0 0 0zm.2.4c.1.1.1.1.3.2-.2 0-.2-.1-.3-.1v-.1zm.3-.2c.1.1.1.3.1.5h-.1l-.4-.4c.3 0 .4-.1.4-.1zm0 0v-.1.1zm.6.1-.4.4h-.1c0-.2.1-.3.1-.5.2 0 .3.1.4.1zm-.2-.1c0-.1 0 0 0 0zm.4 0c.1 0 .1.1.1.1-.1 0-.2 0-.2.1 0-.1.1-.2.1-.2zm0-.1h-.2c0-.1.1-.1.2 0 0-.1 0 0 0 0zm-.1.2c.1-.1.2-.1.3-.1 0 .1-.1.2-.2.2-.1.1-.1 0-.1-.1 0 .1 0 0 0 0zm.3.2H16c.1 0 .2-.1.2-.2v.2zm.1 0h.1c0 .1-.1.1-.2.1 0 0 .1 0 .1-.1zm-.4 0c-.1 0-.2.1-.3.1l.2-.2c.1 0 .1.1.1.1zm.1.2c0 .1 0 .1 0 0zm0-.1zm0 .1v.1c-.2 0-.4 0-.5-.1v-.1c.1-.1.3-.1.5-.1v.2zm0 .2c-.1 0-.1 0 0 0-.1 0-.1 0 0 0zm-.1-.3zm-.1-.2s0-.1 0 0c0-.1 0-.1 0 0zm0-.1s0-.1 0 0c0-.1 0-.1 0 0zm-.3-.1zm-.1.3c0-.1-.1-.2-.1-.3h.1c.1.1 0 .1 0 .3zm-.1-.3zm-.3.1s0-.1 0 0c0-.1 0-.1 0 0 0-.1 0 0 0 0zm0 .1c0-.1 0-.1 0 0 0-.1 0 0 0 0zm-.1.2zm0 .3zm.1.1s0 .1 0 0c0 .1 0 .1 0 0zm0 .2zm.3 0zm.1-.2c0 .1.1.2.1.3h-.1v-.3zm.1.2zm.3 0c.1 0 0 0 0 0zm0-.2c.1.1.1.1 0 0zm-.1-.1c.1 0 .2.1.3.1 0 .1-.1.1-.1.1l-.2-.2zm.3 0h.2c0 .1 0 .1-.1.2.1-.1 0-.1-.1-.2zm.2-.1c.1 0 .2 0 .2.1h-.1l-.1-.1zm.3-.5c.1.1.2.1.2 0 0 .1 0 .2-.1.2h-.2c0-.1 0-.1.1-.2zm-.2 0c.1 0 .1 0 0 0v.2h-.1c0-.1 0-.1-.1-.2h.2zm0-.1c-.1 0-.2-.1-.2-.1s0-.1.1-.1c0 .1 0 .1.1.2zm0-.5c0 .1.1.1.1.2-.1 0-.1-.1-.2-.1.1 0 .1-.1.1-.1zm0 .2c-.1 0-.1.1-.1.2h-.1v-.2c.1-.1.2-.1.2 0zm-.4.1c.1 0 .2-.1.2-.1v.2c-.2-.2-.5.2-.1.1-.1.1-.1.1-.1.2.1-.2 0-.2-.1-.1 0-.2-.1-.2-.1-.1 0-.1.1-.1.1-.2.1.3.3-.1.1-.2l.1-.1c-.2.1-.2.2-.1.3zm-.4-.1c.1 0 .1 0 .2.1-.1.1-.1.1-.1.2-.1-.2-.1-.3-.1-.3zm.2 0c.1 0 .1.1.1.1-.1 0-.1-.1-.1-.1zm0-.4s.1 0 .2-.1l-.1.1h-.1zm-.1.2c.1 0 .1-.1.1-.2.1.1.1.1.2.1-.1 0-.2.1-.3.1zm-.1 0c.1 0 .1.1.2.1l-.1.1c-.1-.1-.1-.1-.1-.2 0 .1 0 0 0 0zm-.1.2c.1.1.1.2.1.3h-.1c-.1-.2-.1-.3 0-.3zm-.1.2c0-.1-.1-.1-.1-.2.1-.1.1-.1.2-.1-.1.1-.1.2-.1.3zm0-.4.1.1c-.1 0-.1 0-.2.1l-.1-.1c.1.1.2 0 .2-.1zm-.1.2-.1.1c-.1 0-.1-.1.1-.1-.1 0-.1 0 0 0zM15 16h.2-.2zm-.1.1c.1 0 .1-.1.2-.1-.1.1 0 .1.1.2l-.1.1c0-.1-.1-.1-.2-.2zm-.2.3c.2.2.4.1.3-.2.1 0 .1.1.1.1-.2.1-.1.5.1.2.1.1.1.1.1.2-.1-.1-.1-.1-.1.1-.2-.2-.2-.2-.2 0-.1-.1-.1-.1-.1-.2.4.1.1-.3-.1-.1-.1 0-.1-.1-.1-.1zm-.3 0 .1-.1-.1.1c.1 0 .1 0 0 0zm.1 0c.1-.1.1-.1.2-.1-.1.1-.1.2 0 .2h-.1s0-.1-.1-.1zm.1.3v-.1c.1 0 .1 0 .2-.1 0 0 0 .1.1.1-.2-.1-.2 0-.3.1zm-.1.1h.1c-.1.1-.1.1-.1.2h-.1c.1-.1.1-.2.1-.2zm-.3.3c-.1-.1-.1-.1-.1-.2.1.1.2.1.2 0l.1.1c-.1 0-.1 0-.2.1zm.3.1c0-.1-.1-.1-.2-.2l.1-.1c-.1.2.4.3.2.1h.2c-.2 0-.2.1 0 .1-.1.1-.1.1 0 .1h-.2c.2-.2-.2-.2-.2.1-.1 0-.1-.1-.1-.1 0 .2.2.1.2 0zm-.1.3c-.1-.1-.2-.1-.2 0 0-.1 0-.2.1-.2.1.1.1.1.2.1l-.1.1zm.1.2c-.1 0-.1 0 0 0v-.2h.1c0 .1 0 .1.1.2h-.2zm.1.1c0-.1 0-.1 0 0 .1 0 .2.1.2.1s0 .1-.1.1c0-.2-.1-.2-.1-.2zm-.1.4c0-.1-.1-.1-.1-.2.1 0 .1.1.2.1-.1 0-.1 0-.1.1zm0-.1c.1 0 .1-.1.1-.2h.1v.2h-.2zm.4-.1c-.1 0-.2.1-.2.1v-.2c.2.2.5-.2.1-.1.1-.1.1-.1.1-.2-.1.2 0 .2.1.1 0 .2.1.2.1.1 0 .1-.1.1-.1.2-.1-.3-.3.1-.1.2l-.1.1c.2-.2.2-.3.1-.3zm.4.1c-.1 0-.1 0-.2-.1.1-.1.1-.1.1-.2.1.1.1.2.1.3zm-.1-.1c-.2 0-.2 0-.1-.1 0 .1 0 .1.1.1zm0 .5s-.1 0-.2.1l.1-.1c0-.1 0-.1.1 0zm0-.3c-.1 0-.1.1-.1.2-.1-.1-.1-.1-.2-.1.1 0 .2-.1.3-.1zm.1 0c-.1 0-.1-.1-.2-.1l.1-.1c.1.1.1.1.1.2zm.1-.1c-.1-.1-.1-.2-.1-.3h.1c.1.1.1.2 0 .3zm.1-.3c0 .1.1.1.1.2-.1.1-.1.1-.2.1.1-.1.1-.2.1-.3zm0 .4-.1-.1c.1 0 .1 0 .2-.1l.1.1c-.1 0-.2 0-.2.1zm.2-.2.1-.1c0 .1 0 .2-.1.1 0 .1 0 .1 0 0zm.1.5h-.2c0-.1.1-.1.2 0zm.1-.3c-.1.1-.1.1-.2.1.1-.1 0-.1-.1-.2l.1-.1c0 .2.1.2.2.2zm.2-.1c-.2-.2-.4-.1-.3.2-.1 0-.1-.1-.1-.1.2-.1.1-.5-.1-.2-.1-.1-.1-.1-.1-.2.1.1.1.1.1-.1.1.1.2.1.1-.1.1.1.1.1.1.2-.4-.1-.1.3.1.1.2.1.2.1.2.2zm.3 0-.1.1c0-.1 0-.1.1-.1-.1 0 0 0 0 0zm-.1 0c-.1.1-.1.1-.2.1.1-.1.1-.2 0-.2h.1l.1.1zm0-.3v.1c-.1 0-.1 0-.2.1 0 0 0-.1-.1-.1.1 0 .2-.1.3-.1-.1-.1-.1-.1 0 0zm0-.1h-.1c.1-.1.1-.1.1-.2h.1c-.1 0-.1.1-.1.2.1-.1 0-.1 0 0zm.3-.2c-.1-.1-.2-.1-.2 0l-.1-.1c.1 0 .2-.1.2-.1.1.1.1.2.1.2zm.1.3c0-.1 0 0 0 0zm0-.1v-.2h.1c-.1 0-.1.1-.1.2zM63.9 40.1c-.1 0-.2 0-.2.1 0-.1-.1-.3-.1-.2-.1 0-.2-.1-.2-.2l.2-.2c.1.1.1-.1.1-.2.1 0 .3.1.2 0-.1 0-.2-.2-.2-.3.3 0-.1-.2-.1.1-.2-.2-.2.2-.1.1 0-.1-.1.1-.1 0 .1-.1.2 0 .1.1-.2.1-.3-.2-.4-.1.1-.1-.1-.5.2-.4.1.1-.2.1-.1 0 .1 0 0-.1-.1 0 0 .2.2.1.2 0 .3.2.2-.3.1 0-.1-.1-.2-.2-.2-.3v.2c-.1 0-.3-.1-.2 0-.1.1-.2.1-.3.1v-.3c.2 0 0-.2-.1-.2 0-.1.2-.2.1-.2-.1.1-.3.1-.4 0 .2-.2-.3 0 0 .1-.3.1.1.3 0 .1-.1 0 0 0 0 .1-.1 0 .1-.2.1 0s-.3.1-.3.3c0-.2-.3-.1-.3-.3 0-.1.2 0 .1 0v-.1c-.1.2.3 0 0-.1.3-.2-.1-.3 0-.1-.1.1-.4 0-.4 0l.2.2c-.1 0-.3.2-.1.2v.3c-.1 0-.2-.1-.3-.1.1-.1-.2-.1-.2 0 0-.1 0-.3-.1-.2 0 .1 0 .3-.2.3-.1-.3-.2.2.1 0-.1.1.2.2.2 0 0-.1-.1 0-.1 0 .1.1-.1.1-.1 0 .3-.2.1.3.2.4-.2-.1-.3.2-.4.1-.1-.1 0-.2.1-.1 0 .1-.1 0-.1 0 .2.2.1-.2-.1-.1 0-.3-.4-.1-.1-.1 0 .1-.1.3-.2.3 0 .1.2 0 .2 0 0 .1.1.3.1.2.1 0 .2.1.2.2l-.2.2c-.1-.1-.1.1-.1.2-.1 0-.3-.1-.2 0 .1 0 .2.2.2.3-.3 0 .1.2.1-.1.2.2.2-.2.1-.1 0 .1.1-.1.1 0-.1.1-.2 0-.1-.1.2-.1.3.2.4.1-.1.1.1.5-.2.4-.1-.1.2-.1.1 0-.1 0 0 .1.1 0 0-.2-.2-.1-.2 0-.3-.2-.2.3-.1 0 .1.1.2.2.2.3.1.1.1-.2.1-.2.1 0 .3.1.2 0 .1-.1.2-.1.3-.1v.3c-.2 0 0 .2.1.2 0 .1-.2.2-.1.2.1-.1.3-.1.4 0-.2.2.3 0 0-.1.3-.1-.1-.3 0-.1.1 0 0 0 0-.1.1 0-.1.2-.1 0s.3-.1.3-.3c0 .2.3.1.3.3 0 .1-.2 0-.1 0v.1c.1-.2-.3 0 0 .1-.3.2.1.3 0 .1.1-.1.4 0 .4 0l-.2-.2c.1 0 .3-.2.1-.2v-.3c.1 0 .2.1.3.1-.1.1.2.1.2 0 0 .1 0 .3.1.2 0-.1 0-.3.2-.3.1.3.2-.2-.1 0 .1-.1-.2-.2-.2 0 0 .1.1 0 .1 0-.1-.1.1-.1.1 0-.3.2-.1-.3-.2-.4.2.1.3-.2.4-.1.1.1 0 .2-.1.1 0-.1.1 0 .1 0-.2-.2-.1.2.1.1 0 .3.4.1.1.1-.2-.3.1-.4.1-.4zm-.2-1c0 .1 0 0 0 0zm-.1.1c0 .1 0 .2.1.2h-.1v-.2zm-.1-.4s.1.1 0 0c0 .1 0 0 0 0zm-1.1-.6s.1 0 0 0c.1 0 0 0 0 0zm-.3 0zm-1.2.7c0-.1 0-.1 0 0zm-.1.3c0-.1 0-.1 0 0zm.1.1c0 .1 0 .1 0 0 0 .1-.1.1 0 0zm-.1 1.1c0-.1 0 0 0 0zm.1-.1c0-.1 0-.2-.1-.2h.1v.2zm0 .4s0-.1 0 0c0-.1 0 0 0 0zm1.2.6zm.4 0s-.1 0 0 0c-.1 0 0 0 0 0zm1-.7s.1 0 0 0c0 .1 0 .1 0 0zm-.3-.8c0 .1.2.2.2.2s-.1.1-.2.1c.1-.3-.4-.3-.2 0h-.3c.2 0 .2-.1 0-.2.2-.1.2-.2 0-.2h.3c-.2.3.2.2.2.1.1-.1.1-.1.2 0 0-.1-.1-.1-.2 0zm-.4.4c.1.1.2.1.3.1 0 .1-.1.1-.1.1-.1-.1-.1-.2-.2-.2zm.2.3c-.1.1-.2 0-.2-.1 0 0 .1 0 .2.1 0-.1 0 0 0 0zm-.2-.3c.2-.1.3 0 .3.1-.1-.1-.2-.1-.3-.1zm-.4.1c-.1-.1-.1-.3-.1-.5.2.1.3.2.4.4-.1 0-.2.1-.3.1zm.2 0c-.1.1-.1.1 0 0-.1 0-.1 0 0 0zm-.8-.1c.1-.2.2-.3.4-.4 0 .2-.1.4-.2.5 0 0-.1-.1-.2-.1zm.2.1c0 .1 0 .1 0 0 0 .1 0 .1 0 0zm-.5.1c-.1 0-.1-.1 0 0 0-.1.1-.1.2-.2-.1 0-.1.1-.2.2zm.1 0h.2c-.1.1-.2.2-.2 0-.1.1-.1 0 0 0zm.1-.2c-.1.1-.2.1-.3.1 0-.1.1-.2.3-.1-.1-.1-.1 0 0 0zm-.4-.1h.3c-.1 0-.2.1-.2.2-.1-.1-.1-.2-.1-.2zm0-.1c-.1-.1 0-.2 0 0 0-.1 0 0 0 0zm.3.1c.1 0 .2-.1.3-.1-.1.1-.2.1-.3.1.1 0 .1 0 0 0zm-.1-.4zm.1.2c-.1 0-.1 0 0 0-.1 0-.1 0 0 0-.1 0-.1 0 0 0zm0-.1c.2-.1.4-.1.6 0-.2.1-.4.1-.6 0zm0-.3c-.1 0-.2-.1-.2-.2.1-.1.2 0 .2.2 0-.1 0 0 0 0zm-.3-.1c0 .1.1.2.2.2h-.3c.1-.1.1-.2.1-.2zm0 .3c-.1 0-.2 0-.2-.1l.2.1c0-.1 0 0 0 0zm.4-.3c-.1-.1-.2-.1-.3-.1 0-.1.1-.1.1-.1.1 0 .1.1.2.2zm-.2-.4c.1-.1.2 0 .2.1 0 0-.1 0-.2-.1 0 .1 0 0 0 0zm.2.4c.1.1.2.1.2.2-.1 0-.2-.1-.2-.2 0 .1 0 .1 0 0zm.4-.2c.1.2.2.3.2.5-.2-.1-.3-.2-.4-.4 0 0 .1-.1.2-.1zm-.1 0c0-.1 0-.1 0 0zm.7.1c-.1.2-.2.3-.4.4 0-.2.1-.4.2-.5 0 0 .1.1.2.1zm-.2-.1c0-.1 0-.1 0 0 0-.1 0-.1 0 0zm.5-.1c.1 0 .1.1 0 0 0 .1-.1.1-.2.2.1 0 .1-.1.2-.2zm0 0h-.2c0-.1.1-.2.2 0 0-.1 0 0 0 0zm-.2.3c.1-.1.2-.1.3-.1 0 .1-.1.2-.3.1.1.1.1 0 0 0zm.3.1h-.3c.1 0 .2-.1.2-.2.1.1.1.2.1.2zm0 .1c.1.1 0 .2 0 0 0 .1 0 0 0 0zm-.2-.1c-.1 0-.2.1-.3.1.1-.1.2-.1.3-.1-.1 0-.1 0 0 0zm.1.4zm0-.2zm-.1.1c-.2.1-.4.1-.6 0 .2-.1.4-.1.6 0zm0 .2s-.1 0 0 0c-.1 0 0 0 0 0zm-.1-.4s.1 0 0 0c.1 0 .1 0 0 0 .1 0 0 0 0 0zm-.1-.2s.1 0 0 0zm0-.1c0-.1.1-.1 0 0 .1-.1 0 0 0 0zm-.3 0c0-.1 0-.1 0 0 0-.1 0-.1 0 0 0-.1 0-.1 0 0zm-.1.2c0-.1 0-.2-.1-.3h.1v.3zm-.2-.2c0-.1 0-.1 0 0 0-.1 0-.1 0 0 0-.1 0-.1 0 0zm-.3 0s-.1-.1 0 0c-.1-.1 0-.1 0 0zm0 .1zm-.1.2s-.1 0 0 0c-.1 0-.1 0 0 0-.1 0 0 0 0 0zm0 .4s-.1 0 0 0c-.1 0-.1 0 0 0-.1 0 0 0 0 0zm.1.2zm0 0c0 .1-.1.1 0 0-.1.1 0 0 0 0zm.3 0c0 .1 0 .1 0 0 0 .1 0 .1 0 0 0 .1 0 .1 0 0zm.2-.1c0 .1 0 .2.1.3h-.1c-.1-.2-.1-.2 0-.3zm.1.1c0 .1 0 .1 0 0 0 .1 0 .1 0 0 0 .1 0 .1 0 0zm.3 0s.1.1 0 0c.1.1 0 .1 0 0zm0 0c.1 0 0 0 0 0zm-.1-.2c.1 0 .2.1.3.1 0 0 0 .1-.1.1l-.2-.2zm.4.1h.3v.2c-.2-.2-.2-.2-.3-.2zm.1-.2c.1 0 .2 0 .2.1l-.2-.1c0 .1 0 0 0 0zm.2-.5c.1.1.2.1.2 0v.3c0-.1-.1-.2-.2-.3 0 .1 0 0 0 0zm-.1-.1c.1 0 .1 0 0 0 .1.1 0 .2 0 .2h-.1c0-.1 0-.2-.1-.2h.2zm-.1-.1c-.1 0-.2 0-.2-.1V39c.1 0 .1.1.2 0v.2zm.2-.5c0 .1.1.2.1.2-.1-.1-.1-.1-.1-.2-.1 0 0 0 0 0zm-.1.1c-.1 0-.1.1-.1.2H63v-.3c.1 0 .2.1.2.1zm-.4.1c.1 0 .2-.1.3-.1v.2c-.2-.2-.5.2-.1.1 0 .1-.1.2-.1.2.1-.2 0-.2-.1-.1 0-.2-.1-.2-.2-.1 0-.1.1-.2.2-.2 0 .4.2-.1-.1-.2 0 0 .1-.1.2-.1-.2.1-.2.3-.1.3zm-.5-.1c.1 0 .1 0 .2.1 0 .1-.1.1-.1.2 0-.1 0-.2-.1-.3zm.3.1c0-.1 0-.1 0 0 .2 0 .2.1 0 0 0 .1 0 0 0 0zm0-.5c-.1-.1-.1-.1 0 0h.2c-.1-.1-.1 0-.2 0zm-.1.2c.1 0 .2-.1.1-.2.1 0 .2.1.2.2h-.3c0 .1 0 0 0 0zm-.2.1c.1-.1.1-.1 0 0 .1 0 .2.1.2.1l-.1.1c.1-.1 0-.1-.1-.2zm0 .1c.1.1.1.2.1.3h-.2c0-.1-.1-.2.1-.3zm-.2.3c0-.1-.1-.1-.1-.2.1 0 .1-.1.2-.1-.1.1-.1.2-.1.3zm.1-.4c0 .1-.1.1-.1.2 0 0 0-.1-.1-.1 0-.1 0-.1.2-.1-.1-.1-.1-.1 0 0zm-.2.2c-.2 0-.2-.1 0 0-.1-.1-.1-.1 0 0zm-.2-.6h.3c-.1 0-.2.1-.3 0 0 .1 0 0 0 0zm-.1.3c0-.1.1-.1.2-.2 0 .1 0 .2.1.2 0 0 0 .1-.1.1 0-.1-.1-.1-.2-.1zm-.3.2c.2.2.4.1.3-.2.1 0 .1 0 .2.1-.3.1-.1.5 0 .2.1.1.1.2.1.2-.1-.2-.2-.1-.2.1-.2-.1-.2-.1-.1.1-.1-.1-.1-.1-.1-.2.4.1.1-.3-.1-.1-.1-.1-.1-.1-.1-.2zm-.3 0s-.1 0 0 0c0 .1 0 0 0 0 .1-.1.1-.1 0 0 .1 0 0 0 0 0zm.1 0c0-.1.1-.1.2-.1v.3h-.1s0-.1-.1-.2zm.1.4c.1-.1.1-.1.2-.1v.1c-.1-.1-.1 0-.2 0zm-.1.1c.1.1 0 .2 0 .2h-.1c.1 0 0-.1.1-.2-.1 0-.1 0 0 0zm-.3.3c-.1-.1-.1-.2 0-.3.1.1.2.1.2 0v.1l-.2.2zm.3.2c0-.1-.2-.2-.2-.2s.1-.1.2-.1c-.1.3.4.3.2 0h.3c-.2 0-.2.1 0 .2-.2.1-.2.2 0 .2h-.3c.3-.3-.2-.2-.2-.1-.1.1-.1.1-.2 0 0 .1.1.1.2 0zm-.1.4c-.1-.1-.2-.1-.2 0v-.3c0 .1.1.2.2.3 0-.1 0 0 0 0zm.1 0c-.1 0-.1 0 0 0-.1-.1 0-.2 0-.2h.1c0 .1 0 .2.1.2h-.2zm.1.1c.1 0 .2 0 .2.1v.1c-.1 0-.1-.1-.2 0v-.2zm-.2.5c0-.1-.1-.2-.1-.2.1 0 .1.1.1.2.1 0 .1 0 0 0zm.1-.1c.1 0 .1-.1.1-.2h.1v.3c-.1 0-.2-.1-.2-.1zm.5-.1c-.1 0-.2.1-.3.1v-.2c.2.2.5-.2.1-.1 0-.1.1-.2.1-.2-.1.2 0 .2.1.1 0 .2.1.2.2.1 0 .1-.1.2-.2.2 0-.4-.2.1.1.2 0 0-.1.1-.2.1.2-.1.2-.3.1-.3zm.5.1c-.1 0-.1 0-.2-.1 0-.1.1-.1.1-.2 0 .1 0 .2.1.3zm-.2-.1c-.1.1-.1.1 0 0-.2 0-.2-.1 0 0-.1-.1-.1 0 0 0zm-.1.5c.1.1.1.1 0 0h-.2c.1.1.1 0 .2 0zm.1-.2c-.1 0-.2.1-.1.2-.1 0-.2-.1-.2-.2h.3c0-.1 0 0 0 0zm.2-.1c-.1.1-.1.1 0 0-.1 0-.2-.1-.2-.1l.1-.1c.1 0 .1.1.1.2zm.1-.1c-.1-.1-.1-.2-.1-.3h.2c0 .1 0 .2-.1.3zm.1-.3c0 .1.1.1.1.2-.1.1-.1.1-.2.1.1-.1.1-.2.1-.3zm-.1.4c0-.1.1-.1.1-.2 0 0 0 .1.1.1 0 .1 0 .1-.2.1.1.1.1.1 0 0zm.3-.2c.1 0 .1.1 0 0 0 .1 0 .1 0 0zm.1.6h-.3c.1 0 .2-.1.3 0 0-.1 0 0 0 0zm.1-.3c0 .1-.1.1-.2.2 0-.1 0-.2-.1-.2 0 0 0-.1.1-.1 0 .1.1.1.2.1zm.3-.2c-.2-.2-.4-.1-.3.2-.1 0-.1 0-.2-.1.3-.1.1-.5 0-.2-.1-.1-.1-.2-.1-.2.1.2.2.1.2-.1.2.1.2.1.1-.1.1.1.1.1.1.2-.4-.1-.1.3.1.1.1.1.1.1.1.2zm.2 0s.1 0 0 0c0-.1 0 0 0 0 0 .1-.1.1 0 0zm-.1 0c0 .1-.1.1-.2.1v-.3h.1s0 .1.1.2zm-.1-.4c-.1.1-.1.1-.2.1v-.1c.2.1.2 0 .2 0zm.1-.1c-.1-.1 0-.2 0-.2h.1c0 .1 0 .2-.1.2.1 0 .1 0 0 0zm.4 0c-.1-.1-.2-.1-.2 0v-.1c.1 0 .2-.1.2-.2v.3zm.1.1c0 .1 0 .1 0 0zm-.1 0v-.2h.1c0 .1-.1.1-.1.2zM11.2 30.8c-.2 0-.1-.2-.2-.4.2 0 .1 0 0 0 .1 0 .2-.1 0 0 0-.2.1-.3.2-.4-.2 0-.1.2-.2.3 0-.1 0-.2-.1-.2.1-.1-.1-.2-.1-.2.1 0 .3.1.4 0-.1 0-.3 0-.4-.1.1-.1.1-.1 0 0 0-.1 0-.2 0 0l-.3-.3c0 .2.1.2.2.3-.1-.1-.2-.1-.3 0-.1-.1-.2 0-.3 0 .1-.1.2-.2.2-.3 0 .1-.1.2-.3.3 0-.2-.1-.1 0 0-.1-.1-.2-.1 0 0-.1.2-.3.2-.4.2.1.1.2 0 .4 0-.1 0-.2.1-.1.2-.1 0-.1.1-.1.2-.1-.1 0-.3-.2-.3.1.1.1.2.2.4-.2 0-.1 0 0 0-.1 0-.2.1 0 0 0 .2-.1.3-.2.4.2 0 .1-.2.2-.3 0 .1 0 .2.1.2-.1.1.1.2.1.2-.1 0-.3-.1-.4 0 .1 0 .3 0 .4.1-.1.1-.1.1 0 0 0 .1 0 .2 0 0l.3.3c0-.2-.1-.2-.2-.3-.1.2.1.2.1.1.1.1.2 0 .3 0-.1.1-.2.2-.2.3 0-.1.1-.2.3-.3 0 .2.1.1 0 0 .1.1.2.1 0 0 .1-.2.3-.2.4-.2-.1-.1-.2 0-.4 0 .1 0 .2-.1.1-.2.1 0 .1-.1.1-.2.2 0 .3.3.4.2zm-.3-.2c-.1-.1-.2.1 0 0-.4.1 0 .3-.1.2.1 0 .1.1 0 .1-.2 0-.1-.2-.2-.3 0 .1.3-.1.3 0s-.1.1 0 0c-.1.1 0 .1 0 0zm-.2.4c-.1 0-.1 0 0 0-.1 0-.1 0 0 0-.1 0 0 0 0 0zm-.1.1zm0-.1c0 .1 0 .1 0 0zm-.1 0c0-.1-.2-.1-.2-.2l.2.2c.1-.1.1-.3.1-.4.1.1.1.2.1.3 0 0 0 .1-.2.1zm-.2.1c.2 0 0-.2 0 0-.2-.3-.3.2-.2 0 0 0 0 .1-.1.1-.1-.2.2-.3.2-.4.1.1.3.2.1.3.1 0 0 0 0 0 0-.1 0 0 0 0zm-.4 0zm-.1-.1zm.1 0c0 .1 0 .1 0 0zm0 0s0-.1 0 0c0-.2 0-.3.1-.4-.1.1-.1.3-.1.4.1 0 .3-.2.3-.2 0 .1-.1.1-.3.2zm-.1-.1c.1 0 0-.2 0 0 0-.3-.4-.2-.1-.2 0 .1-.1 0-.1 0 0-.2.3 0 .4 0-.1 0-.1.3-.2.2-.1 0-.1-.1 0 0-.1-.1-.1 0 0 0zm-.3-.5c0 .1 0 .1 0 0 0 .1 0 .1 0 0zm.1-.1c.1.1.2-.1 0 0 .4-.1 0-.3.1-.2-.1 0-.1-.1 0-.1.2 0 .1.2.2.3-.1-.1-.3.1-.3 0s.1-.1 0 0c0-.1 0-.1 0 0zm.2-.3zm.1-.1zm0 .1c0-.1 0-.1 0 0zm.1 0c.1.1.2.1.2.2L10 30c-.1.1-.1.3-.1.4-.1-.1-.1-.2-.1-.3 0 0 0-.1.2-.1-.1 0 0 0 0 0zm.2-.1c-.2 0 0 .2 0 0 .2.3.3-.2.2 0 0 0 0-.1.1-.1 0 .2-.2.3-.3.4 0-.1-.3-.2 0-.3-.1 0 0 0 0 0 0 .1 0 0 0 0zm.4 0zm0 .1c.1 0 0 0 0 0zm0 0c0-.1 0-.1 0 0zm0 0s0 .1 0 0c0 .2 0 .3-.1.4 0-.2.1-.3.1-.4-.1 0-.3.2-.3.2 0-.1.1-.1.3-.2-.1 0-.1 0 0 0zm.1.1c-.1 0 0 .1 0 0 0 .3.4.2.1.2 0-.1.1 0 .1 0 0 .2-.3 0-.4 0 .1-.1.1-.3.2-.2.1 0 .1.1 0 0 .1.1.1 0 0 0zm-.1.3c0 .1.1 0 0 0 .1 0 .1 0 0 0 .1.1.1.1 0 0 0 0 0 .1 0 0h-.3c.1-.1.4 0 .3 0 0-.1 0 0 0 0zm0 0s.1 0 0 0c.1 0 0 0 0 0zm.1.1s-.1 0 0 0c-.1 0 0 0 0 0zm-.2.2c0 .1 0 .1 0 0 0 .1 0 0 0 0zm0 .1c-.1 0 0 0 0 0 .1.1 0 .1 0 0 0 .1 0 .1 0 0 0 0-.1.1-.2 0 .1.1 0-.2 0-.3.1 0 .2.3.2.3 0-.1 0-.1 0 0zm-.1 0zm-.2-.1v-.2c.1.1.1.2 0 .2.1 0 .1 0 0 0zm-.2.1c0 .1-.1.1 0 0 0 .1 0 0 0 0s-.1-.1 0-.2c0 .2.1-.1.2-.2 0 .1-.2.4 0 .3 0 .1-.1.1-.2.1zm.1 0zm-.1-.1s0 .1 0 0c0 .1 0 0 0 0zm-.2-.2c0-.1 0 0 0 0-.1 0-.1 0 0 0-.1-.1 0-.1 0 0 0 0 0-.1 0 0h.3c-.1.1-.4 0-.3 0zm.1 0c-.1 0-.1 0 0 0-.1 0-.1 0 0 0zm-.1-.1zm.2-.2zm0 0c-.1-.1 0-.1 0 0 0-.1 0-.1 0 0 0 0 .1-.1.2 0-.1-.1 0 .2 0 .3-.1-.1-.2-.3-.2-.3zm.1 0zm.1 0c.1 0 .1 0 0 0v.2-.2zm.2 0c0-.1.1-.1 0 0 .1-.1.1 0 0 0 0 0 .1.1 0 .2 0-.2-.1.1-.2.2 0-.1.2-.4 0-.3.1-.1.2-.1.2-.1zm0 0zm.1 0zm0 .1s0 .1 0 0c0 0-.1.1-.2.1.1 0 .1-.1.2-.1 0 0-.1 0 0 0zm-.5 0s.1 0 .2.1c-.1 0-.2 0-.2-.1 0 .1 0 0 0 0zm-.1.2c.1 0 .2 0 .3-.1-.1.1-.1.1-.3.1.1.1.1 0 0 0zm.6.1s-.1 0-.2-.1c.1 0 .2 0 .2.1 0-.1 0 0 0 0zm-.8-.3h.2c-.1 0-.3.1-.2 0-.2.2.1.2.2.2h-.3s0-.1-.1-.1c.1 0 .1 0 .2-.1 0 .1 0 0 0 0zm1.1.3h-.2c.1 0 .3-.1.2 0 .2-.2-.1-.2-.2-.2h.3s0 .1.1.1c-.1 0-.1 0-.2.1 0-.1 0-.1 0 0zm.1-.2c.1 0 .1 0 0 0 .1.1.1.1 0 0 0 .1 0 .1 0 0zm.1-.1c0 .1 0 .1 0 0 0 .1 0 0 0 0zm0 .1zm-.1-.2v.2h-.1l.1-.2c.1 0-.1-.2-.2 0h.2zm-.1-.1c.1.1 0 .1 0 0 .1.1 0-.1 0 0-.1 0-.1 0 0 0-.1-.1 0-.1 0 0zm0-.1c-.1-.1-.1-.1 0 0zm-.3-.2s.1.1 0 0c.1.1.1.1 0 0 0 .1 0 0 0 0zm-.1 0c.1 0 .1 0 .2.1v.1h-.1c0-.2-.3-.1-.1 0-.2 0-.2-.2 0-.2zm-.4.1c.1-.1.4 0 .2.1.1-.1-.2-.2-.2-.1s0 .1 0 0c-.1.1-.1 0 0 0zm0-.1s-.1.1 0 0c-.1.1-.1.1 0 0-.1.1-.1 0 0 0zm-.3.2c.1-.1.1 0 0 0 .1 0 0 0 0 0zm-.1.1c0-.1.1-.1.2-.1h.1v.1c-.1-.1-.2.2 0 .1-.2 0-.3 0-.3-.1zm-.1.2c-.1-.2.2-.3.2-.1 0 0-.3.1-.2.1.1.1.1.1 0 0 .1.1 0 .1 0 0 0 .1 0 .1 0 0zm0 .1zm-.1-.1s.1.1 0 0c0 .1 0 .1 0 0zm0 .3c.1-.1.1-.1 0 0 .1-.1 0 0 0 0zm.1-.1zm0 .2v-.2h.1l-.1.2c-.1 0 .1.2.2 0 0 .1-.1.1-.2 0zm.1.2c-.1-.1.1-.2 0 0-.1-.1 0 .1 0 0 .1 0 .1 0 0 0 .1.1.1.1 0 0zm.1.1c.1.1 0 .1 0 0zm.3.2c-.1 0-.1-.1 0 0-.1-.1-.1-.1 0 0-.1-.1 0 0 0 0zm.1 0c-.1 0-.1 0-.2-.1V31h.1c0 .2.3.1.1 0 .2 0 .1.2 0 .2zm.4-.1c-.1.1-.4 0-.2-.1-.1.1.2.2.2.1s0-.1 0 0c0-.1 0 0 0 0zm0 .1s0-.1 0 0c.1-.1.1-.1 0 0 .1-.1 0 0 0 0zm.3-.2c-.1.1-.1 0 0 0-.1 0-.1 0 0 0zm0-.1c0 .1-.1.1-.2.1h-.1v-.1c.1.1.2-.2 0-.1.3-.1.4 0 .3.1zm.2-.4c.1.2-.2.3-.2.1 0 .2.2 0 .2-.1-.1 0-.1 0 0 0-.1 0 0 0 0 0zm0 0zm0 .1s0-.1 0 0c0-.1 0-.1 0 0z" class="st0"/><path d="M71.9 31c-1.4-.4-2.9-.7-4.2-.5h-.4c-1 .6-2.8.6-3.5-.2 1-1 1.7-1.9 2.6-3.1 2.1-.1 3.9-1.4 5.9-1.8.1-.3-.2-.4-.4-.4-.6.4-1.3.6-2 .8v-.1h-.2c-.1.1-.1.2-.2.3-.8.2-1.6.5-2.4.3-.9-1.7 1.2-5 2.3-6.3h-.6l-.3.6c0-.1 0-.2-.1-.3h-.3c.7 1.6-2.5 4.6-2.7 6.3l-.1-.1c-.1 0-.2.1-.3.2l.2.2c-1.5 4-6.1 3.3-9.3 2.1l.1-.1s-.1-.1-.1-.2c-3.2-2.7 2.6-6 3.5-8.6h.1v-.4h-.1c.4-1 .8-2.1 1.4-3-.1-.1-.1-.1-.2-.1v-.3h-.5c-.5 2.1-3 5.3-4.1 5.9-.1-.1-.1-.3-.2-.4-.1 1.1-1.3 3.3-2.4 3.7-1.7-3.2-2.4-11.9.7-14.6l.2.2c-.1-.1-.2-.3-.2-.3 1.3-.7 2.5-1.7 3.9-2.1l.2-.4c-2 .3-3.4 1.8-5.3 2.2v-.2h-.4c0 .1-.1.1-.1.2-1.5-.9-.8-3.9-2-4.8.2.9.3 1.9.5 2.7-.1-.1-.3-.2-.4-.3-.1.1-.2.1-.2.2 3.3 4.3.5 5.7-3.4 2.7 0 .1-.1.1-.1.2 1.3.6 2.7 2.1 3.8 2.5v3.9c-.2-.1-.3-.2-.4-.3l-.1.1c.8 3.4 2.4 9.5-.9 12.3v-.1l-.3.3v.1c-3.4 2.9-3.8 6.2-7.5 7.6v-.1h-.1c0 .1-.1.1-.1.2-2 0-5.9-3.7-4.5-5.7 2.2-1.8 3.1-8.8 6.7-4.8 0 0 1.5 1.2 2.3 1.3-1.3-.8-2.1-2.2-3.4-2.9-.1-.1-.2-.2-.2-.3-.1.1-.7-.4-.8-.4 1-2.2 2.5-4.3 2.4-6.8-.5.8-.6 1.8-1 2.7 0-.1-.1-.3-.1-.4l-.4.4c.2 2.3-3 4-3.7 6.1-.1-.1-.1-.2-.1-.3l-.1.1c-.1 1.6-1.7 3.3-3.1 3.3-2.5-2.5 2.3-14-.5-7.8v-.1c-.6 1.3-.7 6.3-2.9 4.4 0-.1.2-.4 0-.6 0 .1 0 .1-.1.2-.9-2-1.1-6 .4-7.7 3.9.2 5.6-4.2 7.7-6.8-2.5 1.5-3.7 5.3-6.8 5.5-.1-.1-.2-.1-.3-.2.1-.1.1-.1.1-.2-.1-.1-.2-.3-.3-.5-.1 0-.1.1-.1.1-1.2-4.5 2.1-6.1 5.9-7.3-.8-.5-2.2.8-3.2 1 0-.1 0-.1.1-.1-.1-.1-.2-.2-.3-.4-1.9 1.9-3-.2-3.5-2.6h-.3c.1 1 .4 2.9.7 3.6-.1 0-.2 0-.3-.1v.2c.1.1.2.1.4.2-.2 2.1-.6 4.7-1.8 6.4-1.1-.1-1.9-.8-2.5-1.6-.1 0-.2-.1-.2-.2-1.5-1-2.2-2.9-3.7-3.9.2.4.2 1.5.3 1.6-.1 0-.3-.1-.5-.1v.4c2-.5 3.8 5.1 6.3 5.6 0 .8-.3 1.6-.4 2.4h-.1v.2c-1.5 5.4 8.8 14.2.7 12.7-.2 0-.3-.2-.5-.3v.1c-3.1-.8-5.5-2.1-7.3-4.8 0-.1-.1-.3-.1-.5 0 0-.1.1-.2.1-.8-3.4.4-5.1 2.5-8.1-.8.6-1.2 1.5-2.1 1.9 0-.1 0-.2-.1-.3-.1 0-.2-.1-.2-.2v.2c-1.6-1.2-2.4-3.2-3.7-4.7.5 2 2 3.4 3 5.3-.3 1.5 0 3.5-1.3 4.5-.4-.3-.9-.3-1.2-.6-.1 0-.2-.1-.2-.2-1.1-.3-2.1-1.1-3.1-1.6v-.2h-.2v.1c-1.8-1.2-3-3.1-4.4-4.7 0-.1.1-.2.1-.3h-.2l-.1.1c-.4-.6-1.1-1-1.2-1.7-.6 0-.5-.9-1.2-.8 1 2 2.9 3.5 3.4 5.7-.1 0-.2 0-.3-.1v.2h.2c-.5 1.7-2.6 2-3.8 2.9-.2 0-.5.2-.8.4 0 .1.1.2.1.4 1.8-.7 3.6-2.2 5.7-1.9.7.9 1.8 1.3 2.8 1.8-.1 0-.2.1-.2.1 0 .1.1.2.1.4 1.1-.3 2.8 1.3 3.6 1.9.9 2-4.5 2.3-5.7 3.3 2.6-.1 5.4-1.9 7.9-1.2 3.6 4.3 13.6 5 13.3 8.2-2.9 1.6-7.6-4.6-17.1-2.7-1.3 0-2.6 1.2-3.6-.1-.5-1.3-2.4-1.9-3.1-2.9h-.2v.1c-.4-.1-.8-.6-1.1-.3 0 0 2.9 1.5 3.5 3.5h-.3v.1h.3c-.8 2.3-3.7 3-5.5 4.4 2.5-.2 5.2-3.8 7.6-3h.9c1.9-1.4 7.6-1.3 1.2 3 2.1-.7 3.6-3.2 6.1-2.9 4.4.3 12.4 4.2 9.5 9.5-.9-.4-.9-1.4-1.5-2.1-1.4-2-3.6-.2-4.2-3.6-.4-.3-.2-1-.8-1.2.1 1 .9 2.4-.2 3-.1-.1-.2-.3-.2-.4l-.3.3c0 .1.1.1.1.2-1.1-.1-2-.8-3.2-.6-.5-.7-.8-1.6-1.5-2.1.2.7.7 1.2.8 2-.1 0-.3.1-.4.1v.2h.2c-.4.7-2.9 1.5-3.5 1.9 1.3.3 2.1-1.2 3.4-.8l.2-.4c.4-.2.8-.1 1.1-.3 2.2.7 4.4 1 6.4 2.1h-.1v.4h.1c.4.6.5 1.6.5 2.3.7 1.4 1.6 3.3-.8 2.6-.8.7-1.7.3-2.6.2-1.9-.5-3.7.3-5.7.2v-.1h-.3v.2c-2.5-.8-5.1-1.9-6.6-3.9 0 .4.6.8.3 1.3-.1 0-.2-.1-.3-.1l-.1.1c.1 0 .1.1.2.1-.1.2-.4.4-.6.5v-.1l-.1-.1c-.1.2-.2.4-.3.5 0 .2.1.4.1.5.4-.5 1-.9 1.8-1 1.4.6 2.6 1.5 3.8 2.2-.1.1-.2.1-.4.1 0 .1 0 .2.1.3.2-.1.5-.2.7-.2.3.2.5.4.6.7-1.3 1.8-3.5 2.4-4.8 4.4 2.2-.8 4.4-3 6.4-3.8.1 0 .1.1.1-.1 1.4-.5 2.9-.7 4.4-.3 0 .1 0 .1.1.2.1 0 .4.1.4-.1 3.7 1.9 5.4.1 4.9 5.6-.9 3.4.9 8.1-2.4 10.3-4.3 5.6-12.3 4.3-14.8 8.8 2.9-.7 7.5-5 8.3-.3.4-.8 1.4-2.1 2.2-2.2 2-.5 9.3-6 8.8-1-.1.5-2.7 3.5-.2 3.3 4.9-6.3 5.3-.2 9.5.1-.5-2.4-6.3-4.3-.1-4.8 1.1-1.1 2.5 0 3.6.6 1.4.5 3.4.9 4.2 2.5 0 .5.9 1.4 1.8 1.3-2.9-7.7 6.9-.4 9.7-.2-4.4-3.9-12-4.2-15.2-9.2-3.4-3.7-5-14.7 2.2-14.5.5.1 2.2-.2 2.9-.6v-.1c2.4-1.4 5.3-2.6 8.1-2.2 0 .1 0 .1-.1.2H59.8c2.3 1.1 1.5 4.2 2.5 6.3 0 .4.2 1-.2 1.3h.3v-.2l.1.2c.5-1.3-.5-3.1.1-4.4h.3c-.1-.1-.1-.1-.1-.2 1.2-1.3 3.4-1.7 4.9-1.4-2.4-1.9-4.8 2-6.2-1h.1c0-.1 0-.2-.1-.3-.2-.4-.3-.9-.3-1.3 1.9-2.8 5.2-4.5 8.2-3.2 0-.3.1-.7.1-1-.4.1-3.4 0-3.5 0 .5-1.1 1.5-1.7 1.8-2.6h-.6c-2.1 2-6.5 7.7-9.3 5.7.1-1.9 1.4-3.3 2.4-4.8-2.1 1.3-2.3 4.2-4.4 5.5h-.2v.1c-2.1.5-4 1.7-6.2 1.7-.3-.2-.4-.3-.6-.5.1-4.4 5.9-5.3 7.1-9.4.1 0 .2.1.3 0 .6-1 1.2-1.9 1.9-2.7-.9 0-1.1 1.2-1.8 1.6 0 .1-.1.2-.2.2-.8 1.5-2.2 3.4-4.2 3 0 .1-.1.1-.1.2-.8-.1-1.3-.7-2.1-.9.4.7 1.3 1 1.8 1.7v.6c-2 1.9-4 3.9-6.4 5.2v-.1h-.7l-.2.2-.6-.2c-1.2-3.4.2-8.1 2.2-10.9 4.7-1.5 9.3-3.3 14.3-3.7.4-1 1.9-.4 2.3-1.3-2 .5-6 2.1-7.3-.1h.2v-.2h-.2c0-.6.4-.9.2-1.5-.8 3.3-3.8 4.3-6.8 3.8l-.1-.1c-.1.1-.2.1-.3.2-1.1-.8 1.1-2.5 1.5-3.4 2.8-4.1 7.4-2.1 11.4-2.1 1.4.1 4.1.3 4.9 1.5h.4c-.2-.4-.3-.8-.1-1.3.8-.4 2.6-1 3.2-.1.1.2.2-.2.3-.3.5-.1 1 .1 1.5.1v.3h.5v-.1h.7c0-.4-.4-.3-.6-.4z" style="fill:#474350"/><path id="SVGID_1_" d="M30.4 33.5c1.2.3 3.8 1.5.9 1.2-.6 0-.8 1.1-1 1.4-.1-2.2-.2-1.6-1.4-.2-.6-.1-.7 1.4-1 1.3-.3-.6-.2-2.4-.4-3-.3.2-.7.2-.8.8-.2.3-.4 1-.5 1.1-.2-.6.2-1.8-.4-2.5-.1-.2-.3-.2-.3 0-.3.3-.5 1.4-.6 1.4-.3-.7.3-4.1-.7-1.4-.9.6-1 2.5-1.5 3.3-.4-1.4.2-4.9-.5-6.4 0-.5-.8-2.5-.1-1.8 2.3 1.5 3.8 3.4 6.5 3.9" class="st2"/><path id="SVGID_00000053520214906696095140000009817045766041087638_" d="M56.5 26.9c1.1.7 3.7-.1 4.6.7 2.2 1.2 2.1 1.8 1.9 4.4-.1 1.1.2 2.3-.2 2.4-.7-.1-.8-2.5-2.1-2.7-.6 0-1.5-.3-1.7-.8-.3-.6-1.4-.5-2.5-.9s-1.1-3-2-3.1c-.9-.1-.4-1.5 2 0z" class="st2"/><path id="SVGID_00000039130793125943574530000012024467053616751010_" d="M48.1 48.8c.8-1-1.8.9-2-.5-.2-.7-1.1.1-1.2-.9-.1-.6.1-.6-.6-1-.7-.3-.3-1.5-.9-1.5-.4 0-.2.6-.3 1.1 0 .7.2 3.5.4 4.7-.5 2.4 3.8-1.7 4.6-1.9z" style="fill:#e1e6f2"/><path id="SVGID_00000078727198165378701450000011842275807469708701_" d="M20 51.8c-.9.9 1.3 1.1 1.5 1.6s.5.3 1 .9c.5.6.8.2 1.1.8.3.5 1 1.5 1.8 1.6.7.1.8-1.4 1.3-1.2.5.3 1.2.1 1.3-.2.1-.3.4-1.3.9-1.6s.3-.9.4-1c.2-.1.6-.5.5-.8s-.4.2-.9.2-2.3-.2-2.8 0c-1.4.1-3.4-.1-4.7 0-.3.1-.7 0-.9 0s-.2-.5-.5-.3z" class="st2"/><path id="SVGID_00000117657151605762930080000009438476202686011813_" d="M74 78.3c-.7.2-3.4.5-5.2.5H65.4c-.3.1-.4.2-.1.3.4.2.4.3-.1.3-.6.1-2 .2-4.1.3-1.2.1-2.7.2-4.3.2-4.2.2-8.5-.3-12.8 0h-.1c-2.5.2-4.2 0-5.4-.2-1.3-.3-2.2-.6-3-.7h-1c-1.9.2-4.5.4-7.9.2h-.4c-.7 0-.9-.2-.9-.3h-3.7c-3-.1-5 0-8.1 0-1.2 0-2.9 0-4.2-.1-.7 0-1.9-.1-2.5-.1-1.9 0 2.4-1.6 4.7-2.5.1 0 .1-.1.2-.1.4-.3.8-.5 1.2-.6.3-.1.6-.2 1.1-.3.4-.1.9-.2 1.4-.3.5-.1 1.1-.2 1.6-.3.5-.1 1.1-.2 1.6-.3.5-.1 1.1-.2 1.6-.4s1-.3 1.5-.5 1-.4 1.5-.7c.5-.2 1-.5 1.4-.7.5-.3.9-.5 1.3-.8.3-.2.6-.4.9-.7.3-.2.5-.5.8-.7.3-.4.7-.7 1-1l.2-.2c.4-.3.9-.7 1.3-.9.4-.3.9-.5 1.3-.7s.9-.4 1.3-.5l1.2-.3c.3 0 .6-.1.9 0h.2c.3 0 .7.1 1.1.3.4.1.8.3 1.2.5s.9.5 1.4.8.9.6 1.4.9.9.7 1.4 1c.2.2.5.4.7.6 1-.6 1.9-.7 4.1-.6 1.5 0 3.1-2.5 8 .7 4.8 3.2 5 5 9.4 6.1.3.1.6.2.8.2 1.8.2 4.2.3 5.6.4 1.2.1 2.3.3 3.2.8.2.1.4.2.5.3.4-.1.4 0 .2.1z" class="st2"/><defs><path id="SVGID_00000070076292522584231800000014210697794037029551_" d="M74 78.3c-.7.2-3.4.5-5.2.5H65.4c-.3.1-.4.2-.1.3.4.2.4.3-.1.3-.6.1-2 .2-4.1.3-1.2.1-2.7.2-4.3.2-4.2.2-8.5-.3-12.8 0h-.1c-2.5.2-4.2 0-5.4-.2-1.3-.3-2.2-.6-3-.7h-1c-1.9.2-4.5.4-7.9.2h-.4c-.7 0-.9-.2-.9-.3h-3.7c-3-.1-5 0-8.1 0-1.2 0-2.9 0-4.2-.1-.7 0-1.9-.1-2.5-.1-1.9 0 2.4-1.6 4.7-2.5.1 0 .1-.1.2-.1.4-.3.8-.5 1.2-.6.3-.1.6-.2 1.1-.3.4-.1.9-.2 1.4-.3.5-.1 1.1-.2 1.6-.3.5-.1 1.1-.2 1.6-.3.5-.1 1.1-.2 1.6-.4s1-.3 1.5-.5 1-.4 1.5-.7c.5-.2 1-.5 1.4-.7.5-.3.9-.5 1.3-.8.3-.2.6-.4.9-.7.3-.2.5-.5.8-.7.3-.4.7-.7 1-1l.2-.2c.4-.3.9-.7 1.3-.9.4-.3.9-.5 1.3-.7s.9-.4 1.3-.5l1.2-.3c.3 0 .6-.1.9 0h.2c.3 0 .7.1 1.1.3.4.1.8.3 1.2.5s.9.5 1.4.8.9.6 1.4.9.9.7 1.4 1c.2.2.5.4.7.6 1-.6 1.9-.7 4.1-.6 1.5 0 3.1-2.5 8 .7 4.8 3.2 5 5 9.4 6.1.3.1.6.2.8.2 1.8.2 4.2.3 5.6.4 1.2.1 2.3.3 3.2.8.2.1.4.2.5.3.4-.1.4 0 .2.1z"/></defs><clipPath id="SVGID_00000161602576366350721990000014814986338859988379_"><use xlink:href="#SVGID_00000070076292522584231800000014210697794037029551_" style="overflow:visible"/></clipPath><defs><filter id="Adobe_OpacityMaskFilter" width="62.1" height="13.6" x="10.8" y="66.3" filterUnits="userSpaceOnUse"><feColorMatrix values="1 0 0 0 0 0 1 0 0 0 0 0 1 0 0 0 0 0 1 0"/></filter></defs><mask id="SVGID_00000023263574549811287350000014758250729124361913_" width="62.1" height="13.6" x="10.8" y="66.3" maskUnits="userSpaceOnUse"><g style="filter:url(#Adobe_OpacityMaskFilter)"><defs><path id="SVGID_00000072998268193385771280000006868049596684887483_" d="M74 78.3c-.7.2-3.4.5-5.2.5H65.4c-.3.1-.4.2-.1.3.4.2.4.3-.1.3-.6.1-2 .2-4.1.3-1.2.1-2.7.2-4.3.2-4.2.2-8.5-.3-12.8 0h-.1c-2.5.2-4.2 0-5.4-.2-1.3-.3-2.2-.6-3-.7h-1c-1.9.2-4.5.4-7.9.2h-.4c-.7 0-.9-.2-.9-.3h-3.7c-3-.1-5 0-8.1 0-1.2 0-2.9 0-4.2-.1-.7 0-1.9-.1-2.5-.1-1.9 0 2.4-1.6 4.7-2.5.1 0 .1-.1.2-.1.4-.3.8-.5 1.2-.6.3-.1.6-.2 1.1-.3.4-.1.9-.2 1.4-.3.5-.1 1.1-.2 1.6-.3.5-.1 1.1-.2 1.6-.3.5-.1 1.1-.2 1.6-.4s1-.3 1.5-.5 1-.4 1.5-.7c.5-.2 1-.5 1.4-.7.5-.3.9-.5 1.3-.8.3-.2.6-.4.9-.7.3-.2.5-.5.8-.7.3-.4.7-.7 1-1l.2-.2c.4-.3.9-.7 1.3-.9.4-.3.9-.5 1.3-.7s.9-.4 1.3-.5l1.2-.3c.3 0 .6-.1.9 0h.2c.3 0 .7.1 1.1.3.4.1.8.3 1.2.5s.9.5 1.4.8.9.6 1.4.9.9.7 1.4 1c.2.2.5.4.7.6 1-.6 1.9-.7 4.1-.6 1.5 0 3.1-2.5 8 .7 4.8 3.2 5 5 9.4 6.1.3.1.6.2.8.2 1.8.2 4.2.3 5.6.4 1.2.1 2.3.3 3.2.8.2.1.4.2.5.3.4-.1.4 0 .2.1z"/></defs><clipPath id="SVGID_00000047739130534803484930000009267027588720627841_" style="clip-path:url(#SVGID_00000161602576366350721990000014814986338859988379_)"><use xlink:href="#SVGID_00000072998268193385771280000006868049596684887483_" style="overflow:visible"/></clipPath></g></mask><g style="clip-path:url(#SVGID_00000161602576366350721990000014814986338859988379_);mask:url(#SVGID_00000023263574549811287350000014758250729124361913_)"><path d="M59.7 77.3c-.1.4-.4.5-.9.6-.4.1-1 .1-1.4.1H54c-.5 0-1.1 0-1.6.1-.5 0-1.1 0-1.6.1-.5 0-1 .1-1.5.1s-.9.1-1.3.1c-.5.1-.9.1-1.4.2-.4.1-.8.2-1.2.2-.4.2-.9.2-1.3.2-.3 0-.7 0-1.1-.1-.2 0-.5-.1-.7-.1s-.3 0-.5-.1c-.4-.1-.9-.1-1.4-.2-.4-.1-.8-.1-1.2-.1h-1.1c-.5 0-1 0-1.4.1-.5 0-1 .1-1.5.1s-1 .1-1.6.1-1.2.1-1.8.1h-9c-.5 0-1 0-1.4-.1-.5 0-1-.1-1.6-.1-.5 0-1-.1-1.6-.1-.5 0-1-.1-1.5-.1-.6-.1-1.2-.1-1.7-.2-.5 0-1-.1-1.4-.1-.7 0-1.2-.1-1.6-.1-.4-.1-.7-.1-.9-.2-.3-.2-.3-.5-.2-.8.1-.2.3-.5.6-.7.1 0 .1-.1.2-.1.4-.3.8-.5 1.2-.6.3-.1.6-.2 1.1-.3.4-.1.9-.2 1.4-.3.5-.1 1.1-.2 1.6-.3.5-.1 1.1-.2 1.6-.3.5-.1 1.1-.2 1.6-.4s1-.3 1.5-.5 1-.4 1.5-.7c.5-.2 1-.5 1.4-.7.5-.3.9-.5 1.3-.8.3-.2.6-.4.9-.7.3-.2.5-.5.8-.7.3-.4.7-.7 1-1l.2-.2c.4-.3.9-.7 1.3-.9.4-.3.9-.5 1.3-.7s.9-.4 1.3-.5l1.2-.3c.3 0 .6-.1.9 0h.2c.3 0 .7.1 1.1.3.4.1.8.3 1.2.5s.9.5 1.4.8.9.6 1.4.9.9.7 1.4 1c.2.2.5.4.7.6s.4.3.6.5c.4.4.9.7 1.4 1 .4.3.8.5 1.2.7.1 0 .1.1.2.1.5.3 1 .5 1.4.8.5.2.9.5 1.3.7.4.2.8.4 1.1.5l.9.3c.1 0 .2 0 .3.1.3.1.7.1 1.1.1h3.2c.6 0 1.1.1 1.6.1.5.1 1 .2 1.4.3s.8.3 1 .6c.3.3.5.7.6.9.2-.1.2 0 .2.2z" style="fill:#edeffc"/><path d="M72.3 78.3c-1.9.3-5.4.2-6.7.4h-.2c-.3.1-.4.2-.1.3.4.2.4.3-.1.3-.6.1-2 .2-4.1.3-1.2.1-2.7.2-4.3.2-4.2.2-8.5-.3-12.8 0h-.1c-2.5.2-4.2 0-5.4-.2-1.3-.3-2.2-.6-3-.7h-1c-1.9.2-4.5.4-7.9.2h-.4c-.7 0-.9-.2-.9-.3v-.1l.1-.1c.4-.3 2-.8 3.5-1.1 3.9-1 6.8-2.7 9.6-4.8.2-.1.3-.2.5-.4.3-.3.6-.5.9-.7 1-.8 1.6-1.3 2.2-1.7 1-.6 1.9-.7 4.1-.6 1.5 0 3.1-2.5 8 .7 4.8 3.2 5 5 9.4 6.1.3.1.6.2.8.2 1.3.4 2.8.8 3.9 1l2.4.3c.7.1 1.8.2 2.1.2.3.3.2.4-.5.5z" style="fill:#f4f5fd"/></g><path d="M47.3 39.7c-.1 0-.2.1-.3 0 .1-.4-.5-.2-.1 0 0 .2-.2.2-.4.3.1-.1.2-.1.1-.2.1-.1 0-.2.1-.3.1-.1.2 0 .2-.2-.1-.2-.1-.1-.2-.2s0-.2-.1-.3c.1-.1 0-.2-.1-.2.2 0 .3.1.4.3-.4.2.1.5.1 0 .8.1.7-.1 0-.1v-.1c.5-.1-.2-.4-.4-.2.7-.3.6-.4 0 0 .3-.1.3-.8 0-.4 0 0 0-.1-.1-.1.4-.6.3-.7-.1 0-.4-.3-.4.3 0 .1.1.1.1.3.1.4 0-.1 0-.3-.2-.2 0-.1-.2-.2-.2-.3 0-.1.1-.2 0-.3-.2-.1-.2 0-.3.1-.1 0-.2-.1-.3-.1 0-.2-.2-.1-.3 0 .1-.1.3-.2.4-.2 0 .4.5.1.1 0 .5-.6.3-.7-.1 0h-.1c.1-.4-.4-.1-.4.2 0-.7-.1-.7-.1 0 0-.3-.6-.6-.4-.2h-.1c-.3-.6-.5-.6-.1 0-.4.2 0 .5.1 0 .2 0 .3 0 .4.2-.1 0-.2-.1-.3 0-.1 0-.2.1-.3.1-.1-.1-.1-.2-.3-.1-.1.1 0 .2 0 .3-.1.1-.2.1-.2.3-.2 0-.2.1-.2.2-.1-.1-.1-.3.1-.4.4.2.3-.4 0-.1-.3-.7-.5-.5-.1 0 0 0 0 .1-.1.1-.3-.3-.3.3 0 .4-.6-.4-.7-.3 0 0-.2-.2-.9.1-.4.2v.1c-.7 0-.8.2 0 .1-.1.4.5.2.1 0 0-.2.2-.2.4-.3-.1.1-.2.1-.1.2-.1.1 0 .2-.1.3s-.2 0-.2.2c.1.2.1.1.2.2s0 .2.1.3c-.1.1 0 .2.1.2-.2 0-.3-.1-.4-.3.4-.2-.1-.5-.1 0-.8-.1-.7.1 0 .1v.1c-.5.1.2.4.4.2-.6.3-.7.5 0 .1-.3.1-.3.8 0 .4 0 0 0 .1.1.1-.4.6-.3.7.1 0 .4.3.4-.3 0-.1-.1-.1-.1-.3-.1-.4 0 .1 0 .3.2.2 0 .1.2.2.2.3s-.1.2 0 .3c.2.1.2 0 .3-.1.1 0 .2.1.3.1 0 .2.2.1.3 0-.1.1-.3.2-.4.2 0-.4-.5-.1-.1 0-.5.6-.3.7.1 0h.1c-.1.4.4.1.4-.2 0 .7.1.7.1 0 0 .3.6.6.4.2h.1c.3.6.5.6.1 0 .4-.2 0-.5-.1 0-.2 0-.3 0-.4-.2.1 0 .2.1.3 0 .1 0 .2-.1.3-.1.1.1.1.2.3.1.1-.1 0-.2 0-.3.1-.1.2-.1.2-.3.2 0 .2-.1.2-.2.1.1.1.3-.1.4-.4-.2-.3.4 0 .1.3.7.5.5.1 0 0 0 0-.1.1-.1.3.3.3-.3 0-.4.7.4.7.3 0 0 .2.2.9-.1.4-.2v-.1h.6c-.1-.3-.2-.2-.3-.2zm-.3-.8s0 .2-.1.2c0-.1.1-.2.1-.2zm0-.3c.4.3-.2.1-.3 0 .1 0 .2-.1.3 0zm-.6-.6c-.2 0-.1-.2 0 0 0-.1 0-.1 0 0zm-.7-.5c.3.2 0 .2 0 0zm-1.1.1c-.1.2-.3 0 0 0 0-.1 0-.1 0 0zm-.7.3c.2-.1.1.1 0 0-.1 0-.1 0 0 0zm-.7 1c.2.2 0 .2 0 0zm.1-.3c-.5.2-.1-.2.2-.1 0 .1-.1.1-.2.1zm-.1 1.1s0-.2.1-.2c0 .1 0 .1-.1.2zm0 .4c-.4-.3.2-.1.3 0h-.3zm.6.6c.3-.1.2.1 0 0zm.7.3c-.2-.2.1-.2 0 0 .1 0 0 0 0 0zm1.2 0c.1-.2.2-.1 0 0zm.7-.3c-.2.1-.1-.1 0 0zm.2-.7c-.1 0-.2 0-.2-.1.2-.1.1-.3-.1-.3.1 0 .1-.1.2-.1.1.1.2.3.3.4-.1 0-.1.1-.2.1zm-.2-.2c-.1-.1.1-.2 0 0 .1 0 0 0 0 0zm.4-.7c0 .1.1.1.2.1 0 0 0 .1.1.1 0 0 0 .1-.1.1-.2-.1-.2.2-.3.4-.2-.5-.5-.1-.9-.1.3-.4-.5-.2-.7-.3.2-.1 1 .1.7-.3.4 0 .7.4 1 0 0-.2 0-.1 0 0zm-1.1.7c0 .1-.2.1-.2 0 0-.2.2-.2.2 0zm-.2-.1c-.1-.1-.1-.2-.2-.3l.2.3c0-.1 0-.1 0 0zm-.4.2v-.4c.1.1.1.2.2.3-.1 0-.1 0-.2.1zm.2 0c.1 0 0 .2 0 0-.2.1-.1-.1 0 0zm-.4-.1c0-.1.1-.2.2-.3v.4c-.1-.1-.2-.1-.2-.1zm0 .2c-.1 0-.1-.1 0 0 0-.2.2 0 0 0zm-.5-.5c-.1-.1 0-.2 0 0 .2-.1.1.1 0 0zm.2-.1h.4l-.3.2c-.1-.1-.1-.2-.1-.2zm-.1-.3c-.1 0-.1-.1 0 0 0-.2.1 0 0 0zm.1-.3c0-.1.2-.1.2 0-.1.1-.3.1-.2 0zm.2 0c.1.1.1.2.2.3l-.2-.3c-.1.1 0 .1 0 0zm.3-.1v.4c-.1-.1-.1-.2-.2-.3 0-.1.1-.1.2-.1zm-.2 0c-.1 0 0-.1 0 0 .2-.1 0 0 0 0zm.4 0c0 .1-.1.2-.2.3v-.4c.1.1.1.1.2.1zm-.1-.1c.1 0 .1 0 0 0 0 .1-.1 0 0 0zm.6.4c.1.1 0 .2 0 0-.2.1-.1-.1 0 0zm-.1.2h-.4l.3-.2c0 .1 0 .1.1.2zm-.1-.3s-.1-.1 0 0c0-.3.2-.1 0 0zm0 0-.3.2c.1-.1.1-.2.3-.2-.1 0-.1 0 0 0zm-1 .1.3.2h-.4c.1-.1.1-.1.1-.2zm0 .7c.1 0 .2 0 0 0 .1.2-.1 0 0 0zm.1-.1.3-.2c-.2.1-.2.2-.3.2.1 0 0 0 0 0zm.6-.2h.4s-.1.1 0 .2l-.4-.2zm.4 0c.1 0 .1.1 0 0 0 .2-.1 0 0 0zm1.1-.7c-.1.1-.2.3-.3.4-.1 0-.1-.1-.2-.1.2 0 .3-.2.1-.3 0-.1.3-.1.4 0zm-.4 0c.1.2-.2.1 0 0zm0 0c-.1 0-.1.2 0 .2-.2 0-.3-.1-.5-.1l.5-.1c0-.1 0 0 0 0zm-.5.1c.1-.1.1-.3.2-.4 0 .1.1.2.2.1h.1l-.5.3zm.2-.4c.1-.1.2.1 0 0 0 .2 0 .1 0 0zm.6-.2c.1-.5.3 0 0 .2v-.2zm-.3.1c.2.1.1.4-.1.3.1-.2-.3-.2-.3-.1v-.2h.4zm-.6-.5c.1 0 .2 0 .2-.1h.1s0 .1.1.1c-.2.2.1.3.2.4-.6-.1-.4.3-.6.7-.2-.5-.4.3-.6.4 0-.2.6-.8 0-.7.2-.4.7-.4.3-.8.1-.1.2 0 .3 0zm-.5-.5c.4-.2 0 .2-.1.3 0-.1.1-.2.1-.3zm-.1.5c.1-.1.1-.1.2-.1.1.1.1.3.2.4-.1 0-.1.1-.2.1.1-.1-.1-.4-.2-.2-.1 0-.1-.2 0-.2zm.2.2c0 .1-.1.1 0 0-.2 0 0-.1 0 0zm-.2 0c0 .1.1.2.2.1 0 .2-.2.2-.3.4l.1-.5c-.1 0 0 0 0 0zm-.1 0v.5c-.1-.1-.2-.2-.3-.4 0 .1.2 0 .3-.1-.1 0-.1 0 0 0zm-.3 0c.1 0 .1 0 0 0 .1.2 0 0 0 0zm0-.5c-.4-.3.2-.2.2.1-.1 0-.1-.1-.2-.1zm0 .3c0-.1 0-.1 0 0 .2-.1.4.1.2.2-.2-.2-.3.1-.2.2-.1 0-.1-.1-.2-.1.1-.1.2-.2.2-.3zm-.7.2v-.2s0-.1.1-.1h.1c.1.2.3 0 .5 0-.4.5.2.5.3.8-.5-.1 0 .5 0 .7-.2-.1-.4-.9-.6-.4-.2-.4 0-.8-.6-.7.1 0 .2 0 .2-.1zm-.3.3h.5v.2c-.1-.2-.4-.2-.3.1-.2 0-.3-.2-.2-.3zm.3.3c-.1 0 0-.2 0 0zm-.6-.4c0-.4.2.1.2.2-.1-.1-.2-.1-.2-.2zm.5.4c.1.1.2 0 .2-.1.1.1.1.3.2.4l-.4-.3c-.1 0 0 0 0 0zm.4.3c-.2 0-.3.1-.5.1.1 0 .1-.2 0-.2v-.1l.5.2zm-.6 0c-.1 0 0-.2 0 0 .2-.1.1 0 0 0zm-.1-.3c.1 0 .2 0 .2.1-.2.1-.1.3.1.3-.1 0-.1.1-.2.1-.1-.1-.2-.3-.3-.4 0-.1.1-.1.2-.1zm-.3.8c0-.1-.1-.1-.2-.1 0 0 0-.1-.1-.1 0 0 0-.1.1-.1.2.1.2-.2.3-.4.2.5.5.1.9.1-.3.4.5.2.7.3-.2.1-1-.1-.7.3-.4 0-.7-.4-1 0 0 .2.1.1 0 0zm.1.4c.1-.1.2-.3.3-.4.1 0 .1.1.2.1-.2 0-.3.2-.1.3 0 .3-.4.2-.4 0zm.4 0c-.2-.2.1-.1 0 0zm0 .1c.1 0 .1-.2 0-.2.2 0 .3.1.5.1l-.5.3v-.2zm.5-.2c-.1.1-.1.3-.2.4 0-.1-.1-.2-.2-.1h-.1l.5-.3zm-.3.5c-.1.1-.2-.1 0 0 0-.2.1-.1 0 0zm-.5.2c-.1.5-.3 0 0-.2v.2zm.3 0s-.1 0 0 0c-.2-.1-.1-.4.1-.3-.1.2.3.2.3.1v.2h-.4zm.6.4c-.1 0-.2 0-.2.1h-.1s0-.1-.1-.1c.2-.2-.1-.3-.2-.4.6.1.4-.3.6-.7.2.5.4-.3.6-.4 0 .2-.6.8 0 .7-.2.4-.7.4-.3.8h-.3zm.3.4c-.4.2 0-.2.1-.3.1.1 0 .2-.1.3zm.2-.4c-.1.1-.1.1-.2.1-.1-.1-.1-.3-.2-.4.1 0 .1-.1.2-.1-.1.1.1.4.2.2v.2zm-.2-.2c0-.1.1-.1 0 0 .1.1 0 .1 0 0zm.2 0c0-.1-.1-.2-.2-.1 0-.2.2-.2.3-.4l-.1.5c0 .1 0 0 0 0zm.1.1v-.5c.1.1.2.2.3.4-.1-.2-.2-.1-.3.1.1-.1 0 0 0 0zm.2 0s-.1-.1 0 0c0-.3.2-.1 0 0zm0 .4c.4.3-.2.2-.2-.1.1 0 .2 0 .2.1zm.1-.3c-.2.1-.4-.1-.2-.2.2.2.3-.1.2-.2.1 0 .1.1.2.1 0 .2-.1.3-.2.3zm.7-.2v.2s0 .1-.1.1h-.1c-.1-.2-.3 0-.5 0 .4-.5-.2-.5-.3-.8.5.1 0-.5 0-.7.2.1.4.9.6.4.2.4 0 .8.6.7 0 0-.1.1-.2.1zm.4-.2H46v-.2c.1.2.4.2.3-.1.2-.2.2.2.2.3zm-.3-.3c.1 0 0 .2 0 0-.1 0-.1-.1 0 0zm.6.4c0 .4-.2-.1-.2-.2.1 0 .2.1.2.2zm-.5-.5c-.1-.1-.2 0-.2.1-.1-.1-.1-.3-.2-.4l.4.3zm-.4-.3c.2 0 .3-.1.5-.1-.1 0-.1.2 0 .2v.1l-.5-.2zm1.2.3c0 .2-.3.1-.4.1.2 0 .3-.3.4-.1zm-.1-.3c-.1 0-.1-.1-.1-.2.1 0 .1.1.1.2z" class="st0"/></svg>