<svg fill="#fff" viewBox="0 0 22.407 21.002" xmlns="http://www.w3.org/2000/svg"><path d="M5.656 1.438l-.344 2.688h11.781l-.344-2.688C16.75.625 16.093 0 15.28 0H7.092C6.28 0 5.654.625 5.654 1.438zM1.438 5.594H20.97c.813 0 1.438.625 1.438 1.438v8.563c0 .813-.625 1.438-1.438 1.438h-2.656v3.969H4.094v-3.969H1.438A1.415 1.415 0 010 15.595V7.032c0-.813.625-1.438 1.438-1.438zm15.437 13.969v-9.281H5.531v9.281zm-1.687-6.594H7.063c-.188 0-.344-.188-.344-.375v-.438c0-.188.156-.344.344-.344h8.125c.188 0 .375.156.375.344v.438a.403.403 0 01-.375.375zm0 2.594H7.063c-.188 0-.344-.188-.344-.375v-.438c0-.188.156-.344.344-.344h8.125c.188 0 .375.156.375.344v.438a.403.403 0 01-.375.375zm0 2.593H7.063c-.188 0-.344-.188-.344-.375v-.438c0-.188.156-.344.344-.344h8.125c.188 0 .375.156.375.344v.438a.403.403 0 01-.375.375z"/></svg>